<?xml version="1.0" encoding="utf-8" standalone="no"?>
<!DOCTYPE svg PUBLIC "-//W3C//DTD SVG 1.1//EN"
  "http://www.w3.org/Graphics/SVG/1.1/DTD/svg11.dtd">
<!-- Created with matplotlib (https://matplotlib.org/) -->
<svg height="396pt" version="1.1" viewBox="0 0 576 396" width="576pt" xmlns="http://www.w3.org/2000/svg" xmlns:xlink="http://www.w3.org/1999/xlink">
 <metadata>
  <rdf:RDF xmlns:cc="http://creativecommons.org/ns#" xmlns:dc="http://purl.org/dc/elements/1.1/" xmlns:rdf="http://www.w3.org/1999/02/22-rdf-syntax-ns#">
   <cc:Work>
    <dc:type rdf:resource="http://purl.org/dc/dcmitype/StillImage"/>
    <dc:date>2021-06-21T01:20:29.725087</dc:date>
    <dc:format>image/svg+xml</dc:format>
    <dc:creator>
     <cc:Agent>
      <dc:title>Matplotlib v3.3.4, https://matplotlib.org/</dc:title>
     </cc:Agent>
    </dc:creator>
   </cc:Work>
  </rdf:RDF>
 </metadata>
 <defs>
  <style type="text/css">*{stroke-linecap:butt;stroke-linejoin:round;}</style>
 </defs>
 <g id="figure_1">
  <g id="patch_1">
   <path d="M 0 396 
L 576 396 
L 576 0 
L 0 0 
z
" style="fill:#ffffff;"/>
  </g>
  <g id="axes_1">
   <g id="patch_2">
    <path d="M 72 352.44 
L 518.4 352.44 
L 518.4 47.52 
L 72 47.52 
z
" style="fill:#ffffff;"/>
   </g>
   <g id="matplotlib.axis_1">
    <g id="xtick_1">
     <g id="line2d_1">
      <path clip-path="url(#peb56a7b3a9)" d="M 92.290909 352.44 
L 92.290909 47.52 
" style="fill:none;stroke:#cccccc;stroke-linecap:round;"/>
     </g>
     <g id="line2d_2"/>
     <g id="text_1">
      <!-- 2 -->
      <g style="fill:#262626;" transform="translate(89.51044 366.686875)scale(0.1 -0.1)">
       <defs>
        <path d="M 5.03125 0 
L 5.03125 6.203125 
Q 7.515625 11.921875 11.109375 16.28125 
Q 14.703125 20.65625 18.65625 24.1875 
Q 22.609375 27.734375 26.484375 30.765625 
Q 30.375 33.796875 33.5 36.8125 
Q 36.625 39.84375 38.546875 43.15625 
Q 40.484375 46.484375 40.484375 50.6875 
Q 40.484375 56.34375 37.15625 59.46875 
Q 33.84375 62.59375 27.9375 62.59375 
Q 22.3125 62.59375 18.671875 59.546875 
Q 15.046875 56.5 14.40625 50.984375 
L 5.421875 51.8125 
Q 6.390625 60.0625 12.421875 64.9375 
Q 18.453125 69.828125 27.9375 69.828125 
Q 38.328125 69.828125 43.921875 64.921875 
Q 49.515625 60.015625 49.515625 50.984375 
Q 49.515625 46.96875 47.671875 43.015625 
Q 45.84375 39.0625 42.234375 35.109375 
Q 38.625 31.15625 28.421875 22.859375 
Q 22.796875 18.265625 19.46875 14.578125 
Q 16.15625 10.890625 14.703125 7.46875 
L 50.59375 7.46875 
L 50.59375 0 
z
" id="LiberationSans-50"/>
       </defs>
       <use xlink:href="#LiberationSans-50"/>
      </g>
     </g>
    </g>
    <g id="xtick_2">
     <g id="line2d_3">
      <path clip-path="url(#peb56a7b3a9)" d="M 182.472727 352.44 
L 182.472727 47.52 
" style="fill:none;stroke:#cccccc;stroke-linecap:round;"/>
     </g>
     <g id="line2d_4"/>
     <g id="text_2">
      <!-- 4 -->
      <g style="fill:#262626;" transform="translate(179.692259 366.686875)scale(0.1 -0.1)">
       <defs>
        <path d="M 43.015625 15.578125 
L 43.015625 0 
L 34.71875 0 
L 34.71875 15.578125 
L 2.296875 15.578125 
L 2.296875 22.40625 
L 33.796875 68.796875 
L 43.015625 68.796875 
L 43.015625 22.515625 
L 52.6875 22.515625 
L 52.6875 15.578125 
z
M 34.71875 58.890625 
Q 34.625 58.59375 33.34375 56.296875 
Q 32.078125 54 31.453125 53.078125 
L 13.8125 27.09375 
L 11.1875 23.484375 
L 10.40625 22.515625 
L 34.71875 22.515625 
z
" id="LiberationSans-52"/>
       </defs>
       <use xlink:href="#LiberationSans-52"/>
      </g>
     </g>
    </g>
    <g id="xtick_3">
     <g id="line2d_5">
      <path clip-path="url(#peb56a7b3a9)" d="M 272.654545 352.44 
L 272.654545 47.52 
" style="fill:none;stroke:#cccccc;stroke-linecap:round;"/>
     </g>
     <g id="line2d_6"/>
     <g id="text_3">
      <!-- 6 -->
      <g style="fill:#262626;" transform="translate(269.874077 366.686875)scale(0.1 -0.1)">
       <defs>
        <path d="M 51.21875 22.515625 
Q 51.21875 11.625 45.3125 5.3125 
Q 39.40625 -0.984375 29 -0.984375 
Q 17.390625 -0.984375 11.234375 7.65625 
Q 5.078125 16.3125 5.078125 32.8125 
Q 5.078125 50.6875 11.46875 60.25 
Q 17.875 69.828125 29.6875 69.828125 
Q 45.265625 69.828125 49.3125 55.8125 
L 40.921875 54.296875 
Q 38.328125 62.703125 29.59375 62.703125 
Q 22.078125 62.703125 17.9375 55.6875 
Q 13.8125 48.6875 13.8125 35.40625 
Q 16.21875 39.84375 20.5625 42.15625 
Q 24.90625 44.484375 30.515625 44.484375 
Q 40.046875 44.484375 45.625 38.515625 
Q 51.21875 32.5625 51.21875 22.515625 
z
M 42.28125 22.125 
Q 42.28125 29.59375 38.625 33.640625 
Q 34.96875 37.703125 28.421875 37.703125 
Q 22.265625 37.703125 18.484375 34.109375 
Q 14.703125 30.515625 14.703125 24.21875 
Q 14.703125 16.265625 18.625 11.1875 
Q 22.5625 6.109375 28.71875 6.109375 
Q 35.0625 6.109375 38.671875 10.375 
Q 42.28125 14.65625 42.28125 22.125 
z
" id="LiberationSans-54"/>
       </defs>
       <use xlink:href="#LiberationSans-54"/>
      </g>
     </g>
    </g>
    <g id="xtick_4">
     <g id="line2d_7">
      <path clip-path="url(#peb56a7b3a9)" d="M 362.836364 352.44 
L 362.836364 47.52 
" style="fill:none;stroke:#cccccc;stroke-linecap:round;"/>
     </g>
     <g id="line2d_8"/>
     <g id="text_4">
      <!-- 8 -->
      <g style="fill:#262626;" transform="translate(360.055895 366.686875)scale(0.1 -0.1)">
       <defs>
        <path d="M 51.265625 19.1875 
Q 51.265625 9.671875 45.203125 4.34375 
Q 39.15625 -0.984375 27.828125 -0.984375 
Q 16.796875 -0.984375 10.5625 4.234375 
Q 4.34375 9.46875 4.34375 19.09375 
Q 4.34375 25.828125 8.203125 30.421875 
Q 12.0625 35.015625 18.0625 35.984375 
L 18.0625 36.1875 
Q 12.453125 37.5 9.203125 41.890625 
Q 5.953125 46.296875 5.953125 52.203125 
Q 5.953125 60.0625 11.828125 64.9375 
Q 17.71875 69.828125 27.640625 69.828125 
Q 37.796875 69.828125 43.671875 65.03125 
Q 49.5625 60.25 49.5625 52.09375 
Q 49.5625 46.1875 46.28125 41.796875 
Q 43.015625 37.40625 37.359375 36.28125 
L 37.359375 36.078125 
Q 43.953125 35.015625 47.609375 30.5 
Q 51.265625 25.984375 51.265625 19.1875 
z
M 40.4375 51.609375 
Q 40.4375 63.28125 27.640625 63.28125 
Q 21.4375 63.28125 18.1875 60.34375 
Q 14.9375 57.421875 14.9375 51.609375 
Q 14.9375 45.703125 18.28125 42.59375 
Q 21.625 39.5 27.734375 39.5 
Q 33.9375 39.5 37.1875 42.359375 
Q 40.4375 45.21875 40.4375 51.609375 
z
M 42.140625 20.015625 
Q 42.140625 26.421875 38.328125 29.65625 
Q 34.515625 32.90625 27.640625 32.90625 
Q 20.953125 32.90625 17.1875 29.40625 
Q 13.421875 25.921875 13.421875 19.828125 
Q 13.421875 5.609375 27.9375 5.609375 
Q 35.109375 5.609375 38.625 9.046875 
Q 42.140625 12.5 42.140625 20.015625 
z
" id="LiberationSans-56"/>
       </defs>
       <use xlink:href="#LiberationSans-56"/>
      </g>
     </g>
    </g>
    <g id="xtick_5">
     <g id="line2d_9">
      <path clip-path="url(#peb56a7b3a9)" d="M 453.018182 352.44 
L 453.018182 47.52 
" style="fill:none;stroke:#cccccc;stroke-linecap:round;"/>
     </g>
     <g id="line2d_10"/>
     <g id="text_5">
      <!-- 10 -->
      <g style="fill:#262626;" transform="translate(447.457244 366.686875)scale(0.1 -0.1)">
       <defs>
        <path d="M 7.625 0 
L 7.625 7.46875 
L 25.140625 7.46875 
L 25.140625 60.40625 
L 9.625 49.3125 
L 9.625 57.625 
L 25.875 68.796875 
L 33.984375 68.796875 
L 33.984375 7.46875 
L 50.734375 7.46875 
L 50.734375 0 
z
" id="LiberationSans-49"/>
        <path d="M 51.703125 34.421875 
Q 51.703125 17.1875 45.625 8.09375 
Q 39.546875 -0.984375 27.6875 -0.984375 
Q 15.828125 -0.984375 9.859375 8.046875 
Q 3.90625 17.09375 3.90625 34.421875 
Q 3.90625 52.15625 9.6875 60.984375 
Q 15.484375 69.828125 27.984375 69.828125 
Q 40.140625 69.828125 45.921875 60.890625 
Q 51.703125 51.953125 51.703125 34.421875 
z
M 42.78125 34.421875 
Q 42.78125 49.3125 39.328125 56 
Q 35.890625 62.703125 27.984375 62.703125 
Q 19.875 62.703125 16.328125 56.109375 
Q 12.796875 49.515625 12.796875 34.421875 
Q 12.796875 19.78125 16.375 12.984375 
Q 19.96875 6.203125 27.78125 6.203125 
Q 35.546875 6.203125 39.15625 13.125 
Q 42.78125 20.0625 42.78125 34.421875 
z
" id="LiberationSans-48"/>
       </defs>
       <use xlink:href="#LiberationSans-49"/>
       <use x="55.615234" xlink:href="#LiberationSans-48"/>
      </g>
     </g>
    </g>
    <g id="text_6">
     <!-- k -->
     <g style="fill:#262626;" transform="translate(292.45 380.733437)scale(0.11 -0.11)">
      <defs>
       <path d="M 39.84375 0 
L 21.96875 24.125 
L 15.53125 18.796875 
L 15.53125 0 
L 6.734375 0 
L 6.734375 72.46875 
L 15.53125 72.46875 
L 15.53125 27.203125 
L 38.71875 52.828125 
L 49.03125 52.828125 
L 27.59375 30.125 
L 50.140625 0 
z
" id="LiberationSans-107"/>
      </defs>
      <use xlink:href="#LiberationSans-107"/>
     </g>
    </g>
   </g>
   <g id="matplotlib.axis_2">
    <g id="ytick_1">
     <g id="line2d_11">
      <path clip-path="url(#peb56a7b3a9)" d="M 72 315.553989 
L 518.4 315.553989 
" style="fill:none;stroke:#cccccc;stroke-linecap:round;"/>
     </g>
     <g id="line2d_12"/>
     <g id="text_7">
      <!-- 675000 -->
      <g style="fill:#262626;" transform="translate(31.634375 319.177427)scale(0.1 -0.1)">
       <defs>
        <path d="M 50.59375 61.671875 
Q 40.046875 45.5625 35.6875 36.421875 
Q 31.34375 27.296875 29.171875 18.40625 
Q 27 9.515625 27 0 
L 17.828125 0 
Q 17.828125 13.1875 23.40625 27.75 
Q 29 42.328125 42.09375 61.328125 
L 5.125 61.328125 
L 5.125 68.796875 
L 50.59375 68.796875 
z
" id="LiberationSans-55"/>
        <path d="M 51.421875 22.40625 
Q 51.421875 11.53125 44.953125 5.265625 
Q 38.484375 -0.984375 27 -0.984375 
Q 17.390625 -0.984375 11.46875 3.21875 
Q 5.5625 7.421875 4 15.375 
L 12.890625 16.40625 
Q 15.671875 6.203125 27.203125 6.203125 
Q 34.28125 6.203125 38.28125 10.46875 
Q 42.28125 14.75 42.28125 22.21875 
Q 42.28125 28.71875 38.25 32.71875 
Q 34.234375 36.71875 27.390625 36.71875 
Q 23.828125 36.71875 20.75 35.59375 
Q 17.671875 34.46875 14.59375 31.78125 
L 6 31.78125 
L 8.296875 68.796875 
L 47.40625 68.796875 
L 47.40625 61.328125 
L 16.3125 61.328125 
L 14.984375 39.5 
Q 20.703125 43.890625 29.203125 43.890625 
Q 39.359375 43.890625 45.390625 37.9375 
Q 51.421875 31.984375 51.421875 22.40625 
z
" id="LiberationSans-53"/>
       </defs>
       <use xlink:href="#LiberationSans-54"/>
       <use x="55.615234" xlink:href="#LiberationSans-55"/>
       <use x="111.230469" xlink:href="#LiberationSans-53"/>
       <use x="166.845703" xlink:href="#LiberationSans-48"/>
       <use x="222.460938" xlink:href="#LiberationSans-48"/>
       <use x="278.076172" xlink:href="#LiberationSans-48"/>
      </g>
     </g>
    </g>
    <g id="ytick_2">
     <g id="line2d_13">
      <path clip-path="url(#peb56a7b3a9)" d="M 72 276.245663 
L 518.4 276.245663 
" style="fill:none;stroke:#cccccc;stroke-linecap:round;"/>
     </g>
     <g id="line2d_14"/>
     <g id="text_8">
      <!-- 700000 -->
      <g style="fill:#262626;" transform="translate(31.634375 279.869101)scale(0.1 -0.1)">
       <use xlink:href="#LiberationSans-55"/>
       <use x="55.615234" xlink:href="#LiberationSans-48"/>
       <use x="111.230469" xlink:href="#LiberationSans-48"/>
       <use x="166.845703" xlink:href="#LiberationSans-48"/>
       <use x="222.460938" xlink:href="#LiberationSans-48"/>
       <use x="278.076172" xlink:href="#LiberationSans-48"/>
      </g>
     </g>
    </g>
    <g id="ytick_3">
     <g id="line2d_15">
      <path clip-path="url(#peb56a7b3a9)" d="M 72 236.937337 
L 518.4 236.937337 
" style="fill:none;stroke:#cccccc;stroke-linecap:round;"/>
     </g>
     <g id="line2d_16"/>
     <g id="text_9">
      <!-- 725000 -->
      <g style="fill:#262626;" transform="translate(31.634375 240.560775)scale(0.1 -0.1)">
       <use xlink:href="#LiberationSans-55"/>
       <use x="55.615234" xlink:href="#LiberationSans-50"/>
       <use x="111.230469" xlink:href="#LiberationSans-53"/>
       <use x="166.845703" xlink:href="#LiberationSans-48"/>
       <use x="222.460938" xlink:href="#LiberationSans-48"/>
       <use x="278.076172" xlink:href="#LiberationSans-48"/>
      </g>
     </g>
    </g>
    <g id="ytick_4">
     <g id="line2d_17">
      <path clip-path="url(#peb56a7b3a9)" d="M 72 197.629012 
L 518.4 197.629012 
" style="fill:none;stroke:#cccccc;stroke-linecap:round;"/>
     </g>
     <g id="line2d_18"/>
     <g id="text_10">
      <!-- 750000 -->
      <g style="fill:#262626;" transform="translate(31.634375 201.252449)scale(0.1 -0.1)">
       <use xlink:href="#LiberationSans-55"/>
       <use x="55.615234" xlink:href="#LiberationSans-53"/>
       <use x="111.230469" xlink:href="#LiberationSans-48"/>
       <use x="166.845703" xlink:href="#LiberationSans-48"/>
       <use x="222.460938" xlink:href="#LiberationSans-48"/>
       <use x="278.076172" xlink:href="#LiberationSans-48"/>
      </g>
     </g>
    </g>
    <g id="ytick_5">
     <g id="line2d_19">
      <path clip-path="url(#peb56a7b3a9)" d="M 72 158.320686 
L 518.4 158.320686 
" style="fill:none;stroke:#cccccc;stroke-linecap:round;"/>
     </g>
     <g id="line2d_20"/>
     <g id="text_11">
      <!-- 775000 -->
      <g style="fill:#262626;" transform="translate(31.634375 161.944123)scale(0.1 -0.1)">
       <use xlink:href="#LiberationSans-55"/>
       <use x="55.615234" xlink:href="#LiberationSans-55"/>
       <use x="111.230469" xlink:href="#LiberationSans-53"/>
       <use x="166.845703" xlink:href="#LiberationSans-48"/>
       <use x="222.460938" xlink:href="#LiberationSans-48"/>
       <use x="278.076172" xlink:href="#LiberationSans-48"/>
      </g>
     </g>
    </g>
    <g id="ytick_6">
     <g id="line2d_21">
      <path clip-path="url(#peb56a7b3a9)" d="M 72 119.01236 
L 518.4 119.01236 
" style="fill:none;stroke:#cccccc;stroke-linecap:round;"/>
     </g>
     <g id="line2d_22"/>
     <g id="text_12">
      <!-- 800000 -->
      <g style="fill:#262626;" transform="translate(31.634375 122.635798)scale(0.1 -0.1)">
       <use xlink:href="#LiberationSans-56"/>
       <use x="55.615234" xlink:href="#LiberationSans-48"/>
       <use x="111.230469" xlink:href="#LiberationSans-48"/>
       <use x="166.845703" xlink:href="#LiberationSans-48"/>
       <use x="222.460938" xlink:href="#LiberationSans-48"/>
       <use x="278.076172" xlink:href="#LiberationSans-48"/>
      </g>
     </g>
    </g>
    <g id="ytick_7">
     <g id="line2d_23">
      <path clip-path="url(#peb56a7b3a9)" d="M 72 79.704034 
L 518.4 79.704034 
" style="fill:none;stroke:#cccccc;stroke-linecap:round;"/>
     </g>
     <g id="line2d_24"/>
     <g id="text_13">
      <!-- 825000 -->
      <g style="fill:#262626;" transform="translate(31.634375 83.327472)scale(0.1 -0.1)">
       <use xlink:href="#LiberationSans-56"/>
       <use x="55.615234" xlink:href="#LiberationSans-50"/>
       <use x="111.230469" xlink:href="#LiberationSans-53"/>
       <use x="166.845703" xlink:href="#LiberationSans-48"/>
       <use x="222.460938" xlink:href="#LiberationSans-48"/>
       <use x="278.076172" xlink:href="#LiberationSans-48"/>
      </g>
     </g>
    </g>
    <g id="text_14">
     <!-- calinski harabasz score -->
     <g style="fill:#262626;" transform="translate(25.351875 257.141328)rotate(-90)scale(0.11 -0.11)">
      <defs>
       <path d="M 13.421875 26.65625 
Q 13.421875 16.109375 16.734375 11.03125 
Q 20.0625 5.953125 26.765625 5.953125 
Q 31.453125 5.953125 34.59375 8.484375 
Q 37.75 11.03125 38.484375 16.3125 
L 47.359375 15.71875 
Q 46.34375 8.109375 40.875 3.5625 
Q 35.40625 -0.984375 27 -0.984375 
Q 15.921875 -0.984375 10.078125 6.015625 
Q 4.25 13.03125 4.25 26.46875 
Q 4.25 39.796875 10.109375 46.796875 
Q 15.96875 53.8125 26.90625 53.8125 
Q 35.015625 53.8125 40.359375 49.609375 
Q 45.703125 45.40625 47.078125 38.03125 
L 38.03125 37.359375 
Q 37.359375 41.75 34.5625 44.328125 
Q 31.78125 46.921875 26.65625 46.921875 
Q 19.671875 46.921875 16.546875 42.28125 
Q 13.421875 37.640625 13.421875 26.65625 
z
" id="LiberationSans-99"/>
       <path d="M 20.21875 -0.984375 
Q 12.25 -0.984375 8.25 3.21875 
Q 4.25 7.421875 4.25 14.75 
Q 4.25 22.953125 9.640625 27.34375 
Q 15.046875 31.734375 27.046875 32.03125 
L 38.921875 32.234375 
L 38.921875 35.109375 
Q 38.921875 41.546875 36.1875 44.328125 
Q 33.453125 47.125 27.59375 47.125 
Q 21.6875 47.125 19 45.109375 
Q 16.3125 43.109375 15.765625 38.71875 
L 6.59375 39.546875 
Q 8.84375 53.8125 27.78125 53.8125 
Q 37.75 53.8125 42.765625 49.234375 
Q 47.796875 44.671875 47.796875 36.03125 
L 47.796875 13.28125 
Q 47.796875 9.375 48.828125 7.390625 
Q 49.859375 5.421875 52.734375 5.421875 
Q 54 5.421875 55.609375 5.765625 
L 55.609375 0.296875 
Q 52.296875 -0.484375 48.828125 -0.484375 
Q 43.953125 -0.484375 41.71875 2.078125 
Q 39.5 4.640625 39.203125 10.109375 
L 38.921875 10.109375 
Q 35.546875 4.046875 31.078125 1.53125 
Q 26.609375 -0.984375 20.21875 -0.984375 
z
M 22.21875 5.609375 
Q 27.046875 5.609375 30.8125 7.8125 
Q 34.578125 10.015625 36.75 13.84375 
Q 38.921875 17.671875 38.921875 21.734375 
L 38.921875 26.078125 
L 29.296875 25.875 
Q 23.09375 25.78125 19.890625 24.609375 
Q 16.703125 23.4375 14.984375 21 
Q 13.28125 18.5625 13.28125 14.59375 
Q 13.28125 10.296875 15.59375 7.953125 
Q 17.921875 5.609375 22.21875 5.609375 
z
" id="LiberationSans-97"/>
       <path d="M 6.734375 0 
L 6.734375 72.46875 
L 15.53125 72.46875 
L 15.53125 0 
z
" id="LiberationSans-108"/>
       <path d="M 6.6875 64.0625 
L 6.6875 72.46875 
L 15.484375 72.46875 
L 15.484375 64.0625 
z
M 6.6875 0 
L 6.6875 52.828125 
L 15.484375 52.828125 
L 15.484375 0 
z
" id="LiberationSans-105"/>
       <path d="M 40.28125 0 
L 40.28125 33.5 
Q 40.28125 38.71875 39.25 41.59375 
Q 38.234375 44.484375 35.984375 45.75 
Q 33.734375 47.015625 29.390625 47.015625 
Q 23.046875 47.015625 19.375 42.671875 
Q 15.71875 38.328125 15.71875 30.609375 
L 15.71875 0 
L 6.9375 0 
L 6.9375 41.546875 
Q 6.9375 50.78125 6.640625 52.828125 
L 14.9375 52.828125 
Q 14.984375 52.59375 15.03125 51.515625 
Q 15.09375 50.4375 15.15625 49.046875 
Q 15.234375 47.65625 15.328125 43.796875 
L 15.484375 43.796875 
Q 18.5 49.265625 22.484375 51.53125 
Q 26.46875 53.8125 32.375 53.8125 
Q 41.0625 53.8125 45.09375 49.484375 
Q 49.125 45.171875 49.125 35.203125 
L 49.125 0 
z
" id="LiberationSans-110"/>
       <path d="M 46.390625 14.59375 
Q 46.390625 7.125 40.75 3.0625 
Q 35.109375 -0.984375 24.953125 -0.984375 
Q 15.09375 -0.984375 9.734375 2.265625 
Q 4.390625 5.515625 2.78125 12.40625 
L 10.546875 13.921875 
Q 11.671875 9.671875 15.1875 7.6875 
Q 18.703125 5.71875 24.953125 5.71875 
Q 31.640625 5.71875 34.734375 7.765625 
Q 37.84375 9.8125 37.84375 13.921875 
Q 37.84375 17.046875 35.6875 19 
Q 33.546875 20.953125 28.765625 22.21875 
L 22.46875 23.875 
Q 14.890625 25.828125 11.6875 27.703125 
Q 8.5 29.59375 6.6875 32.28125 
Q 4.890625 34.96875 4.890625 38.875 
Q 4.890625 46.09375 10.03125 49.875 
Q 15.1875 53.65625 25.046875 53.65625 
Q 33.796875 53.65625 38.9375 50.578125 
Q 44.09375 47.515625 45.453125 40.71875 
L 37.546875 39.75 
Q 36.8125 43.265625 33.609375 45.140625 
Q 30.421875 47.015625 25.046875 47.015625 
Q 19.09375 47.015625 16.25 45.203125 
Q 13.421875 43.40625 13.421875 39.75 
Q 13.421875 37.5 14.59375 36.03125 
Q 15.765625 34.578125 18.0625 33.546875 
Q 20.359375 32.515625 27.734375 30.71875 
Q 34.71875 28.953125 37.796875 27.46875 
Q 40.875 25.984375 42.65625 24.171875 
Q 44.4375 22.359375 45.40625 19.984375 
Q 46.390625 17.625 46.390625 14.59375 
z
" id="LiberationSans-115"/>
       <path id="LiberationSans-32"/>
       <path d="M 15.484375 43.796875 
Q 18.3125 48.96875 22.28125 51.390625 
Q 26.265625 53.8125 32.375 53.8125 
Q 40.96875 53.8125 45.046875 49.53125 
Q 49.125 45.265625 49.125 35.203125 
L 49.125 0 
L 40.28125 0 
L 40.28125 33.5 
Q 40.28125 39.0625 39.25 41.765625 
Q 38.234375 44.484375 35.890625 45.75 
Q 33.546875 47.015625 29.390625 47.015625 
Q 23.1875 47.015625 19.453125 42.71875 
Q 15.71875 38.421875 15.71875 31.15625 
L 15.71875 0 
L 6.9375 0 
L 6.9375 72.46875 
L 15.71875 72.46875 
L 15.71875 53.609375 
Q 15.71875 50.640625 15.546875 47.453125 
Q 15.375 44.28125 15.328125 43.796875 
z
" id="LiberationSans-104"/>
       <path d="M 6.9375 0 
L 6.9375 40.53125 
Q 6.9375 46.09375 6.640625 52.828125 
L 14.9375 52.828125 
Q 15.328125 43.84375 15.328125 42.046875 
L 15.53125 42.046875 
Q 17.625 48.828125 20.359375 51.3125 
Q 23.09375 53.8125 28.078125 53.8125 
Q 29.828125 53.8125 31.640625 53.328125 
L 31.640625 45.265625 
Q 29.890625 45.75 26.953125 45.75 
Q 21.484375 45.75 18.59375 41.03125 
Q 15.71875 36.328125 15.71875 27.546875 
L 15.71875 0 
z
" id="LiberationSans-114"/>
       <path d="M 51.421875 26.65625 
Q 51.421875 -0.984375 31.984375 -0.984375 
Q 25.984375 -0.984375 22 1.1875 
Q 18.015625 3.375 15.53125 8.203125 
L 15.4375 8.203125 
Q 15.4375 6.6875 15.234375 3.578125 
Q 15.046875 0.484375 14.9375 0 
L 6.453125 0 
Q 6.734375 2.640625 6.734375 10.890625 
L 6.734375 72.46875 
L 15.53125 72.46875 
L 15.53125 51.8125 
Q 15.53125 48.640625 15.328125 44.34375 
L 15.53125 44.34375 
Q 17.96875 49.421875 22 51.609375 
Q 26.03125 53.8125 31.984375 53.8125 
Q 42 53.8125 46.703125 47.0625 
Q 51.421875 40.328125 51.421875 26.65625 
z
M 42.1875 26.375 
Q 42.1875 37.453125 39.25 42.234375 
Q 36.328125 47.015625 29.734375 47.015625 
Q 22.3125 47.015625 18.921875 41.9375 
Q 15.53125 36.859375 15.53125 25.828125 
Q 15.53125 15.4375 18.84375 10.46875 
Q 22.171875 5.515625 29.640625 5.515625 
Q 36.28125 5.515625 39.234375 10.421875 
Q 42.1875 15.328125 42.1875 26.375 
z
" id="LiberationSans-98"/>
       <path d="M 4.046875 0 
L 4.046875 6.6875 
L 33.59375 46.046875 
L 5.71875 46.046875 
L 5.71875 52.828125 
L 44 52.828125 
L 44 46.140625 
L 14.40625 6.78125 
L 45.015625 6.78125 
L 45.015625 0 
z
" id="LiberationSans-122"/>
       <path d="M 51.421875 26.46875 
Q 51.421875 12.59375 45.3125 5.796875 
Q 39.203125 -0.984375 27.59375 -0.984375 
Q 16.015625 -0.984375 10.109375 6.078125 
Q 4.203125 13.140625 4.203125 26.46875 
Q 4.203125 53.8125 27.875 53.8125 
Q 39.984375 53.8125 45.703125 47.140625 
Q 51.421875 40.484375 51.421875 26.46875 
z
M 42.1875 26.46875 
Q 42.1875 37.40625 38.9375 42.359375 
Q 35.6875 47.3125 28.03125 47.3125 
Q 20.3125 47.3125 16.859375 42.25 
Q 13.421875 37.203125 13.421875 26.46875 
Q 13.421875 16.015625 16.8125 10.765625 
Q 20.21875 5.515625 27.484375 5.515625 
Q 35.40625 5.515625 38.796875 10.59375 
Q 42.1875 15.671875 42.1875 26.46875 
z
" id="LiberationSans-111"/>
       <path d="M 13.484375 24.5625 
Q 13.484375 15.484375 17.234375 10.546875 
Q 21 5.609375 28.21875 5.609375 
Q 33.9375 5.609375 37.375 7.90625 
Q 40.828125 10.203125 42.046875 13.71875 
L 49.75 11.53125 
Q 45.015625 -0.984375 28.21875 -0.984375 
Q 16.5 -0.984375 10.375 6 
Q 4.25 12.984375 4.25 26.765625 
Q 4.25 39.84375 10.375 46.828125 
Q 16.5 53.8125 27.875 53.8125 
Q 51.171875 53.8125 51.171875 25.734375 
L 51.171875 24.5625 
z
M 42.09375 31.296875 
Q 41.359375 39.65625 37.84375 43.484375 
Q 34.328125 47.3125 27.734375 47.3125 
Q 21.34375 47.3125 17.609375 43.03125 
Q 13.875 38.765625 13.578125 31.296875 
z
" id="LiberationSans-101"/>
      </defs>
      <use xlink:href="#LiberationSans-99"/>
      <use x="50" xlink:href="#LiberationSans-97"/>
      <use x="105.615234" xlink:href="#LiberationSans-108"/>
      <use x="127.832031" xlink:href="#LiberationSans-105"/>
      <use x="150.048828" xlink:href="#LiberationSans-110"/>
      <use x="205.664062" xlink:href="#LiberationSans-115"/>
      <use x="255.664062" xlink:href="#LiberationSans-107"/>
      <use x="305.664062" xlink:href="#LiberationSans-105"/>
      <use x="327.880859" xlink:href="#LiberationSans-32"/>
      <use x="355.664062" xlink:href="#LiberationSans-104"/>
      <use x="411.279297" xlink:href="#LiberationSans-97"/>
      <use x="466.894531" xlink:href="#LiberationSans-114"/>
      <use x="500.195312" xlink:href="#LiberationSans-97"/>
      <use x="555.810547" xlink:href="#LiberationSans-98"/>
      <use x="611.425781" xlink:href="#LiberationSans-97"/>
      <use x="667.041016" xlink:href="#LiberationSans-115"/>
      <use x="717.041016" xlink:href="#LiberationSans-122"/>
      <use x="767.041016" xlink:href="#LiberationSans-32"/>
      <use x="794.824219" xlink:href="#LiberationSans-115"/>
      <use x="844.824219" xlink:href="#LiberationSans-99"/>
      <use x="894.824219" xlink:href="#LiberationSans-111"/>
      <use x="950.439453" xlink:href="#LiberationSans-114"/>
      <use x="983.740234" xlink:href="#LiberationSans-101"/>
     </g>
    </g>
   </g>
   <g id="line2d_25">
    <path clip-path="url(#peb56a7b3a9)" d="M 92.290909 61.38 
L 137.381818 338.58 
L 182.472727 275.961377 
L 227.563636 105.616492 
L 272.654545 140.971341 
L 317.745455 163.895058 
L 362.836364 98.295228 
L 407.927273 70.82925 
L 453.018182 66.733338 
L 498.109091 63.888279 
" style="fill:none;stroke:#0272a2;stroke-linecap:round;stroke-width:1.75;"/>
    <defs>
     <path d="M -0 4.949747 
L 4.949747 0 
L 0 -4.949747 
L -4.949747 -0 
z
" id="md89197dcaf"/>
    </defs>
    <g clip-path="url(#peb56a7b3a9)">
     <use style="fill:#0272a2;" x="92.290909" xlink:href="#md89197dcaf" y="61.38"/>
     <use style="fill:#0272a2;" x="137.381818" xlink:href="#md89197dcaf" y="338.58"/>
     <use style="fill:#0272a2;" x="182.472727" xlink:href="#md89197dcaf" y="275.961377"/>
     <use style="fill:#0272a2;" x="227.563636" xlink:href="#md89197dcaf" y="105.616492"/>
     <use style="fill:#0272a2;" x="272.654545" xlink:href="#md89197dcaf" y="140.971341"/>
     <use style="fill:#0272a2;" x="317.745455" xlink:href="#md89197dcaf" y="163.895058"/>
     <use style="fill:#0272a2;" x="362.836364" xlink:href="#md89197dcaf" y="98.295228"/>
     <use style="fill:#0272a2;" x="407.927273" xlink:href="#md89197dcaf" y="70.82925"/>
     <use style="fill:#0272a2;" x="453.018182" xlink:href="#md89197dcaf" y="66.733338"/>
     <use style="fill:#0272a2;" x="498.109091" xlink:href="#md89197dcaf" y="63.888279"/>
    </g>
   </g>
   <g id="line2d_26">
    <path clip-path="url(#peb56a7b3a9)" d="M 92.290909 352.44 
L 92.290909 47.52 
" style="fill:none;stroke:#111111;stroke-dasharray:6.475,2.8;stroke-dashoffset:0;stroke-width:1.75;"/>
   </g>
   <g id="patch_3">
    <path d="M 72 352.44 
L 72 47.52 
" style="fill:none;stroke:#cccccc;stroke-linecap:square;stroke-linejoin:miter;stroke-width:1.25;"/>
   </g>
   <g id="patch_4">
    <path d="M 518.4 352.44 
L 518.4 47.52 
" style="fill:none;stroke:#cccccc;stroke-linecap:square;stroke-linejoin:miter;stroke-width:1.25;"/>
   </g>
   <g id="patch_5">
    <path d="M 72 352.44 
L 518.4 352.44 
" style="fill:none;stroke:#cccccc;stroke-linecap:square;stroke-linejoin:miter;stroke-width:1.25;"/>
   </g>
   <g id="patch_6">
    <path d="M 72 47.52 
L 518.4 47.52 
" style="fill:none;stroke:#cccccc;stroke-linecap:square;stroke-linejoin:miter;stroke-width:1.25;"/>
   </g>
   <g id="text_15">
    <!-- Calinski Harabasz Score Elbow for KMeans Clustering -->
    <g style="fill:#262626;" transform="translate(150.48 41.52)scale(0.12 -0.12)">
     <defs>
      <path d="M 38.671875 62.203125 
Q 27.25 62.203125 20.890625 54.859375 
Q 14.546875 47.515625 14.546875 34.71875 
Q 14.546875 22.078125 21.15625 14.375 
Q 27.78125 6.6875 39.0625 6.6875 
Q 53.515625 6.6875 60.796875 21 
L 68.40625 17.1875 
Q 64.15625 8.296875 56.46875 3.65625 
Q 48.78125 -0.984375 38.625 -0.984375 
Q 28.21875 -0.984375 20.625 3.34375 
Q 13.03125 7.671875 9.046875 15.703125 
Q 5.078125 23.734375 5.078125 34.71875 
Q 5.078125 51.171875 13.96875 60.5 
Q 22.859375 69.828125 38.578125 69.828125 
Q 49.5625 69.828125 56.9375 65.53125 
Q 64.3125 61.234375 67.78125 52.78125 
L 58.9375 49.859375 
Q 56.546875 55.859375 51.25 59.03125 
Q 45.953125 62.203125 38.671875 62.203125 
z
" id="LiberationSans-67"/>
      <path d="M 54.734375 0 
L 54.734375 31.890625 
L 17.53125 31.890625 
L 17.53125 0 
L 8.203125 0 
L 8.203125 68.796875 
L 17.53125 68.796875 
L 17.53125 39.703125 
L 54.734375 39.703125 
L 54.734375 68.796875 
L 64.0625 68.796875 
L 64.0625 0 
z
" id="LiberationSans-72"/>
      <path d="M 62.109375 19 
Q 62.109375 9.46875 54.65625 4.234375 
Q 47.21875 -0.984375 33.6875 -0.984375 
Q 8.546875 -0.984375 4.546875 16.5 
L 13.578125 18.3125 
Q 15.140625 12.109375 20.21875 9.203125 
Q 25.296875 6.296875 34.03125 6.296875 
Q 43.0625 6.296875 47.96875 9.390625 
Q 52.875 12.5 52.875 18.5 
Q 52.875 21.875 51.34375 23.96875 
Q 49.8125 26.078125 47.015625 27.4375 
Q 44.234375 28.8125 40.375 29.734375 
Q 36.53125 30.671875 31.84375 31.734375 
Q 23.6875 33.546875 19.453125 35.34375 
Q 15.234375 37.15625 12.796875 39.375 
Q 10.359375 41.609375 9.0625 44.578125 
Q 7.765625 47.5625 7.765625 51.421875 
Q 7.765625 60.25 14.53125 65.03125 
Q 21.296875 69.828125 33.890625 69.828125 
Q 45.609375 69.828125 51.8125 66.234375 
Q 58.015625 62.640625 60.5 54 
L 51.3125 52.390625 
Q 49.8125 57.859375 45.5625 60.328125 
Q 41.3125 62.796875 33.796875 62.796875 
Q 25.53125 62.796875 21.1875 60.0625 
Q 16.84375 57.328125 16.84375 51.90625 
Q 16.84375 48.734375 18.53125 46.65625 
Q 20.21875 44.578125 23.390625 43.140625 
Q 26.5625 41.703125 36.03125 39.59375 
Q 39.203125 38.875 42.359375 38.109375 
Q 45.515625 37.359375 48.390625 36.296875 
Q 51.265625 35.25 53.78125 33.828125 
Q 56.296875 32.421875 58.15625 30.375 
Q 60.015625 28.328125 61.0625 25.53125 
Q 62.109375 22.75 62.109375 19 
z
" id="LiberationSans-83"/>
      <path d="M 8.203125 0 
L 8.203125 68.796875 
L 60.40625 68.796875 
L 60.40625 61.1875 
L 17.53125 61.1875 
L 17.53125 39.109375 
L 57.46875 39.109375 
L 57.46875 31.59375 
L 17.53125 31.59375 
L 17.53125 7.625 
L 62.40625 7.625 
L 62.40625 0 
z
" id="LiberationSans-69"/>
      <path d="M 57.328125 0 
L 47.125 0 
L 37.890625 37.359375 
L 36.140625 45.609375 
Q 35.6875 43.40625 34.765625 39.28125 
Q 33.84375 35.15625 24.8125 0 
L 14.65625 0 
L -0.140625 52.828125 
L 8.546875 52.828125 
L 17.484375 16.9375 
Q 17.828125 15.765625 19.578125 7.28125 
L 20.40625 10.890625 
L 31.453125 52.828125 
L 40.875 52.828125 
L 50.09375 16.546875 
L 52.34375 7.28125 
L 53.859375 14.0625 
L 63.875 52.828125 
L 72.46875 52.828125 
z
" id="LiberationSans-119"/>
      <path d="M 17.625 46.4375 
L 17.625 0 
L 8.84375 0 
L 8.84375 46.4375 
L 1.421875 46.4375 
L 1.421875 52.828125 
L 8.84375 52.828125 
L 8.84375 58.796875 
Q 8.84375 66.015625 12.015625 69.1875 
Q 15.1875 72.359375 21.734375 72.359375 
Q 25.390625 72.359375 27.9375 71.78125 
L 27.9375 65.09375 
Q 25.734375 65.484375 24.03125 65.484375 
Q 20.65625 65.484375 19.140625 63.765625 
Q 17.625 62.0625 17.625 57.5625 
L 17.625 52.828125 
L 27.9375 52.828125 
L 27.9375 46.4375 
z
" id="LiberationSans-102"/>
      <path d="M 54 0 
L 26.515625 33.203125 
L 17.53125 26.375 
L 17.53125 0 
L 8.203125 0 
L 8.203125 68.796875 
L 17.53125 68.796875 
L 17.53125 34.328125 
L 50.6875 68.796875 
L 61.671875 68.796875 
L 32.375 38.921875 
L 65.578125 0 
z
" id="LiberationSans-75"/>
      <path d="M 66.703125 0 
L 66.703125 45.90625 
Q 66.703125 53.515625 67.140625 60.546875 
Q 64.75 51.8125 62.84375 46.875 
L 45.0625 0 
L 38.53125 0 
L 20.515625 46.875 
L 17.78125 55.171875 
L 16.15625 60.546875 
L 16.3125 55.125 
L 16.5 45.90625 
L 16.5 0 
L 8.203125 0 
L 8.203125 68.796875 
L 20.453125 68.796875 
L 38.765625 21.09375 
Q 39.75 18.21875 40.640625 14.921875 
Q 41.546875 11.625 41.84375 10.15625 
Q 42.234375 12.109375 43.484375 16.078125 
Q 44.734375 20.0625 45.171875 21.09375 
L 63.140625 68.796875 
L 75.09375 68.796875 
L 75.09375 0 
z
" id="LiberationSans-77"/>
      <path d="M 15.328125 52.828125 
L 15.328125 19.34375 
Q 15.328125 14.109375 16.359375 11.21875 
Q 17.390625 8.34375 19.625 7.078125 
Q 21.875 5.8125 26.21875 5.8125 
Q 32.5625 5.8125 36.21875 10.15625 
Q 39.890625 14.5 39.890625 22.21875 
L 39.890625 52.828125 
L 48.6875 52.828125 
L 48.6875 11.28125 
Q 48.6875 2.046875 48.96875 0 
L 40.671875 0 
Q 40.625 0.25 40.578125 1.3125 
Q 40.53125 2.390625 40.453125 3.78125 
Q 40.375 5.171875 40.28125 9.03125 
L 40.140625 9.03125 
Q 37.109375 3.5625 33.125 1.28125 
Q 29.15625 -0.984375 23.25 -0.984375 
Q 14.546875 -0.984375 10.515625 3.34375 
Q 6.5 7.671875 6.5 17.625 
L 6.5 52.828125 
z
" id="LiberationSans-117"/>
      <path d="M 27.046875 0.390625 
Q 22.703125 -0.78125 18.171875 -0.78125 
Q 7.625 -0.78125 7.625 11.1875 
L 7.625 46.4375 
L 1.515625 46.4375 
L 1.515625 52.828125 
L 7.953125 52.828125 
L 10.546875 64.65625 
L 16.40625 64.65625 
L 16.40625 52.828125 
L 26.171875 52.828125 
L 26.171875 46.4375 
L 16.40625 46.4375 
L 16.40625 13.09375 
Q 16.40625 9.28125 17.640625 7.734375 
Q 18.890625 6.203125 21.96875 6.203125 
Q 23.734375 6.203125 27.046875 6.890625 
z
" id="LiberationSans-116"/>
      <path d="M 26.765625 -20.75 
Q 18.109375 -20.75 12.984375 -17.359375 
Q 7.859375 -13.96875 6.390625 -7.71875 
L 15.234375 -6.453125 
Q 16.109375 -10.109375 19.109375 -12.078125 
Q 22.125 -14.0625 27 -14.0625 
Q 40.140625 -14.0625 40.140625 1.3125 
L 40.140625 9.8125 
L 40.046875 9.8125 
Q 37.546875 4.734375 33.203125 2.171875 
Q 28.859375 -0.390625 23.046875 -0.390625 
Q 13.328125 -0.390625 8.765625 6.046875 
Q 4.203125 12.5 4.203125 26.3125 
Q 4.203125 40.328125 9.109375 46.984375 
Q 14.015625 53.65625 24.03125 53.65625 
Q 29.640625 53.65625 33.765625 51.09375 
Q 37.890625 48.53125 40.140625 43.796875 
L 40.234375 43.796875 
Q 40.234375 45.265625 40.421875 48.875 
Q 40.625 52.484375 40.828125 52.828125 
L 49.171875 52.828125 
Q 48.875 50.203125 48.875 41.890625 
L 48.875 1.515625 
Q 48.875 -20.75 26.765625 -20.75 
z
M 40.140625 26.421875 
Q 40.140625 32.859375 38.375 37.515625 
Q 36.625 42.1875 33.421875 44.65625 
Q 30.21875 47.125 26.171875 47.125 
Q 19.4375 47.125 16.359375 42.234375 
Q 13.28125 37.359375 13.28125 26.421875 
Q 13.28125 15.578125 16.15625 10.84375 
Q 19.046875 6.109375 26.03125 6.109375 
Q 30.171875 6.109375 33.390625 8.546875 
Q 36.625 10.984375 38.375 15.546875 
Q 40.140625 20.125 40.140625 26.421875 
z
" id="LiberationSans-103"/>
     </defs>
     <use xlink:href="#LiberationSans-67"/>
     <use x="72.216797" xlink:href="#LiberationSans-97"/>
     <use x="127.832031" xlink:href="#LiberationSans-108"/>
     <use x="150.048828" xlink:href="#LiberationSans-105"/>
     <use x="172.265625" xlink:href="#LiberationSans-110"/>
     <use x="227.880859" xlink:href="#LiberationSans-115"/>
     <use x="277.880859" xlink:href="#LiberationSans-107"/>
     <use x="327.880859" xlink:href="#LiberationSans-105"/>
     <use x="350.097656" xlink:href="#LiberationSans-32"/>
     <use x="377.880859" xlink:href="#LiberationSans-72"/>
     <use x="450.097656" xlink:href="#LiberationSans-97"/>
     <use x="505.712891" xlink:href="#LiberationSans-114"/>
     <use x="539.013672" xlink:href="#LiberationSans-97"/>
     <use x="594.628906" xlink:href="#LiberationSans-98"/>
     <use x="650.244141" xlink:href="#LiberationSans-97"/>
     <use x="705.859375" xlink:href="#LiberationSans-115"/>
     <use x="755.859375" xlink:href="#LiberationSans-122"/>
     <use x="805.859375" xlink:href="#LiberationSans-32"/>
     <use x="833.642578" xlink:href="#LiberationSans-83"/>
     <use x="900.341797" xlink:href="#LiberationSans-99"/>
     <use x="950.341797" xlink:href="#LiberationSans-111"/>
     <use x="1005.957031" xlink:href="#LiberationSans-114"/>
     <use x="1039.257812" xlink:href="#LiberationSans-101"/>
     <use x="1094.873047" xlink:href="#LiberationSans-32"/>
     <use x="1122.65625" xlink:href="#LiberationSans-69"/>
     <use x="1189.355469" xlink:href="#LiberationSans-108"/>
     <use x="1211.572266" xlink:href="#LiberationSans-98"/>
     <use x="1267.1875" xlink:href="#LiberationSans-111"/>
     <use x="1322.802734" xlink:href="#LiberationSans-119"/>
     <use x="1395.019531" xlink:href="#LiberationSans-32"/>
     <use x="1422.802734" xlink:href="#LiberationSans-102"/>
     <use x="1450.585938" xlink:href="#LiberationSans-111"/>
     <use x="1506.201172" xlink:href="#LiberationSans-114"/>
     <use x="1539.501953" xlink:href="#LiberationSans-32"/>
     <use x="1567.285156" xlink:href="#LiberationSans-75"/>
     <use x="1633.984375" xlink:href="#LiberationSans-77"/>
     <use x="1717.285156" xlink:href="#LiberationSans-101"/>
     <use x="1772.900391" xlink:href="#LiberationSans-97"/>
     <use x="1828.515625" xlink:href="#LiberationSans-110"/>
     <use x="1884.130859" xlink:href="#LiberationSans-115"/>
     <use x="1934.130859" xlink:href="#LiberationSans-32"/>
     <use x="1961.914062" xlink:href="#LiberationSans-67"/>
     <use x="2034.130859" xlink:href="#LiberationSans-108"/>
     <use x="2056.347656" xlink:href="#LiberationSans-117"/>
     <use x="2111.962891" xlink:href="#LiberationSans-115"/>
     <use x="2161.962891" xlink:href="#LiberationSans-116"/>
     <use x="2189.746094" xlink:href="#LiberationSans-101"/>
     <use x="2245.361328" xlink:href="#LiberationSans-114"/>
     <use x="2278.662109" xlink:href="#LiberationSans-105"/>
     <use x="2300.878906" xlink:href="#LiberationSans-110"/>
     <use x="2356.494141" xlink:href="#LiberationSans-103"/>
    </g>
   </g>
   <g id="legend_1">
    <g id="patch_7">
     <path d="M 267.72 346.44 
L 510 346.44 
Q 512.4 346.44 512.4 344.04 
L 512.4 328.05375 
Q 512.4 325.65375 510 325.65375 
L 267.72 325.65375 
Q 265.32 325.65375 265.32 328.05375 
L 265.32 344.04 
Q 265.32 346.44 267.72 346.44 
z
" style="fill:#ffffff;opacity:0.8;stroke:#cccccc;stroke-linejoin:miter;stroke-width:0.3;"/>
    </g>
    <g id="line2d_27">
     <path d="M 270.12 334.95 
L 294.12 334.95 
" style="fill:none;stroke:#111111;stroke-dasharray:6.475,2.8;stroke-dashoffset:0;stroke-width:1.75;"/>
    </g>
    <g id="line2d_28"/>
    <g id="text_16">
     <!-- elbow at $k=2$, $score=836654.042$ -->
     <g style="fill:#262626;" transform="translate(303.72 339.15)scale(0.12 -0.12)">
      <defs>
       <path d="M 18.3125 75.984375 
L 27.296875 75.984375 
L 18.703125 31.6875 
L 49.515625 54.6875 
L 61.1875 54.6875 
L 26.8125 28.515625 
L 51.90625 0 
L 41.015625 0 
L 17.671875 26.703125 
L 12.5 0 
L 3.515625 0 
z
" id="DejaVuSans-Oblique-107"/>
       <path d="M 10.59375 45.40625 
L 73.1875 45.40625 
L 73.1875 37.203125 
L 10.59375 37.203125 
z
M 10.59375 25.484375 
L 73.1875 25.484375 
L 73.1875 17.1875 
L 10.59375 17.1875 
z
" id="DejaVuSans-61"/>
       <path d="M 19.1875 8.296875 
L 53.609375 8.296875 
L 53.609375 0 
L 7.328125 0 
L 7.328125 8.296875 
Q 12.9375 14.109375 22.625 23.890625 
Q 32.328125 33.6875 34.8125 36.53125 
Q 39.546875 41.84375 41.421875 45.53125 
Q 43.3125 49.21875 43.3125 52.78125 
Q 43.3125 58.59375 39.234375 62.25 
Q 35.15625 65.921875 28.609375 65.921875 
Q 23.96875 65.921875 18.8125 64.3125 
Q 13.671875 62.703125 7.8125 59.421875 
L 7.8125 69.390625 
Q 13.765625 71.78125 18.9375 73 
Q 24.125 74.21875 28.421875 74.21875 
Q 39.75 74.21875 46.484375 68.546875 
Q 53.21875 62.890625 53.21875 53.421875 
Q 53.21875 48.921875 51.53125 44.890625 
Q 49.859375 40.875 45.40625 35.40625 
Q 44.1875 33.984375 37.640625 27.21875 
Q 31.109375 20.453125 19.1875 8.296875 
z
" id="DejaVuSans-50"/>
       <path d="M 18.796875 10.6875 
L 18.796875 2.484375 
Q 18.796875 -2.6875 17.859375 -6.15625 
Q 16.9375 -9.625 14.984375 -12.796875 
L 8.984375 -12.796875 
Q 13.578125 -6.15625 13.578125 0 
L 9.28125 0 
L 9.28125 10.6875 
z
" id="LiberationSans-44"/>
       <path d="M 50 53.078125 
L 48.296875 44.578125 
Q 44.734375 46.53125 40.765625 47.5 
Q 36.8125 48.484375 32.625 48.484375 
Q 25.53125 48.484375 21.453125 46.0625 
Q 17.390625 43.65625 17.390625 39.5 
Q 17.390625 34.671875 26.859375 32.078125 
Q 27.59375 31.890625 27.9375 31.78125 
L 30.8125 30.90625 
Q 39.796875 28.421875 42.796875 25.6875 
Q 45.796875 22.953125 45.796875 18.21875 
Q 45.796875 9.515625 38.890625 4.046875 
Q 31.984375 -1.421875 20.796875 -1.421875 
Q 16.453125 -1.421875 11.671875 -0.578125 
Q 6.890625 0.25 1.125 2 
L 2.875 11.28125 
Q 7.8125 8.734375 12.59375 7.421875 
Q 17.390625 6.109375 21.78125 6.109375 
Q 28.375 6.109375 32.5 8.9375 
Q 36.625 11.765625 36.625 16.109375 
Q 36.625 20.796875 25.78125 23.6875 
L 24.859375 23.921875 
L 21.78125 24.703125 
Q 14.9375 26.515625 11.765625 29.46875 
Q 8.59375 32.421875 8.59375 37.015625 
Q 8.59375 45.75 15.15625 50.875 
Q 21.734375 56 33.015625 56 
Q 37.453125 56 41.671875 55.265625 
Q 45.90625 54.546875 50 53.078125 
z
" id="DejaVuSans-Oblique-115"/>
       <path d="M 53.609375 52.59375 
L 51.8125 43.703125 
Q 48.578125 46.046875 44.9375 47.21875 
Q 41.3125 48.390625 37.40625 48.390625 
Q 33.109375 48.390625 29.21875 46.875 
Q 25.34375 45.359375 22.703125 42.578125 
Q 18.5 38.328125 16.203125 32.609375 
Q 13.921875 26.90625 13.921875 20.796875 
Q 13.921875 13.421875 17.609375 9.8125 
Q 21.296875 6.203125 28.8125 6.203125 
Q 32.515625 6.203125 36.6875 7.328125 
Q 40.875 8.453125 45.40625 10.6875 
L 43.703125 1.8125 
Q 39.796875 0.203125 35.671875 -0.609375 
Q 31.546875 -1.421875 27.203125 -1.421875 
Q 16.3125 -1.421875 10.453125 4.015625 
Q 4.59375 9.46875 4.59375 19.578125 
Q 4.59375 28.078125 7.640625 35.234375 
Q 10.6875 42.390625 16.703125 48.09375 
Q 20.796875 52 26.3125 54 
Q 31.84375 56 38.375 56 
Q 42.1875 56 45.9375 55.140625 
Q 49.703125 54.296875 53.609375 52.59375 
z
" id="DejaVuSans-Oblique-99"/>
       <path d="M 25.390625 -1.421875 
Q 15.765625 -1.421875 10.171875 4.515625 
Q 4.59375 10.453125 4.59375 20.703125 
Q 4.59375 26.65625 6.515625 32.828125 
Q 8.453125 39.015625 11.53125 43.21875 
Q 16.359375 49.75 22.3125 52.875 
Q 28.265625 56 35.796875 56 
Q 45.125 56 50.859375 50.1875 
Q 56.59375 44.390625 56.59375 35.015625 
Q 56.59375 28.515625 54.6875 22.0625 
Q 52.78125 15.625 49.703125 11.375 
Q 44.921875 4.828125 38.96875 1.703125 
Q 33.015625 -1.421875 25.390625 -1.421875 
z
M 13.921875 21 
Q 13.921875 13.578125 17.015625 9.890625 
Q 20.125 6.203125 26.421875 6.203125 
Q 35.453125 6.203125 41.375 14.078125 
Q 47.3125 21.96875 47.3125 34.078125 
Q 47.3125 41.15625 44.140625 44.765625 
Q 40.96875 48.390625 34.8125 48.390625 
Q 29.734375 48.390625 25.78125 46.015625 
Q 21.828125 43.65625 18.703125 38.8125 
Q 16.40625 35.203125 15.15625 30.5625 
Q 13.921875 25.921875 13.921875 21 
z
" id="DejaVuSans-Oblique-111"/>
       <path d="M 44.578125 46.390625 
Q 43.21875 47.125 41.453125 47.515625 
Q 39.703125 47.90625 37.703125 47.90625 
Q 30.515625 47.90625 25.140625 42.453125 
Q 19.78125 37.015625 18.015625 27.875 
L 12.5 0 
L 3.515625 0 
L 14.203125 54.6875 
L 23.1875 54.6875 
L 21.484375 46.1875 
Q 25.046875 50.921875 30 53.453125 
Q 34.96875 56 40.578125 56 
Q 42.046875 56 43.453125 55.828125 
Q 44.875 55.671875 46.296875 55.28125 
z
" id="DejaVuSans-Oblique-114"/>
       <path d="M 48.09375 32.234375 
Q 48.25 33.015625 48.3125 33.84375 
Q 48.390625 34.671875 48.390625 35.5 
Q 48.390625 41.453125 44.890625 44.921875 
Q 41.40625 48.390625 35.40625 48.390625 
Q 28.71875 48.390625 23.578125 44.15625 
Q 18.453125 39.9375 15.828125 32.171875 
z
M 55.90625 25.203125 
L 14.109375 25.203125 
Q 13.8125 23.34375 13.71875 22.265625 
Q 13.625 21.1875 13.625 20.40625 
Q 13.625 13.625 17.796875 9.90625 
Q 21.96875 6.203125 29.59375 6.203125 
Q 35.453125 6.203125 40.671875 7.515625 
Q 45.90625 8.84375 50.390625 11.375 
L 48.6875 2.484375 
Q 43.84375 0.53125 38.6875 -0.4375 
Q 33.546875 -1.421875 28.21875 -1.421875 
Q 16.84375 -1.421875 10.71875 4.015625 
Q 4.59375 9.46875 4.59375 19.484375 
Q 4.59375 28.03125 7.640625 35.375 
Q 10.6875 42.71875 16.609375 48.484375 
Q 20.40625 52.09375 25.65625 54.046875 
Q 30.90625 56 36.8125 56 
Q 46.09375 56 51.578125 50.4375 
Q 57.078125 44.875 57.078125 35.5 
Q 57.078125 33.25 56.78125 30.6875 
Q 56.5 28.125 55.90625 25.203125 
z
" id="DejaVuSans-Oblique-101"/>
       <path d="M 31.78125 34.625 
Q 24.75 34.625 20.71875 30.859375 
Q 16.703125 27.09375 16.703125 20.515625 
Q 16.703125 13.921875 20.71875 10.15625 
Q 24.75 6.390625 31.78125 6.390625 
Q 38.8125 6.390625 42.859375 10.171875 
Q 46.921875 13.96875 46.921875 20.515625 
Q 46.921875 27.09375 42.890625 30.859375 
Q 38.875 34.625 31.78125 34.625 
z
M 21.921875 38.8125 
Q 15.578125 40.375 12.03125 44.71875 
Q 8.5 49.078125 8.5 55.328125 
Q 8.5 64.0625 14.71875 69.140625 
Q 20.953125 74.21875 31.78125 74.21875 
Q 42.671875 74.21875 48.875 69.140625 
Q 55.078125 64.0625 55.078125 55.328125 
Q 55.078125 49.078125 51.53125 44.71875 
Q 48 40.375 41.703125 38.8125 
Q 48.828125 37.15625 52.796875 32.3125 
Q 56.78125 27.484375 56.78125 20.515625 
Q 56.78125 9.90625 50.3125 4.234375 
Q 43.84375 -1.421875 31.78125 -1.421875 
Q 19.734375 -1.421875 13.25 4.234375 
Q 6.78125 9.90625 6.78125 20.515625 
Q 6.78125 27.484375 10.78125 32.3125 
Q 14.796875 37.15625 21.921875 38.8125 
z
M 18.3125 54.390625 
Q 18.3125 48.734375 21.84375 45.5625 
Q 25.390625 42.390625 31.78125 42.390625 
Q 38.140625 42.390625 41.71875 45.5625 
Q 45.3125 48.734375 45.3125 54.390625 
Q 45.3125 60.0625 41.71875 63.234375 
Q 38.140625 66.40625 31.78125 66.40625 
Q 25.390625 66.40625 21.84375 63.234375 
Q 18.3125 60.0625 18.3125 54.390625 
z
" id="DejaVuSans-56"/>
       <path d="M 40.578125 39.3125 
Q 47.65625 37.796875 51.625 33 
Q 55.609375 28.21875 55.609375 21.1875 
Q 55.609375 10.40625 48.1875 4.484375 
Q 40.765625 -1.421875 27.09375 -1.421875 
Q 22.515625 -1.421875 17.65625 -0.515625 
Q 12.796875 0.390625 7.625 2.203125 
L 7.625 11.71875 
Q 11.71875 9.328125 16.59375 8.109375 
Q 21.484375 6.890625 26.8125 6.890625 
Q 36.078125 6.890625 40.9375 10.546875 
Q 45.796875 14.203125 45.796875 21.1875 
Q 45.796875 27.640625 41.28125 31.265625 
Q 36.765625 34.90625 28.71875 34.90625 
L 20.21875 34.90625 
L 20.21875 43.015625 
L 29.109375 43.015625 
Q 36.375 43.015625 40.234375 45.921875 
Q 44.09375 48.828125 44.09375 54.296875 
Q 44.09375 59.90625 40.109375 62.90625 
Q 36.140625 65.921875 28.71875 65.921875 
Q 24.65625 65.921875 20.015625 65.03125 
Q 15.375 64.15625 9.8125 62.3125 
L 9.8125 71.09375 
Q 15.4375 72.65625 20.34375 73.4375 
Q 25.25 74.21875 29.59375 74.21875 
Q 40.828125 74.21875 47.359375 69.109375 
Q 53.90625 64.015625 53.90625 55.328125 
Q 53.90625 49.265625 50.4375 45.09375 
Q 46.96875 40.921875 40.578125 39.3125 
z
" id="DejaVuSans-51"/>
       <path d="M 33.015625 40.375 
Q 26.375 40.375 22.484375 35.828125 
Q 18.609375 31.296875 18.609375 23.390625 
Q 18.609375 15.53125 22.484375 10.953125 
Q 26.375 6.390625 33.015625 6.390625 
Q 39.65625 6.390625 43.53125 10.953125 
Q 47.40625 15.53125 47.40625 23.390625 
Q 47.40625 31.296875 43.53125 35.828125 
Q 39.65625 40.375 33.015625 40.375 
z
M 52.59375 71.296875 
L 52.59375 62.3125 
Q 48.875 64.0625 45.09375 64.984375 
Q 41.3125 65.921875 37.59375 65.921875 
Q 27.828125 65.921875 22.671875 59.328125 
Q 17.53125 52.734375 16.796875 39.40625 
Q 19.671875 43.65625 24.015625 45.921875 
Q 28.375 48.1875 33.59375 48.1875 
Q 44.578125 48.1875 50.953125 41.515625 
Q 57.328125 34.859375 57.328125 23.390625 
Q 57.328125 12.15625 50.6875 5.359375 
Q 44.046875 -1.421875 33.015625 -1.421875 
Q 20.359375 -1.421875 13.671875 8.265625 
Q 6.984375 17.96875 6.984375 36.375 
Q 6.984375 53.65625 15.1875 63.9375 
Q 23.390625 74.21875 37.203125 74.21875 
Q 40.921875 74.21875 44.703125 73.484375 
Q 48.484375 72.75 52.59375 71.296875 
z
" id="DejaVuSans-54"/>
       <path d="M 10.796875 72.90625 
L 49.515625 72.90625 
L 49.515625 64.59375 
L 19.828125 64.59375 
L 19.828125 46.734375 
Q 21.96875 47.46875 24.109375 47.828125 
Q 26.265625 48.1875 28.421875 48.1875 
Q 40.625 48.1875 47.75 41.5 
Q 54.890625 34.8125 54.890625 23.390625 
Q 54.890625 11.625 47.5625 5.09375 
Q 40.234375 -1.421875 26.90625 -1.421875 
Q 22.3125 -1.421875 17.546875 -0.640625 
Q 12.796875 0.140625 7.71875 1.703125 
L 7.71875 11.625 
Q 12.109375 9.234375 16.796875 8.0625 
Q 21.484375 6.890625 26.703125 6.890625 
Q 35.15625 6.890625 40.078125 11.328125 
Q 45.015625 15.765625 45.015625 23.390625 
Q 45.015625 31 40.078125 35.4375 
Q 35.15625 39.890625 26.703125 39.890625 
Q 22.75 39.890625 18.8125 39.015625 
Q 14.890625 38.140625 10.796875 36.28125 
z
" id="DejaVuSans-53"/>
       <path d="M 37.796875 64.3125 
L 12.890625 25.390625 
L 37.796875 25.390625 
z
M 35.203125 72.90625 
L 47.609375 72.90625 
L 47.609375 25.390625 
L 58.015625 25.390625 
L 58.015625 17.1875 
L 47.609375 17.1875 
L 47.609375 0 
L 37.796875 0 
L 37.796875 17.1875 
L 4.890625 17.1875 
L 4.890625 26.703125 
z
" id="DejaVuSans-52"/>
       <path d="M 10.6875 12.40625 
L 21 12.40625 
L 21 0 
L 10.6875 0 
z
" id="DejaVuSans-46"/>
       <path d="M 31.78125 66.40625 
Q 24.171875 66.40625 20.328125 58.90625 
Q 16.5 51.421875 16.5 36.375 
Q 16.5 21.390625 20.328125 13.890625 
Q 24.171875 6.390625 31.78125 6.390625 
Q 39.453125 6.390625 43.28125 13.890625 
Q 47.125 21.390625 47.125 36.375 
Q 47.125 51.421875 43.28125 58.90625 
Q 39.453125 66.40625 31.78125 66.40625 
z
M 31.78125 74.21875 
Q 44.046875 74.21875 50.515625 64.515625 
Q 56.984375 54.828125 56.984375 36.375 
Q 56.984375 17.96875 50.515625 8.265625 
Q 44.046875 -1.421875 31.78125 -1.421875 
Q 19.53125 -1.421875 13.0625 8.265625 
Q 6.59375 17.96875 6.59375 36.375 
Q 6.59375 54.828125 13.0625 64.515625 
Q 19.53125 74.21875 31.78125 74.21875 
z
" id="DejaVuSans-48"/>
      </defs>
      <use transform="translate(0 0.015625)" xlink:href="#LiberationSans-101"/>
      <use transform="translate(55.615234 0.015625)" xlink:href="#LiberationSans-108"/>
      <use transform="translate(77.832031 0.015625)" xlink:href="#LiberationSans-98"/>
      <use transform="translate(133.447266 0.015625)" xlink:href="#LiberationSans-111"/>
      <use transform="translate(189.0625 0.015625)" xlink:href="#LiberationSans-119"/>
      <use transform="translate(261.279297 0.015625)" xlink:href="#LiberationSans-32"/>
      <use transform="translate(289.0625 0.015625)" xlink:href="#LiberationSans-97"/>
      <use transform="translate(344.677734 0.015625)" xlink:href="#LiberationSans-116"/>
      <use transform="translate(372.460938 0.015625)" xlink:href="#LiberationSans-32"/>
      <use transform="translate(400.244141 0.015625)" xlink:href="#DejaVuSans-Oblique-107"/>
      <use transform="translate(477.636719 0.015625)" xlink:href="#DejaVuSans-61"/>
      <use transform="translate(580.908203 0.015625)" xlink:href="#DejaVuSans-50"/>
      <use transform="translate(644.53125 0.015625)" xlink:href="#LiberationSans-44"/>
      <use transform="translate(672.314453 0.015625)" xlink:href="#LiberationSans-32"/>
      <use transform="translate(700.097656 0.015625)" xlink:href="#DejaVuSans-Oblique-115"/>
      <use transform="translate(752.197266 0.015625)" xlink:href="#DejaVuSans-Oblique-99"/>
      <use transform="translate(807.177734 0.015625)" xlink:href="#DejaVuSans-Oblique-111"/>
      <use transform="translate(868.359375 0.015625)" xlink:href="#DejaVuSans-Oblique-114"/>
      <use transform="translate(909.472656 0.015625)" xlink:href="#DejaVuSans-Oblique-101"/>
      <use transform="translate(990.478516 0.015625)" xlink:href="#DejaVuSans-61"/>
      <use transform="translate(1093.75 0.015625)" xlink:href="#DejaVuSans-56"/>
      <use transform="translate(1157.373047 0.015625)" xlink:href="#DejaVuSans-51"/>
      <use transform="translate(1220.996094 0.015625)" xlink:href="#DejaVuSans-54"/>
      <use transform="translate(1284.619141 0.015625)" xlink:href="#DejaVuSans-54"/>
      <use transform="translate(1348.242188 0.015625)" xlink:href="#DejaVuSans-53"/>
      <use transform="translate(1411.865234 0.015625)" xlink:href="#DejaVuSans-52"/>
      <use transform="translate(1475.488281 0.015625)" xlink:href="#DejaVuSans-46"/>
      <use transform="translate(1507.275391 0.015625)" xlink:href="#DejaVuSans-48"/>
      <use transform="translate(1570.898438 0.015625)" xlink:href="#DejaVuSans-52"/>
      <use transform="translate(1634.521484 0.015625)" xlink:href="#DejaVuSans-50"/>
     </g>
    </g>
   </g>
  </g>
  <g id="axes_2">
   <g id="matplotlib.axis_3">
    <g id="ytick_8">
     <g id="line2d_29"/>
     <g id="text_17">
      <!-- 10 -->
      <g style="fill:#9fc377;" transform="translate(525.4 332.406353)scale(0.1 -0.1)">
       <use xlink:href="#LiberationSans-49"/>
       <use x="55.615234" xlink:href="#LiberationSans-48"/>
      </g>
     </g>
    </g>
    <g id="ytick_9">
     <g id="line2d_30"/>
     <g id="text_18">
      <!-- 15 -->
      <g style="fill:#9fc377;" transform="translate(525.4 274.107976)scale(0.1 -0.1)">
       <use xlink:href="#LiberationSans-49"/>
       <use x="55.615234" xlink:href="#LiberationSans-53"/>
      </g>
     </g>
    </g>
    <g id="ytick_10">
     <g id="line2d_31"/>
     <g id="text_19">
      <!-- 20 -->
      <g style="fill:#9fc377;" transform="translate(525.4 215.809599)scale(0.1 -0.1)">
       <use xlink:href="#LiberationSans-50"/>
       <use x="55.615234" xlink:href="#LiberationSans-48"/>
      </g>
     </g>
    </g>
    <g id="ytick_11">
     <g id="line2d_32"/>
     <g id="text_20">
      <!-- 25 -->
      <g style="fill:#9fc377;" transform="translate(525.4 157.511222)scale(0.1 -0.1)">
       <use xlink:href="#LiberationSans-50"/>
       <use x="55.615234" xlink:href="#LiberationSans-53"/>
      </g>
     </g>
    </g>
    <g id="ytick_12">
     <g id="line2d_33"/>
     <g id="text_21">
      <!-- 30 -->
      <g style="fill:#9fc377;" transform="translate(525.4 99.212845)scale(0.1 -0.1)">
       <defs>
        <path d="M 51.21875 19 
Q 51.21875 9.46875 45.15625 4.234375 
Q 39.109375 -0.984375 27.875 -0.984375 
Q 17.4375 -0.984375 11.203125 3.734375 
Q 4.984375 8.453125 3.8125 17.671875 
L 12.890625 18.5 
Q 14.65625 6.296875 27.875 6.296875 
Q 34.515625 6.296875 38.296875 9.5625 
Q 42.09375 12.84375 42.09375 19.28125 
Q 42.09375 24.90625 37.765625 28.046875 
Q 33.453125 31.203125 25.296875 31.203125 
L 20.3125 31.203125 
L 20.3125 38.8125 
L 25.09375 38.8125 
Q 32.328125 38.8125 36.296875 41.96875 
Q 40.28125 45.125 40.28125 50.6875 
Q 40.28125 56.203125 37.03125 59.390625 
Q 33.796875 62.59375 27.390625 62.59375 
Q 21.578125 62.59375 17.984375 59.609375 
Q 14.40625 56.640625 13.8125 51.21875 
L 4.984375 51.90625 
Q 5.953125 60.359375 11.984375 65.09375 
Q 18.015625 69.828125 27.484375 69.828125 
Q 37.84375 69.828125 43.578125 65.015625 
Q 49.3125 60.203125 49.3125 51.609375 
Q 49.3125 45.015625 45.625 40.890625 
Q 41.9375 36.765625 34.90625 35.296875 
L 34.90625 35.109375 
Q 42.625 34.28125 46.921875 29.9375 
Q 51.21875 25.59375 51.21875 19 
z
" id="LiberationSans-51"/>
       </defs>
       <use xlink:href="#LiberationSans-51"/>
       <use x="55.615234" xlink:href="#LiberationSans-48"/>
      </g>
     </g>
    </g>
    <g id="text_22">
     <!-- fit time (seconds) -->
     <g style="fill:#9fc377;" transform="translate(548.493438 241.850469)rotate(-90)scale(0.11 -0.11)">
      <defs>
       <path d="M 37.5 0 
L 37.5 33.5 
Q 37.5 41.15625 35.390625 44.078125 
Q 33.296875 47.015625 27.828125 47.015625 
Q 22.21875 47.015625 18.9375 42.71875 
Q 15.671875 38.421875 15.671875 30.609375 
L 15.671875 0 
L 6.9375 0 
L 6.9375 41.546875 
Q 6.9375 50.78125 6.640625 52.828125 
L 14.9375 52.828125 
Q 14.984375 52.59375 15.03125 51.515625 
Q 15.09375 50.4375 15.15625 49.046875 
Q 15.234375 47.65625 15.328125 43.796875 
L 15.484375 43.796875 
Q 18.3125 49.421875 21.96875 51.609375 
Q 25.640625 53.8125 30.90625 53.8125 
Q 36.921875 53.8125 40.40625 51.421875 
Q 43.890625 49.03125 45.265625 43.796875 
L 45.40625 43.796875 
Q 48.140625 49.125 52.015625 51.46875 
Q 55.90625 53.8125 61.421875 53.8125 
Q 69.4375 53.8125 73.0625 49.46875 
Q 76.703125 45.125 76.703125 35.203125 
L 76.703125 0 
L 68.015625 0 
L 68.015625 33.5 
Q 68.015625 41.15625 65.90625 44.078125 
Q 63.8125 47.015625 58.34375 47.015625 
Q 52.59375 47.015625 49.390625 42.75 
Q 46.1875 38.484375 46.1875 30.609375 
L 46.1875 0 
z
" id="LiberationSans-109"/>
       <path d="M 6.203125 25.984375 
Q 6.203125 40.09375 10.625 51.3125 
Q 15.046875 62.546875 24.21875 72.46875 
L 32.71875 72.46875 
Q 23.578125 62.3125 19.3125 50.875 
Q 15.046875 39.453125 15.046875 25.875 
Q 15.046875 12.359375 19.265625 0.96875 
Q 23.484375 -10.40625 32.71875 -20.703125 
L 24.21875 -20.703125 
Q 14.984375 -10.75 10.59375 0.5 
Q 6.203125 11.765625 6.203125 25.78125 
z
" id="LiberationSans-40"/>
       <path d="M 40.09375 8.5 
Q 37.640625 3.421875 33.609375 1.21875 
Q 29.59375 -0.984375 23.640625 -0.984375 
Q 13.625 -0.984375 8.90625 5.75 
Q 4.203125 12.5 4.203125 26.171875 
Q 4.203125 53.8125 23.640625 53.8125 
Q 29.640625 53.8125 33.640625 51.609375 
Q 37.640625 49.421875 40.09375 44.625 
L 40.1875 44.625 
L 40.09375 50.53125 
L 40.09375 72.46875 
L 48.875 72.46875 
L 48.875 10.890625 
Q 48.875 2.640625 49.171875 0 
L 40.765625 0 
Q 40.625 0.78125 40.453125 3.609375 
Q 40.28125 6.453125 40.28125 8.5 
z
M 13.421875 26.46875 
Q 13.421875 15.375 16.34375 10.59375 
Q 19.28125 5.8125 25.875 5.8125 
Q 33.34375 5.8125 36.71875 10.984375 
Q 40.09375 16.15625 40.09375 27.046875 
Q 40.09375 37.546875 36.71875 42.421875 
Q 33.34375 47.3125 25.984375 47.3125 
Q 19.34375 47.3125 16.375 42.40625 
Q 13.421875 37.5 13.421875 26.46875 
z
" id="LiberationSans-100"/>
       <path d="M 27.09375 25.78125 
Q 27.09375 11.671875 22.671875 0.4375 
Q 18.265625 -10.796875 9.078125 -20.703125 
L 0.59375 -20.703125 
Q 9.765625 -10.453125 14.015625 0.890625 
Q 18.265625 12.25 18.265625 25.875 
Q 18.265625 39.5 13.984375 50.875 
Q 9.71875 62.25 0.59375 72.46875 
L 9.078125 72.46875 
Q 18.3125 62.5 22.703125 51.234375 
Q 27.09375 39.984375 27.09375 25.984375 
z
" id="LiberationSans-41"/>
      </defs>
      <use xlink:href="#LiberationSans-102"/>
      <use x="27.783203" xlink:href="#LiberationSans-105"/>
      <use x="50" xlink:href="#LiberationSans-116"/>
      <use x="77.783203" xlink:href="#LiberationSans-32"/>
      <use x="105.566406" xlink:href="#LiberationSans-116"/>
      <use x="133.349609" xlink:href="#LiberationSans-105"/>
      <use x="155.566406" xlink:href="#LiberationSans-109"/>
      <use x="238.867188" xlink:href="#LiberationSans-101"/>
      <use x="294.482422" xlink:href="#LiberationSans-32"/>
      <use x="322.265625" xlink:href="#LiberationSans-40"/>
      <use x="355.566406" xlink:href="#LiberationSans-115"/>
      <use x="405.566406" xlink:href="#LiberationSans-101"/>
      <use x="461.181641" xlink:href="#LiberationSans-99"/>
      <use x="511.181641" xlink:href="#LiberationSans-111"/>
      <use x="566.796875" xlink:href="#LiberationSans-110"/>
      <use x="622.412109" xlink:href="#LiberationSans-100"/>
      <use x="678.027344" xlink:href="#LiberationSans-115"/>
      <use x="728.027344" xlink:href="#LiberationSans-41"/>
     </g>
    </g>
   </g>
   <g id="line2d_34">
    <path clip-path="url(#peb56a7b3a9)" d="M 92.290909 338.58 
L 137.381818 317.057135 
L 182.472727 276.720567 
L 227.563636 261.81343 
L 272.654545 201.306254 
L 317.745455 177.033078 
L 362.836364 139.773255 
L 407.927273 95.298795 
L 453.018182 76.577964 
L 498.109091 61.38 
" style="fill:none;stroke:#9fc377;stroke-dasharray:6.475,2.8;stroke-dashoffset:0;stroke-opacity:0.75;stroke-width:1.75;"/>
    <defs>
     <path d="M 0 3.5 
C 0.928211 3.5 1.81853 3.131218 2.474874 2.474874 
C 3.131218 1.81853 3.5 0.928211 3.5 0 
C 3.5 -0.928211 3.131218 -1.81853 2.474874 -2.474874 
C 1.81853 -3.131218 0.928211 -3.5 0 -3.5 
C -0.928211 -3.5 -1.81853 -3.131218 -2.474874 -2.474874 
C -3.131218 -1.81853 -3.5 -0.928211 -3.5 0 
C -3.5 0.928211 -3.131218 1.81853 -2.474874 2.474874 
C -1.81853 3.131218 -0.928211 3.5 0 3.5 
z
" id="m26b3a36cf8"/>
    </defs>
    <g clip-path="url(#peb56a7b3a9)">
     <use style="fill:#9fc377;fill-opacity:0.75;" x="92.290909" xlink:href="#m26b3a36cf8" y="338.58"/>
     <use style="fill:#9fc377;fill-opacity:0.75;" x="137.381818" xlink:href="#m26b3a36cf8" y="317.057135"/>
     <use style="fill:#9fc377;fill-opacity:0.75;" x="182.472727" xlink:href="#m26b3a36cf8" y="276.720567"/>
     <use style="fill:#9fc377;fill-opacity:0.75;" x="227.563636" xlink:href="#m26b3a36cf8" y="261.81343"/>
     <use style="fill:#9fc377;fill-opacity:0.75;" x="272.654545" xlink:href="#m26b3a36cf8" y="201.306254"/>
     <use style="fill:#9fc377;fill-opacity:0.75;" x="317.745455" xlink:href="#m26b3a36cf8" y="177.033078"/>
     <use style="fill:#9fc377;fill-opacity:0.75;" x="362.836364" xlink:href="#m26b3a36cf8" y="139.773255"/>
     <use style="fill:#9fc377;fill-opacity:0.75;" x="407.927273" xlink:href="#m26b3a36cf8" y="95.298795"/>
     <use style="fill:#9fc377;fill-opacity:0.75;" x="453.018182" xlink:href="#m26b3a36cf8" y="76.577964"/>
     <use style="fill:#9fc377;fill-opacity:0.75;" x="498.109091" xlink:href="#m26b3a36cf8" y="61.38"/>
    </g>
   </g>
   <g id="patch_8">
    <path d="M 72 352.44 
L 72 47.52 
" style="fill:none;stroke:#cccccc;stroke-linecap:square;stroke-linejoin:miter;stroke-width:1.25;"/>
   </g>
   <g id="patch_9">
    <path d="M 518.4 352.44 
L 518.4 47.52 
" style="fill:none;stroke:#cccccc;stroke-linecap:square;stroke-linejoin:miter;stroke-width:1.25;"/>
   </g>
   <g id="patch_10">
    <path d="M 72 352.44 
L 518.4 352.44 
" style="fill:none;stroke:#cccccc;stroke-linecap:square;stroke-linejoin:miter;stroke-width:1.25;"/>
   </g>
   <g id="patch_11">
    <path d="M 72 47.52 
L 518.4 47.52 
" style="fill:none;stroke:#cccccc;stroke-linecap:square;stroke-linejoin:miter;stroke-width:1.25;"/>
   </g>
  </g>
 </g>
 <defs>
  <clipPath id="peb56a7b3a9">
   <rect height="304.92" width="446.4" x="72" y="47.52"/>
  </clipPath>
 </defs>
</svg>
