<?xml version="1.0" encoding="UTF-8" standalone="no"?>
<!DOCTYPE svg PUBLIC "-//W3C//DTD SVG 1.1//EN" "http://www.w3.org/Graphics/SVG/1.1/DTD/svg11.dtd">
<svg width="100%" height="100%" viewBox="0 0 641 359" version="1.1" xmlns="http://www.w3.org/2000/svg" xmlns:xlink="http://www.w3.org/1999/xlink" xml:space="preserve" xmlns:serif="http://www.serif.com/" style="fill-rule:evenodd;clip-rule:evenodd;">
    <g transform="matrix(0.91507,0,0,0.716443,0,0)">
        <rect x="0" y="0" width="700" height="500" style="fill:white;"/>
    </g>
    <g transform="matrix(1,0,0,1,-59.4512,-85.2209)">
        <rect x="80" y="100" width="495" height="320" style="fill:rgb(229,236,246);"/>
    </g>
    <g transform="matrix(1,0,0,1,-59.4512,-85.2209)">
        <g>
            <g>
                <g transform="matrix(1,0,0,1,185.09,0)">
                    <path d="M0,100L0,420" style="fill:none;fill-rule:nonzero;stroke:white;stroke-width:1px;"/>
                </g>
                <g transform="matrix(1,0,0,1,449.11,0)">
                    <path d="M0,100L0,420" style="fill:none;fill-rule:nonzero;stroke:white;stroke-width:1px;"/>
                </g>
            </g>
            <g>
                <g transform="matrix(1,0,0,1,0,321.92)">
                    <path d="M80,0L575,0" style="fill:none;fill-rule:nonzero;stroke:white;stroke-width:1px;"/>
                </g>
                <g transform="matrix(1,0,0,1,0,267.09)">
                    <path d="M80,0L575,0" style="fill:none;fill-rule:nonzero;stroke:white;stroke-width:1px;"/>
                </g>
                <g transform="matrix(1,0,0,1,0,212.26)">
                    <path d="M80,0L575,0" style="fill:none;fill-rule:nonzero;stroke:white;stroke-width:1px;"/>
                </g>
                <g transform="matrix(1,0,0,1,0,157.42)">
                    <path d="M80,0L575,0" style="fill:none;fill-rule:nonzero;stroke:white;stroke-width:1px;"/>
                </g>
                <g transform="matrix(1,0,0,1,0,102.59)">
                    <path d="M80,0L575,0" style="fill:none;fill-rule:nonzero;stroke:white;stroke-width:1px;"/>
                </g>
            </g>
        </g>
        <g>
            <g transform="matrix(1,0,0,1,317.1,0)">
                <path d="M0,100L0,420" style="fill:none;fill-rule:nonzero;stroke:white;stroke-width:2px;"/>
            </g>
            <g transform="matrix(1,0,0,1,0,376.75)">
                <path d="M80,0L575,0" style="fill:none;fill-rule:nonzero;stroke:white;stroke-width:2px;"/>
            </g>
        </g>
        <g transform="matrix(1,0,0,1,80,100)">
            <g>
                <g>
                    <g>
                        <g transform="matrix(1,0,0,1,292.33,218.18)">
                            <path d="M5,0C5,2.743 2.743,5 0,5C-2.743,5 -5,2.743 -5,0C-5,-2.743 -2.743,-5 -0,-5C2.743,-5 5,-2.743 5,-0Z" style="fill:rgb(99,110,250);fill-opacity:0.6;fill-rule:nonzero;"/>
                        </g>
                        <g transform="matrix(1,0,0,1,143.79,73.61)">
                            <path d="M5,0C5,2.743 2.743,5 0,5C-2.743,5 -5,2.743 -5,0C-5,-2.743 -2.743,-5 -0,-5C2.743,-5 5,-2.743 5,-0Z" style="fill:rgb(99,110,250);fill-opacity:0.6;fill-rule:nonzero;"/>
                        </g>
                        <g transform="matrix(1,0,0,1,313.35,136.94)">
                            <path d="M5,0C5,2.743 2.743,5 0,5C-2.743,5 -5,2.743 -5,0C-5,-2.743 -2.743,-5 -0,-5C2.743,-5 5,-2.743 5,-0Z" style="fill:rgb(99,110,250);fill-opacity:0.6;fill-rule:nonzero;"/>
                        </g>
                        <g transform="matrix(1,0,0,1,169.86,62.5)">
                            <path d="M5,0C5,2.743 2.743,5 0,5C-2.743,5 -5,2.743 -5,0C-5,-2.743 -2.743,-5 -0,-5C2.743,-5 5,-2.743 5,-0Z" style="fill:rgb(99,110,250);fill-opacity:0.6;fill-rule:nonzero;"/>
                        </g>
                        <g transform="matrix(1,0,0,1,321.01,224.87)">
                            <path d="M5,0C5,2.743 2.743,5 0,5C-2.743,5 -5,2.743 -5,0C-5,-2.743 -2.743,-5 -0,-5C2.743,-5 5,-2.743 5,-0Z" style="fill:rgb(99,110,250);fill-opacity:0.6;fill-rule:nonzero;"/>
                        </g>
                        <g transform="matrix(1,0,0,1,464,269.58)">
                            <path d="M5,0C5,2.743 2.743,5 0,5C-2.743,5 -5,2.743 -5,0C-5,-2.743 -2.743,-5 -0,-5C2.743,-5 5,-2.743 5,-0Z" style="fill:rgb(99,110,250);fill-opacity:0.6;fill-rule:nonzero;"/>
                        </g>
                        <g transform="matrix(1,0,0,1,117.74,232.97)">
                            <path d="M5,0C5,2.743 2.743,5 0,5C-2.743,5 -5,2.743 -5,0C-5,-2.743 -2.743,-5 -0,-5C2.743,-5 5,-2.743 5,-0Z" style="fill:rgb(99,110,250);fill-opacity:0.6;fill-rule:nonzero;"/>
                        </g>
                        <g transform="matrix(1,0,0,1,330.41,156.64)">
                            <path d="M5,0C5,2.743 2.743,5 0,5C-2.743,5 -5,2.743 -5,0C-5,-2.743 -2.743,-5 -0,-5C2.743,-5 5,-2.743 5,-0Z" style="fill:rgb(99,110,250);fill-opacity:0.6;fill-rule:nonzero;"/>
                        </g>
                        <g transform="matrix(1,0,0,1,223.57,45.58)">
                            <path d="M5,0C5,2.743 2.743,5 0,5C-2.743,5 -5,2.743 -5,0C-5,-2.743 -2.743,-5 -0,-5C2.743,-5 5,-2.743 5,-0Z" style="fill:rgb(99,110,250);fill-opacity:0.6;fill-rule:nonzero;"/>
                        </g>
                        <g transform="matrix(1,0,0,1,190.16,39.32)">
                            <path d="M5,0C5,2.743 2.743,5 0,5C-2.743,5 -5,2.743 -5,0C-5,-2.743 -2.743,-5 -0,-5C2.743,-5 5,-2.743 5,-0Z" style="fill:rgb(99,110,250);fill-opacity:0.6;fill-rule:nonzero;"/>
                        </g>
                        <g transform="matrix(1,0,0,1,124.07,200.6)">
                            <path d="M5,0C5,2.743 2.743,5 0,5C-2.743,5 -5,2.743 -5,0C-5,-2.743 -2.743,-5 -0,-5C2.743,-5 5,-2.743 5,-0Z" style="fill:rgb(99,110,250);fill-opacity:0.6;fill-rule:nonzero;"/>
                        </g>
                        <g transform="matrix(1,0,0,1,60.86,47.72)">
                            <path d="M5,0C5,2.743 2.743,5 0,5C-2.743,5 -5,2.743 -5,0C-5,-2.743 -2.743,-5 -0,-5C2.743,-5 5,-2.743 5,-0Z" style="fill:rgb(99,110,250);fill-opacity:0.6;fill-rule:nonzero;"/>
                        </g>
                        <g transform="matrix(1,0,0,1,319.12,153.27)">
                            <path d="M5,0C5,2.743 2.743,5 0,5C-2.743,5 -5,2.743 -5,0C-5,-2.743 -2.743,-5 -0,-5C2.743,-5 5,-2.743 5,-0Z" style="fill:rgb(99,110,250);fill-opacity:0.6;fill-rule:nonzero;"/>
                        </g>
                        <g transform="matrix(1,0,0,1,90.05,87.72)">
                            <path d="M5,0C5,2.743 2.743,5 0,5C-2.743,5 -5,2.743 -5,0C-5,-2.743 -2.743,-5 -0,-5C2.743,-5 5,-2.743 5,-0Z" style="fill:rgb(99,110,250);fill-opacity:0.6;fill-rule:nonzero;"/>
                        </g>
                        <g transform="matrix(1,0,0,1,333.14,277.55)">
                            <path d="M5,0C5,2.743 2.743,5 0,5C-2.743,5 -5,2.743 -5,0C-5,-2.743 -2.743,-5 -0,-5C2.743,-5 5,-2.743 5,-0Z" style="fill:rgb(99,110,250);fill-opacity:0.6;fill-rule:nonzero;"/>
                        </g>
                        <g transform="matrix(1,0,0,1,267.05,168.28)">
                            <path d="M5,0C5,2.743 2.743,5 0,5C-2.743,5 -5,2.743 -5,0C-5,-2.743 -2.743,-5 -0,-5C2.743,-5 5,-2.743 5,-0Z" style="fill:rgb(99,110,250);fill-opacity:0.6;fill-rule:nonzero;"/>
                        </g>
                        <g transform="matrix(1,0,0,1,307.67,152.54)">
                            <path d="M5,0C5,2.743 2.743,5 0,5C-2.743,5 -5,2.743 -5,0C-5,-2.743 -2.743,-5 -0,-5C2.743,-5 5,-2.743 5,-0Z" style="fill:rgb(99,110,250);fill-opacity:0.6;fill-rule:nonzero;"/>
                        </g>
                        <g transform="matrix(1,0,0,1,406.69,262.85)">
                            <path d="M5,0C5,2.743 2.743,5 0,5C-2.743,5 -5,2.743 -5,0C-5,-2.743 -2.743,-5 -0,-5C2.743,-5 5,-2.743 5,-0Z" style="fill:rgb(99,110,250);fill-opacity:0.6;fill-rule:nonzero;"/>
                        </g>
                        <g transform="matrix(1,0,0,1,166.68,190.89)">
                            <path d="M5,0C5,2.743 2.743,5 0,5C-2.743,5 -5,2.743 -5,0C-5,-2.743 -2.743,-5 -0,-5C2.743,-5 5,-2.743 5,-0Z" style="fill:rgb(99,110,250);fill-opacity:0.6;fill-rule:nonzero;"/>
                        </g>
                        <g transform="matrix(1,0,0,1,165.9,216.31)">
                            <path d="M5,0C5,2.743 2.743,5 0,5C-2.743,5 -5,2.743 -5,0C-5,-2.743 -2.743,-5 -0,-5C2.743,-5 5,-2.743 5,-0Z" style="fill:rgb(99,110,250);fill-opacity:0.6;fill-rule:nonzero;"/>
                        </g>
                        <g transform="matrix(1,0,0,1,416.31,241.36)">
                            <path d="M5,0C5,2.743 2.743,5 0,5C-2.743,5 -5,2.743 -5,0C-5,-2.743 -2.743,-5 -0,-5C2.743,-5 5,-2.743 5,-0Z" style="fill:rgb(99,110,250);fill-opacity:0.6;fill-rule:nonzero;"/>
                        </g>
                        <g transform="matrix(1,0,0,1,354.4,244.22)">
                            <path d="M5,0C5,2.743 2.743,5 0,5C-2.743,5 -5,2.743 -5,0C-5,-2.743 -2.743,-5 -0,-5C2.743,-5 5,-2.743 5,-0Z" style="fill:rgb(99,110,250);fill-opacity:0.6;fill-rule:nonzero;"/>
                        </g>
                        <g transform="matrix(1,0,0,1,285.57,138.65)">
                            <path d="M5,0C5,2.743 2.743,5 0,5C-2.743,5 -5,2.743 -5,0C-5,-2.743 -2.743,-5 -0,-5C2.743,-5 5,-2.743 5,-0Z" style="fill:rgb(99,110,250);fill-opacity:0.6;fill-rule:nonzero;"/>
                        </g>
                        <g transform="matrix(1,0,0,1,105.32,198.57)">
                            <path d="M5,0C5,2.743 2.743,5 0,5C-2.743,5 -5,2.743 -5,0C-5,-2.743 -2.743,-5 -0,-5C2.743,-5 5,-2.743 5,-0Z" style="fill:rgb(99,110,250);fill-opacity:0.6;fill-rule:nonzero;"/>
                        </g>
                        <g transform="matrix(1,0,0,1,110.48,205.33)">
                            <path d="M5,0C5,2.743 2.743,5 0,5C-2.743,5 -5,2.743 -5,0C-5,-2.743 -2.743,-5 -0,-5C2.743,-5 5,-2.743 5,-0Z" style="fill:rgb(99,110,250);fill-opacity:0.6;fill-rule:nonzero;"/>
                        </g>
                        <g transform="matrix(1,0,0,1,200.43,148.01)">
                            <path d="M5,0C5,2.743 2.743,5 0,5C-2.743,5 -5,2.743 -5,0C-5,-2.743 -2.743,-5 -0,-5C2.743,-5 5,-2.743 5,-0Z" style="fill:rgb(99,110,250);fill-opacity:0.6;fill-rule:nonzero;"/>
                        </g>
                        <g transform="matrix(1,0,0,1,349.14,253.01)">
                            <path d="M5,0C5,2.743 2.743,5 0,5C-2.743,5 -5,2.743 -5,0C-5,-2.743 -2.743,-5 -0,-5C2.743,-5 5,-2.743 5,-0Z" style="fill:rgb(99,110,250);fill-opacity:0.6;fill-rule:nonzero;"/>
                        </g>
                        <g transform="matrix(1,0,0,1,276.35,147.63)">
                            <path d="M5,0C5,2.743 2.743,5 0,5C-2.743,5 -5,2.743 -5,0C-5,-2.743 -2.743,-5 -0,-5C2.743,-5 5,-2.743 5,-0Z" style="fill:rgb(99,110,250);fill-opacity:0.6;fill-rule:nonzero;"/>
                        </g>
                        <g transform="matrix(1,0,0,1,46.98,213.58)">
                            <path d="M5,0C5,2.743 2.743,5 0,5C-2.743,5 -5,2.743 -5,0C-5,-2.743 -2.743,-5 -0,-5C2.743,-5 5,-2.743 5,-0Z" style="fill:rgb(99,110,250);fill-opacity:0.6;fill-rule:nonzero;"/>
                        </g>
                        <g transform="matrix(1,0,0,1,249.42,166.35)">
                            <path d="M5,0C5,2.743 2.743,5 0,5C-2.743,5 -5,2.743 -5,0C-5,-2.743 -2.743,-5 -0,-5C2.743,-5 5,-2.743 5,-0Z" style="fill:rgb(99,110,250);fill-opacity:0.6;fill-rule:nonzero;"/>
                        </g>
                        <g transform="matrix(1,0,0,1,203.21,60.87)">
                            <path d="M5,0C5,2.743 2.743,5 0,5C-2.743,5 -5,2.743 -5,0C-5,-2.743 -2.743,-5 -0,-5C2.743,-5 5,-2.743 5,-0Z" style="fill:rgb(99,110,250);fill-opacity:0.6;fill-rule:nonzero;"/>
                        </g>
                        <g transform="matrix(1,0,0,1,101.32,74.46)">
                            <path d="M5,0C5,2.743 2.743,5 0,5C-2.743,5 -5,2.743 -5,0C-5,-2.743 -2.743,-5 -0,-5C2.743,-5 5,-2.743 5,-0Z" style="fill:rgb(99,110,250);fill-opacity:0.6;fill-rule:nonzero;"/>
                        </g>
                        <g transform="matrix(1,0,0,1,360.71,162.13)">
                            <path d="M5,0C5,2.743 2.743,5 0,5C-2.743,5 -5,2.743 -5,0C-5,-2.743 -2.743,-5 -0,-5C2.743,-5 5,-2.743 5,-0Z" style="fill:rgb(99,110,250);fill-opacity:0.6;fill-rule:nonzero;"/>
                        </g>
                        <g transform="matrix(1,0,0,1,162.43,91.24)">
                            <path d="M5,0C5,2.743 2.743,5 0,5C-2.743,5 -5,2.743 -5,0C-5,-2.743 -2.743,-5 -0,-5C2.743,-5 5,-2.743 5,-0Z" style="fill:rgb(99,110,250);fill-opacity:0.6;fill-rule:nonzero;"/>
                        </g>
                        <g transform="matrix(1,0,0,1,128.56,59.04)">
                            <path d="M5,0C5,2.743 2.743,5 0,5C-2.743,5 -5,2.743 -5,0C-5,-2.743 -2.743,-5 -0,-5C2.743,-5 5,-2.743 5,-0Z" style="fill:rgb(99,110,250);fill-opacity:0.6;fill-rule:nonzero;"/>
                        </g>
                        <g transform="matrix(1,0,0,1,77.41,72.79)">
                            <path d="M5,0C5,2.743 2.743,5 0,5C-2.743,5 -5,2.743 -5,0C-5,-2.743 -2.743,-5 -0,-5C2.743,-5 5,-2.743 5,-0Z" style="fill:rgb(99,110,250);fill-opacity:0.6;fill-rule:nonzero;"/>
                        </g>
                        <g transform="matrix(1,0,0,1,104.02,71.56)">
                            <path d="M5,0C5,2.743 2.743,5 0,5C-2.743,5 -5,2.743 -5,0C-5,-2.743 -2.743,-5 -0,-5C2.743,-5 5,-2.743 5,-0Z" style="fill:rgb(99,110,250);fill-opacity:0.6;fill-rule:nonzero;"/>
                        </g>
                        <g transform="matrix(1,0,0,1,64.07,57.8)">
                            <path d="M5,0C5,2.743 2.743,5 0,5C-2.743,5 -5,2.743 -5,0C-5,-2.743 -2.743,-5 -0,-5C2.743,-5 5,-2.743 5,-0Z" style="fill:rgb(99,110,250);fill-opacity:0.6;fill-rule:nonzero;"/>
                        </g>
                        <g transform="matrix(1,0,0,1,91.69,208.77)">
                            <path d="M5,0C5,2.743 2.743,5 0,5C-2.743,5 -5,2.743 -5,0C-5,-2.743 -2.743,-5 -0,-5C2.743,-5 5,-2.743 5,-0Z" style="fill:rgb(99,110,250);fill-opacity:0.6;fill-rule:nonzero;"/>
                        </g>
                        <g transform="matrix(1,0,0,1,346.92,258.57)">
                            <path d="M5,0C5,2.743 2.743,5 0,5C-2.743,5 -5,2.743 -5,0C-5,-2.743 -2.743,-5 -0,-5C2.743,-5 5,-2.743 5,-0Z" style="fill:rgb(99,110,250);fill-opacity:0.6;fill-rule:nonzero;"/>
                        </g>
                        <g transform="matrix(1,0,0,1,281.31,178.18)">
                            <path d="M5,0C5,2.743 2.743,5 0,5C-2.743,5 -5,2.743 -5,0C-5,-2.743 -2.743,-5 -0,-5C2.743,-5 5,-2.743 5,-0Z" style="fill:rgb(99,110,250);fill-opacity:0.6;fill-rule:nonzero;"/>
                        </g>
                        <g transform="matrix(1,0,0,1,106.05,220.41)">
                            <path d="M5,0C5,2.743 2.743,5 0,5C-2.743,5 -5,2.743 -5,0C-5,-2.743 -2.743,-5 -0,-5C2.743,-5 5,-2.743 5,-0Z" style="fill:rgb(99,110,250);fill-opacity:0.6;fill-rule:nonzero;"/>
                        </g>
                        <g transform="matrix(1,0,0,1,233.96,126.67)">
                            <path d="M5,0C5,2.743 2.743,5 0,5C-2.743,5 -5,2.743 -5,0C-5,-2.743 -2.743,-5 -0,-5C2.743,-5 5,-2.743 5,-0Z" style="fill:rgb(99,110,250);fill-opacity:0.6;fill-rule:nonzero;"/>
                        </g>
                        <g transform="matrix(1,0,0,1,339.05,161.31)">
                            <path d="M5,0C5,2.743 2.743,5 0,5C-2.743,5 -5,2.743 -5,0C-5,-2.743 -2.743,-5 -0,-5C2.743,-5 5,-2.743 5,-0Z" style="fill:rgb(99,110,250);fill-opacity:0.6;fill-rule:nonzero;"/>
                        </g>
                        <g transform="matrix(1,0,0,1,124.75,209.28)">
                            <path d="M5,0C5,2.743 2.743,5 0,5C-2.743,5 -5,2.743 -5,0C-5,-2.743 -2.743,-5 -0,-5C2.743,-5 5,-2.743 5,-0Z" style="fill:rgb(99,110,250);fill-opacity:0.6;fill-rule:nonzero;"/>
                        </g>
                        <g transform="matrix(1,0,0,1,169.64,200.86)">
                            <path d="M5,0C5,2.743 2.743,5 0,5C-2.743,5 -5,2.743 -5,0C-5,-2.743 -2.743,-5 -0,-5C2.743,-5 5,-2.743 5,-0Z" style="fill:rgb(99,110,250);fill-opacity:0.6;fill-rule:nonzero;"/>
                        </g>
                        <g transform="matrix(1,0,0,1,146.11,54.61)">
                            <path d="M5,0C5,2.743 2.743,5 0,5C-2.743,5 -5,2.743 -5,0C-5,-2.743 -2.743,-5 -0,-5C2.743,-5 5,-2.743 5,-0Z" style="fill:rgb(99,110,250);fill-opacity:0.6;fill-rule:nonzero;"/>
                        </g>
                        <g transform="matrix(1,0,0,1,134.64,201.47)">
                            <path d="M5,0C5,2.743 2.743,5 0,5C-2.743,5 -5,2.743 -5,0C-5,-2.743 -2.743,-5 -0,-5C2.743,-5 5,-2.743 5,-0Z" style="fill:rgb(99,110,250);fill-opacity:0.6;fill-rule:nonzero;"/>
                        </g>
                        <g transform="matrix(1,0,0,1,139.47,69.24)">
                            <path d="M5,0C5,2.743 2.743,5 0,5C-2.743,5 -5,2.743 -5,0C-5,-2.743 -2.743,-5 -0,-5C2.743,-5 5,-2.743 5,-0Z" style="fill:rgb(99,110,250);fill-opacity:0.6;fill-rule:nonzero;"/>
                        </g>
                        <g transform="matrix(1,0,0,1,368.38,235.36)">
                            <path d="M5,0C5,2.743 2.743,5 0,5C-2.743,5 -5,2.743 -5,0C-5,-2.743 -2.743,-5 -0,-5C2.743,-5 5,-2.743 5,-0Z" style="fill:rgb(99,110,250);fill-opacity:0.6;fill-rule:nonzero;"/>
                        </g>
                        <g transform="matrix(1,0,0,1,108.4,181.24)">
                            <path d="M5,0C5,2.743 2.743,5 0,5C-2.743,5 -5,2.743 -5,0C-5,-2.743 -2.743,-5 -0,-5C2.743,-5 5,-2.743 5,-0Z" style="fill:rgb(99,110,250);fill-opacity:0.6;fill-rule:nonzero;"/>
                        </g>
                        <g transform="matrix(1,0,0,1,399.15,259.72)">
                            <path d="M5,0C5,2.743 2.743,5 0,5C-2.743,5 -5,2.743 -5,0C-5,-2.743 -2.743,-5 -0,-5C2.743,-5 5,-2.743 5,-0Z" style="fill:rgb(99,110,250);fill-opacity:0.6;fill-rule:nonzero;"/>
                        </g>
                        <g transform="matrix(1,0,0,1,178.07,67.92)">
                            <path d="M5,0C5,2.743 2.743,5 0,5C-2.743,5 -5,2.743 -5,0C-5,-2.743 -2.743,-5 -0,-5C2.743,-5 5,-2.743 5,-0Z" style="fill:rgb(99,110,250);fill-opacity:0.6;fill-rule:nonzero;"/>
                        </g>
                        <g transform="matrix(1,0,0,1,349.1,256.06)">
                            <path d="M5,0C5,2.743 2.743,5 0,5C-2.743,5 -5,2.743 -5,0C-5,-2.743 -2.743,-5 -0,-5C2.743,-5 5,-2.743 5,-0Z" style="fill:rgb(99,110,250);fill-opacity:0.6;fill-rule:nonzero;"/>
                        </g>
                        <g transform="matrix(1,0,0,1,353.03,220.4)">
                            <path d="M5,0C5,2.743 2.743,5 0,5C-2.743,5 -5,2.743 -5,0C-5,-2.743 -2.743,-5 -0,-5C2.743,-5 5,-2.743 5,-0Z" style="fill:rgb(99,110,250);fill-opacity:0.6;fill-rule:nonzero;"/>
                        </g>
                        <g transform="matrix(1,0,0,1,163.79,199.38)">
                            <path d="M5,0C5,2.743 2.743,5 0,5C-2.743,5 -5,2.743 -5,0C-5,-2.743 -2.743,-5 -0,-5C2.743,-5 5,-2.743 5,-0Z" style="fill:rgb(99,110,250);fill-opacity:0.6;fill-rule:nonzero;"/>
                        </g>
                        <g transform="matrix(1,0,0,1,234.36,62.67)">
                            <path d="M5,0C5,2.743 2.743,5 0,5C-2.743,5 -5,2.743 -5,0C-5,-2.743 -2.743,-5 -0,-5C2.743,-5 5,-2.743 5,-0Z" style="fill:rgb(99,110,250);fill-opacity:0.6;fill-rule:nonzero;"/>
                        </g>
                        <g transform="matrix(1,0,0,1,161.79,222.59)">
                            <path d="M5,0C5,2.743 2.743,5 0,5C-2.743,5 -5,2.743 -5,0C-5,-2.743 -2.743,-5 -0,-5C2.743,-5 5,-2.743 5,-0Z" style="fill:rgb(99,110,250);fill-opacity:0.6;fill-rule:nonzero;"/>
                        </g>
                        <g transform="matrix(1,0,0,1,117.87,64.87)">
                            <path d="M5,0C5,2.743 2.743,5 0,5C-2.743,5 -5,2.743 -5,0C-5,-2.743 -2.743,-5 -0,-5C2.743,-5 5,-2.743 5,-0Z" style="fill:rgb(99,110,250);fill-opacity:0.6;fill-rule:nonzero;"/>
                        </g>
                        <g transform="matrix(1,0,0,1,329.02,251.28)">
                            <path d="M5,0C5,2.743 2.743,5 0,5C-2.743,5 -5,2.743 -5,0C-5,-2.743 -2.743,-5 -0,-5C2.743,-5 5,-2.743 5,-0Z" style="fill:rgb(99,110,250);fill-opacity:0.6;fill-rule:nonzero;"/>
                        </g>
                        <g transform="matrix(1,0,0,1,88.12,76.56)">
                            <path d="M5,0C5,2.743 2.743,5 0,5C-2.743,5 -5,2.743 -5,0C-5,-2.743 -2.743,-5 -0,-5C2.743,-5 5,-2.743 5,-0Z" style="fill:rgb(99,110,250);fill-opacity:0.6;fill-rule:nonzero;"/>
                        </g>
                        <g transform="matrix(1,0,0,1,274.83,158.24)">
                            <path d="M5,0C5,2.743 2.743,5 0,5C-2.743,5 -5,2.743 -5,0C-5,-2.743 -2.743,-5 -0,-5C2.743,-5 5,-2.743 5,-0Z" style="fill:rgb(99,110,250);fill-opacity:0.6;fill-rule:nonzero;"/>
                        </g>
                        <g transform="matrix(1,0,0,1,134.79,22.25)">
                            <path d="M5,0C5,2.743 2.743,5 0,5C-2.743,5 -5,2.743 -5,0C-5,-2.743 -2.743,-5 -0,-5C2.743,-5 5,-2.743 5,-0Z" style="fill:rgb(99,110,250);fill-opacity:0.6;fill-rule:nonzero;"/>
                        </g>
                        <g transform="matrix(1,0,0,1,168.57,195.79)">
                            <path d="M5,0C5,2.743 2.743,5 0,5C-2.743,5 -5,2.743 -5,0C-5,-2.743 -2.743,-5 -0,-5C2.743,-5 5,-2.743 5,-0Z" style="fill:rgb(99,110,250);fill-opacity:0.6;fill-rule:nonzero;"/>
                        </g>
                        <g transform="matrix(1,0,0,1,97.85,191.58)">
                            <path d="M5,0C5,2.743 2.743,5 0,5C-2.743,5 -5,2.743 -5,0C-5,-2.743 -2.743,-5 -0,-5C2.743,-5 5,-2.743 5,-0Z" style="fill:rgb(99,110,250);fill-opacity:0.6;fill-rule:nonzero;"/>
                        </g>
                        <g transform="matrix(1,0,0,1,158.78,200.42)">
                            <path d="M5,0C5,2.743 2.743,5 0,5C-2.743,5 -5,2.743 -5,0C-5,-2.743 -2.743,-5 -0,-5C2.743,-5 5,-2.743 5,-0Z" style="fill:rgb(99,110,250);fill-opacity:0.6;fill-rule:nonzero;"/>
                        </g>
                        <g transform="matrix(1,0,0,1,74.85,70.81)">
                            <path d="M5,0C5,2.743 2.743,5 0,5C-2.743,5 -5,2.743 -5,0C-5,-2.743 -2.743,-5 -0,-5C2.743,-5 5,-2.743 5,-0Z" style="fill:rgb(99,110,250);fill-opacity:0.6;fill-rule:nonzero;"/>
                        </g>
                        <g transform="matrix(1,0,0,1,393.5,250.69)">
                            <path d="M5,0C5,2.743 2.743,5 0,5C-2.743,5 -5,2.743 -5,0C-5,-2.743 -2.743,-5 -0,-5C2.743,-5 5,-2.743 5,-0Z" style="fill:rgb(99,110,250);fill-opacity:0.6;fill-rule:nonzero;"/>
                        </g>
                        <g transform="matrix(1,0,0,1,61.08,61.6)">
                            <path d="M5,0C5,2.743 2.743,5 0,5C-2.743,5 -5,2.743 -5,0C-5,-2.743 -2.743,-5 -0,-5C2.743,-5 5,-2.743 5,-0Z" style="fill:rgb(99,110,250);fill-opacity:0.6;fill-rule:nonzero;"/>
                        </g>
                        <g transform="matrix(1,0,0,1,138.27,188.63)">
                            <path d="M5,0C5,2.743 2.743,5 0,5C-2.743,5 -5,2.743 -5,0C-5,-2.743 -2.743,-5 -0,-5C2.743,-5 5,-2.743 5,-0Z" style="fill:rgb(99,110,250);fill-opacity:0.6;fill-rule:nonzero;"/>
                        </g>
                        <g transform="matrix(1,0,0,1,324.37,162.19)">
                            <path d="M5,0C5,2.743 2.743,5 0,5C-2.743,5 -5,2.743 -5,0C-5,-2.743 -2.743,-5 -0,-5C2.743,-5 5,-2.743 5,-0Z" style="fill:rgb(99,110,250);fill-opacity:0.6;fill-rule:nonzero;"/>
                        </g>
                        <g transform="matrix(1,0,0,1,204.93,185.5)">
                            <path d="M5,0C5,2.743 2.743,5 0,5C-2.743,5 -5,2.743 -5,0C-5,-2.743 -2.743,-5 -0,-5C2.743,-5 5,-2.743 5,-0Z" style="fill:rgb(99,110,250);fill-opacity:0.6;fill-rule:nonzero;"/>
                        </g>
                        <g transform="matrix(1,0,0,1,168.64,55.7)">
                            <path d="M5,0C5,2.743 2.743,5 0,5C-2.743,5 -5,2.743 -5,0C-5,-2.743 -2.743,-5 -0,-5C2.743,-5 5,-2.743 5,-0Z" style="fill:rgb(99,110,250);fill-opacity:0.6;fill-rule:nonzero;"/>
                        </g>
                        <g transform="matrix(1,0,0,1,131.16,195.21)">
                            <path d="M5,0C5,2.743 2.743,5 0,5C-2.743,5 -5,2.743 -5,0C-5,-2.743 -2.743,-5 -0,-5C2.743,-5 5,-2.743 5,-0Z" style="fill:rgb(99,110,250);fill-opacity:0.6;fill-rule:nonzero;"/>
                        </g>
                        <g transform="matrix(1,0,0,1,137.84,224.01)">
                            <path d="M5,0C5,2.743 2.743,5 0,5C-2.743,5 -5,2.743 -5,0C-5,-2.743 -2.743,-5 -0,-5C2.743,-5 5,-2.743 5,-0Z" style="fill:rgb(99,110,250);fill-opacity:0.6;fill-rule:nonzero;"/>
                        </g>
                        <g transform="matrix(1,0,0,1,185.26,45)">
                            <path d="M5,0C5,2.743 2.743,5 0,5C-2.743,5 -5,2.743 -5,0C-5,-2.743 -2.743,-5 -0,-5C2.743,-5 5,-2.743 5,-0Z" style="fill:rgb(99,110,250);fill-opacity:0.6;fill-rule:nonzero;"/>
                        </g>
                        <g transform="matrix(1,0,0,1,121.07,195.2)">
                            <path d="M5,0C5,2.743 2.743,5 0,5C-2.743,5 -5,2.743 -5,0C-5,-2.743 -2.743,-5 -0,-5C2.743,-5 5,-2.743 5,-0Z" style="fill:rgb(99,110,250);fill-opacity:0.6;fill-rule:nonzero;"/>
                        </g>
                        <g transform="matrix(1,0,0,1,315.65,147.14)">
                            <path d="M5,0C5,2.743 2.743,5 0,5C-2.743,5 -5,2.743 -5,0C-5,-2.743 -2.743,-5 -0,-5C2.743,-5 5,-2.743 5,-0Z" style="fill:rgb(99,110,250);fill-opacity:0.6;fill-rule:nonzero;"/>
                        </g>
                        <g transform="matrix(1,0,0,1,378.38,257.39)">
                            <path d="M5,0C5,2.743 2.743,5 0,5C-2.743,5 -5,2.743 -5,0C-5,-2.743 -2.743,-5 -0,-5C2.743,-5 5,-2.743 5,-0Z" style="fill:rgb(99,110,250);fill-opacity:0.6;fill-rule:nonzero;"/>
                        </g>
                        <g transform="matrix(1,0,0,1,168.75,51.79)">
                            <path d="M5,0C5,2.743 2.743,5 0,5C-2.743,5 -5,2.743 -5,0C-5,-2.743 -2.743,-5 -0,-5C2.743,-5 5,-2.743 5,-0Z" style="fill:rgb(99,110,250);fill-opacity:0.6;fill-rule:nonzero;"/>
                        </g>
                        <g transform="matrix(1,0,0,1,319.92,274.29)">
                            <path d="M5,0C5,2.743 2.743,5 0,5C-2.743,5 -5,2.743 -5,0C-5,-2.743 -2.743,-5 -0,-5C2.743,-5 5,-2.743 5,-0Z" style="fill:rgb(99,110,250);fill-opacity:0.6;fill-rule:nonzero;"/>
                        </g>
                        <g transform="matrix(1,0,0,1,276.42,164.73)">
                            <path d="M5,0C5,2.743 2.743,5 0,5C-2.743,5 -5,2.743 -5,0C-5,-2.743 -2.743,-5 -0,-5C2.743,-5 5,-2.743 5,-0Z" style="fill:rgb(99,110,250);fill-opacity:0.6;fill-rule:nonzero;"/>
                        </g>
                        <g transform="matrix(1,0,0,1,321.56,247.75)">
                            <path d="M5,0C5,2.743 2.743,5 0,5C-2.743,5 -5,2.743 -5,0C-5,-2.743 -2.743,-5 -0,-5C2.743,-5 5,-2.743 5,-0Z" style="fill:rgb(99,110,250);fill-opacity:0.6;fill-rule:nonzero;"/>
                        </g>
                        <g transform="matrix(1,0,0,1,351.26,245.3)">
                            <path d="M5,0C5,2.743 2.743,5 0,5C-2.743,5 -5,2.743 -5,0C-5,-2.743 -2.743,-5 -0,-5C2.743,-5 5,-2.743 5,-0Z" style="fill:rgb(99,110,250);fill-opacity:0.6;fill-rule:nonzero;"/>
                        </g>
                        <g transform="matrix(1,0,0,1,174.45,44.7)">
                            <path d="M5,0C5,2.743 2.743,5 0,5C-2.743,5 -5,2.743 -5,0C-5,-2.743 -2.743,-5 -0,-5C2.743,-5 5,-2.743 5,-0Z" style="fill:rgb(99,110,250);fill-opacity:0.6;fill-rule:nonzero;"/>
                        </g>
                        <g transform="matrix(1,0,0,1,298.83,130.57)">
                            <path d="M5,0C5,2.743 2.743,5 0,5C-2.743,5 -5,2.743 -5,0C-5,-2.743 -2.743,-5 -0,-5C2.743,-5 5,-2.743 5,-0Z" style="fill:rgb(99,110,250);fill-opacity:0.6;fill-rule:nonzero;"/>
                        </g>
                        <g transform="matrix(1,0,0,1,393.48,254.96)">
                            <path d="M5,0C5,2.743 2.743,5 0,5C-2.743,5 -5,2.743 -5,0C-5,-2.743 -2.743,-5 -0,-5C2.743,-5 5,-2.743 5,-0Z" style="fill:rgb(99,110,250);fill-opacity:0.6;fill-rule:nonzero;"/>
                        </g>
                        <g transform="matrix(1,0,0,1,265.39,140.38)">
                            <path d="M5,0C5,2.743 2.743,5 0,5C-2.743,5 -5,2.743 -5,0C-5,-2.743 -2.743,-5 -0,-5C2.743,-5 5,-2.743 5,-0Z" style="fill:rgb(99,110,250);fill-opacity:0.6;fill-rule:nonzero;"/>
                        </g>
                        <g transform="matrix(1,0,0,1,101.94,94.32)">
                            <path d="M5,0C5,2.743 2.743,5 0,5C-2.743,5 -5,2.743 -5,0C-5,-2.743 -2.743,-5 -0,-5C2.743,-5 5,-2.743 5,-0Z" style="fill:rgb(99,110,250);fill-opacity:0.6;fill-rule:nonzero;"/>
                        </g>
                        <g transform="matrix(1,0,0,1,140.94,71.5)">
                            <path d="M5,0C5,2.743 2.743,5 0,5C-2.743,5 -5,2.743 -5,0C-5,-2.743 -2.743,-5 -0,-5C2.743,-5 5,-2.743 5,-0Z" style="fill:rgb(99,110,250);fill-opacity:0.6;fill-rule:nonzero;"/>
                        </g>
                        <g transform="matrix(1,0,0,1,272.04,172.35)">
                            <path d="M5,0C5,2.743 2.743,5 0,5C-2.743,5 -5,2.743 -5,0C-5,-2.743 -2.743,-5 -0,-5C2.743,-5 5,-2.743 5,-0Z" style="fill:rgb(99,110,250);fill-opacity:0.6;fill-rule:nonzero;"/>
                        </g>
                        <g transform="matrix(1,0,0,1,354.72,251.85)">
                            <path d="M5,0C5,2.743 2.743,5 0,5C-2.743,5 -5,2.743 -5,0C-5,-2.743 -2.743,-5 -0,-5C2.743,-5 5,-2.743 5,-0Z" style="fill:rgb(99,110,250);fill-opacity:0.6;fill-rule:nonzero;"/>
                        </g>
                        <g transform="matrix(1,0,0,1,108.01,40.53)">
                            <path d="M5,0C5,2.743 2.743,5 0,5C-2.743,5 -5,2.743 -5,0C-5,-2.743 -2.743,-5 -0,-5C2.743,-5 5,-2.743 5,-0Z" style="fill:rgb(99,110,250);fill-opacity:0.6;fill-rule:nonzero;"/>
                        </g>
                        <g transform="matrix(1,0,0,1,121.87,194.18)">
                            <path d="M5,0C5,2.743 2.743,5 0,5C-2.743,5 -5,2.743 -5,0C-5,-2.743 -2.743,-5 -0,-5C2.743,-5 5,-2.743 5,-0Z" style="fill:rgb(99,110,250);fill-opacity:0.6;fill-rule:nonzero;"/>
                        </g>
                        <g transform="matrix(1,0,0,1,159.22,191)">
                            <path d="M5,0C5,2.743 2.743,5 0,5C-2.743,5 -5,2.743 -5,0C-5,-2.743 -2.743,-5 -0,-5C2.743,-5 5,-2.743 5,-0Z" style="fill:rgb(99,110,250);fill-opacity:0.6;fill-rule:nonzero;"/>
                        </g>
                        <g transform="matrix(1,0,0,1,313.94,172.81)">
                            <path d="M5,0C5,2.743 2.743,5 0,5C-2.743,5 -5,2.743 -5,0C-5,-2.743 -2.743,-5 -0,-5C2.743,-5 5,-2.743 5,-0Z" style="fill:rgb(99,110,250);fill-opacity:0.6;fill-rule:nonzero;"/>
                        </g>
                        <g transform="matrix(1,0,0,1,326.97,239.29)">
                            <path d="M5,0C5,2.743 2.743,5 0,5C-2.743,5 -5,2.743 -5,0C-5,-2.743 -2.743,-5 -0,-5C2.743,-5 5,-2.743 5,-0Z" style="fill:rgb(99,110,250);fill-opacity:0.6;fill-rule:nonzero;"/>
                        </g>
                        <g transform="matrix(1,0,0,1,408.8,246.92)">
                            <path d="M5,0C5,2.743 2.743,5 0,5C-2.743,5 -5,2.743 -5,0C-5,-2.743 -2.743,-5 -0,-5C2.743,-5 5,-2.743 5,-0Z" style="fill:rgb(99,110,250);fill-opacity:0.6;fill-rule:nonzero;"/>
                        </g>
                        <g transform="matrix(1,0,0,1,255.08,126.79)">
                            <path d="M5,0C5,2.743 2.743,5 0,5C-2.743,5 -5,2.743 -5,0C-5,-2.743 -2.743,-5 -0,-5C2.743,-5 5,-2.743 5,-0Z" style="fill:rgb(99,110,250);fill-opacity:0.6;fill-rule:nonzero;"/>
                        </g>
                        <g transform="matrix(1,0,0,1,31,186.78)">
                            <path d="M5,0C5,2.743 2.743,5 0,5C-2.743,5 -5,2.743 -5,0C-5,-2.743 -2.743,-5 -0,-5C2.743,-5 5,-2.743 5,-0Z" style="fill:rgb(99,110,250);fill-opacity:0.6;fill-rule:nonzero;"/>
                        </g>
                        <g transform="matrix(1,0,0,1,198.28,40.58)">
                            <path d="M5,0C5,2.743 2.743,5 0,5C-2.743,5 -5,2.743 -5,0C-5,-2.743 -2.743,-5 -0,-5C2.743,-5 5,-2.743 5,-0Z" style="fill:rgb(99,110,250);fill-opacity:0.6;fill-rule:nonzero;"/>
                        </g>
                        <g transform="matrix(1,0,0,1,347.27,288.72)">
                            <path d="M5,0C5,2.743 2.743,5 0,5C-2.743,5 -5,2.743 -5,0C-5,-2.743 -2.743,-5 -0,-5C2.743,-5 5,-2.743 5,-0Z" style="fill:rgb(99,110,250);fill-opacity:0.6;fill-rule:nonzero;"/>
                        </g>
                        <g transform="matrix(1,0,0,1,192.03,66.34)">
                            <path d="M5,0C5,2.743 2.743,5 0,5C-2.743,5 -5,2.743 -5,0C-5,-2.743 -2.743,-5 -0,-5C2.743,-5 5,-2.743 5,-0Z" style="fill:rgb(99,110,250);fill-opacity:0.6;fill-rule:nonzero;"/>
                        </g>
                        <g transform="matrix(1,0,0,1,393.39,261.61)">
                            <path d="M5,0C5,2.743 2.743,5 0,5C-2.743,5 -5,2.743 -5,0C-5,-2.743 -2.743,-5 -0,-5C2.743,-5 5,-2.743 5,-0Z" style="fill:rgb(99,110,250);fill-opacity:0.6;fill-rule:nonzero;"/>
                        </g>
                        <g transform="matrix(1,0,0,1,306.56,152.15)">
                            <path d="M5,0C5,2.743 2.743,5 0,5C-2.743,5 -5,2.743 -5,0C-5,-2.743 -2.743,-5 -0,-5C2.743,-5 5,-2.743 5,-0Z" style="fill:rgb(99,110,250);fill-opacity:0.6;fill-rule:nonzero;"/>
                        </g>
                        <g transform="matrix(1,0,0,1,384.1,242.13)">
                            <path d="M5,0C5,2.743 2.743,5 0,5C-2.743,5 -5,2.743 -5,0C-5,-2.743 -2.743,-5 -0,-5C2.743,-5 5,-2.743 5,-0Z" style="fill:rgb(99,110,250);fill-opacity:0.6;fill-rule:nonzero;"/>
                        </g>
                        <g transform="matrix(1,0,0,1,398.11,278.74)">
                            <path d="M5,0C5,2.743 2.743,5 0,5C-2.743,5 -5,2.743 -5,0C-5,-2.743 -2.743,-5 -0,-5C2.743,-5 5,-2.743 5,-0Z" style="fill:rgb(99,110,250);fill-opacity:0.6;fill-rule:nonzero;"/>
                        </g>
                        <g transform="matrix(1,0,0,1,325.86,143.59)">
                            <path d="M5,0C5,2.743 2.743,5 0,5C-2.743,5 -5,2.743 -5,0C-5,-2.743 -2.743,-5 -0,-5C2.743,-5 5,-2.743 5,-0Z" style="fill:rgb(99,110,250);fill-opacity:0.6;fill-rule:nonzero;"/>
                        </g>
                        <g transform="matrix(1,0,0,1,150.33,89.25)">
                            <path d="M5,0C5,2.743 2.743,5 0,5C-2.743,5 -5,2.743 -5,0C-5,-2.743 -2.743,-5 -0,-5C2.743,-5 5,-2.743 5,-0Z" style="fill:rgb(99,110,250);fill-opacity:0.6;fill-rule:nonzero;"/>
                        </g>
                        <g transform="matrix(1,0,0,1,301.95,129.38)">
                            <path d="M5,0C5,2.743 2.743,5 0,5C-2.743,5 -5,2.743 -5,0C-5,-2.743 -2.743,-5 -0,-5C2.743,-5 5,-2.743 5,-0Z" style="fill:rgb(99,110,250);fill-opacity:0.6;fill-rule:nonzero;"/>
                        </g>
                        <g transform="matrix(1,0,0,1,166.94,216.23)">
                            <path d="M5,0C5,2.743 2.743,5 0,5C-2.743,5 -5,2.743 -5,0C-5,-2.743 -2.743,-5 -0,-5C2.743,-5 5,-2.743 5,-0Z" style="fill:rgb(99,110,250);fill-opacity:0.6;fill-rule:nonzero;"/>
                        </g>
                        <g transform="matrix(1,0,0,1,131.02,179.03)">
                            <path d="M5,0C5,2.743 2.743,5 0,5C-2.743,5 -5,2.743 -5,0C-5,-2.743 -2.743,-5 -0,-5C2.743,-5 5,-2.743 5,-0Z" style="fill:rgb(99,110,250);fill-opacity:0.6;fill-rule:nonzero;"/>
                        </g>
                        <g transform="matrix(1,0,0,1,340.94,263.48)">
                            <path d="M5,0C5,2.743 2.743,5 0,5C-2.743,5 -5,2.743 -5,0C-5,-2.743 -2.743,-5 -0,-5C2.743,-5 5,-2.743 5,-0Z" style="fill:rgb(99,110,250);fill-opacity:0.6;fill-rule:nonzero;"/>
                        </g>
                        <g transform="matrix(1,0,0,1,93.3,55.07)">
                            <path d="M5,0C5,2.743 2.743,5 0,5C-2.743,5 -5,2.743 -5,0C-5,-2.743 -2.743,-5 -0,-5C2.743,-5 5,-2.743 5,-0Z" style="fill:rgb(99,110,250);fill-opacity:0.6;fill-rule:nonzero;"/>
                        </g>
                        <g transform="matrix(1,0,0,1,358.14,256.08)">
                            <path d="M5,0C5,2.743 2.743,5 0,5C-2.743,5 -5,2.743 -5,0C-5,-2.743 -2.743,-5 -0,-5C2.743,-5 5,-2.743 5,-0Z" style="fill:rgb(99,110,250);fill-opacity:0.6;fill-rule:nonzero;"/>
                        </g>
                        <g transform="matrix(1,0,0,1,376.12,180.93)">
                            <path d="M5,0C5,2.743 2.743,5 0,5C-2.743,5 -5,2.743 -5,0C-5,-2.743 -2.743,-5 -0,-5C2.743,-5 5,-2.743 5,-0Z" style="fill:rgb(99,110,250);fill-opacity:0.6;fill-rule:nonzero;"/>
                        </g>
                        <g transform="matrix(1,0,0,1,128.62,70.39)">
                            <path d="M5,0C5,2.743 2.743,5 0,5C-2.743,5 -5,2.743 -5,0C-5,-2.743 -2.743,-5 -0,-5C2.743,-5 5,-2.743 5,-0Z" style="fill:rgb(99,110,250);fill-opacity:0.6;fill-rule:nonzero;"/>
                        </g>
                        <g transform="matrix(1,0,0,1,310.07,242.1)">
                            <path d="M5,0C5,2.743 2.743,5 0,5C-2.743,5 -5,2.743 -5,0C-5,-2.743 -2.743,-5 -0,-5C2.743,-5 5,-2.743 5,-0Z" style="fill:rgb(99,110,250);fill-opacity:0.6;fill-rule:nonzero;"/>
                        </g>
                        <g transform="matrix(1,0,0,1,343.47,226.76)">
                            <path d="M5,0C5,2.743 2.743,5 0,5C-2.743,5 -5,2.743 -5,0C-5,-2.743 -2.743,-5 -0,-5C2.743,-5 5,-2.743 5,-0Z" style="fill:rgb(99,110,250);fill-opacity:0.6;fill-rule:nonzero;"/>
                        </g>
                        <g transform="matrix(1,0,0,1,267.43,127.34)">
                            <path d="M5,0C5,2.743 2.743,5 0,5C-2.743,5 -5,2.743 -5,0C-5,-2.743 -2.743,-5 -0,-5C2.743,-5 5,-2.743 5,-0Z" style="fill:rgb(99,110,250);fill-opacity:0.6;fill-rule:nonzero;"/>
                        </g>
                        <g transform="matrix(1,0,0,1,201.58,194.05)">
                            <path d="M5,0C5,2.743 2.743,5 0,5C-2.743,5 -5,2.743 -5,0C-5,-2.743 -2.743,-5 -0,-5C2.743,-5 5,-2.743 5,-0Z" style="fill:rgb(99,110,250);fill-opacity:0.6;fill-rule:nonzero;"/>
                        </g>
                        <g transform="matrix(1,0,0,1,347.88,260.05)">
                            <path d="M5,0C5,2.743 2.743,5 0,5C-2.743,5 -5,2.743 -5,0C-5,-2.743 -2.743,-5 -0,-5C2.743,-5 5,-2.743 5,-0Z" style="fill:rgb(99,110,250);fill-opacity:0.6;fill-rule:nonzero;"/>
                        </g>
                        <g transform="matrix(1,0,0,1,170.29,177.98)">
                            <path d="M5,0C5,2.743 2.743,5 0,5C-2.743,5 -5,2.743 -5,0C-5,-2.743 -2.743,-5 -0,-5C2.743,-5 5,-2.743 5,-0Z" style="fill:rgb(99,110,250);fill-opacity:0.6;fill-rule:nonzero;"/>
                        </g>
                        <g transform="matrix(1,0,0,1,325.67,260.48)">
                            <path d="M5,0C5,2.743 2.743,5 0,5C-2.743,5 -5,2.743 -5,0C-5,-2.743 -2.743,-5 -0,-5C2.743,-5 5,-2.743 5,-0Z" style="fill:rgb(99,110,250);fill-opacity:0.6;fill-rule:nonzero;"/>
                        </g>
                        <g transform="matrix(1,0,0,1,331.36,232.22)">
                            <path d="M5,0C5,2.743 2.743,5 0,5C-2.743,5 -5,2.743 -5,0C-5,-2.743 -2.743,-5 -0,-5C2.743,-5 5,-2.743 5,-0Z" style="fill:rgb(99,110,250);fill-opacity:0.6;fill-rule:nonzero;"/>
                        </g>
                        <g transform="matrix(1,0,0,1,372.08,245.9)">
                            <path d="M5,0C5,2.743 2.743,5 0,5C-2.743,5 -5,2.743 -5,0C-5,-2.743 -2.743,-5 -0,-5C2.743,-5 5,-2.743 5,-0Z" style="fill:rgb(99,110,250);fill-opacity:0.6;fill-rule:nonzero;"/>
                        </g>
                        <g transform="matrix(1,0,0,1,347.51,258.68)">
                            <path d="M5,0C5,2.743 2.743,5 0,5C-2.743,5 -5,2.743 -5,0C-5,-2.743 -2.743,-5 -0,-5C2.743,-5 5,-2.743 5,-0Z" style="fill:rgb(99,110,250);fill-opacity:0.6;fill-rule:nonzero;"/>
                        </g>
                        <g transform="matrix(1,0,0,1,147.42,213.09)">
                            <path d="M5,0C5,2.743 2.743,5 0,5C-2.743,5 -5,2.743 -5,0C-5,-2.743 -2.743,-5 -0,-5C2.743,-5 5,-2.743 5,-0Z" style="fill:rgb(99,110,250);fill-opacity:0.6;fill-rule:nonzero;"/>
                        </g>
                        <g transform="matrix(1,0,0,1,311.74,251.1)">
                            <path d="M5,0C5,2.743 2.743,5 0,5C-2.743,5 -5,2.743 -5,0C-5,-2.743 -2.743,-5 -0,-5C2.743,-5 5,-2.743 5,-0Z" style="fill:rgb(99,110,250);fill-opacity:0.6;fill-rule:nonzero;"/>
                        </g>
                        <g transform="matrix(1,0,0,1,122.32,223.35)">
                            <path d="M5,0C5,2.743 2.743,5 0,5C-2.743,5 -5,2.743 -5,0C-5,-2.743 -2.743,-5 -0,-5C2.743,-5 5,-2.743 5,-0Z" style="fill:rgb(99,110,250);fill-opacity:0.6;fill-rule:nonzero;"/>
                        </g>
                        <g transform="matrix(1,0,0,1,214.64,52.84)">
                            <path d="M5,0C5,2.743 2.743,5 0,5C-2.743,5 -5,2.743 -5,0C-5,-2.743 -2.743,-5 -0,-5C2.743,-5 5,-2.743 5,-0Z" style="fill:rgb(99,110,250);fill-opacity:0.6;fill-rule:nonzero;"/>
                        </g>
                        <g transform="matrix(1,0,0,1,128.98,210.04)">
                            <path d="M5,0C5,2.743 2.743,5 0,5C-2.743,5 -5,2.743 -5,0C-5,-2.743 -2.743,-5 -0,-5C2.743,-5 5,-2.743 5,-0Z" style="fill:rgb(99,110,250);fill-opacity:0.6;fill-rule:nonzero;"/>
                        </g>
                        <g transform="matrix(1,0,0,1,125.71,215.31)">
                            <path d="M5,0C5,2.743 2.743,5 0,5C-2.743,5 -5,2.743 -5,0C-5,-2.743 -2.743,-5 -0,-5C2.743,-5 5,-2.743 5,-0Z" style="fill:rgb(99,110,250);fill-opacity:0.6;fill-rule:nonzero;"/>
                        </g>
                        <g transform="matrix(1,0,0,1,397.52,278.5)">
                            <path d="M5,0C5,2.743 2.743,5 0,5C-2.743,5 -5,2.743 -5,0C-5,-2.743 -2.743,-5 -0,-5C2.743,-5 5,-2.743 5,-0Z" style="fill:rgb(99,110,250);fill-opacity:0.6;fill-rule:nonzero;"/>
                        </g>
                        <g transform="matrix(1,0,0,1,146.01,79.77)">
                            <path d="M5,0C5,2.743 2.743,5 0,5C-2.743,5 -5,2.743 -5,0C-5,-2.743 -2.743,-5 -0,-5C2.743,-5 5,-2.743 5,-0Z" style="fill:rgb(99,110,250);fill-opacity:0.6;fill-rule:nonzero;"/>
                        </g>
                        <g transform="matrix(1,0,0,1,154.43,212.62)">
                            <path d="M5,0C5,2.743 2.743,5 0,5C-2.743,5 -5,2.743 -5,0C-5,-2.743 -2.743,-5 -0,-5C2.743,-5 5,-2.743 5,-0Z" style="fill:rgb(99,110,250);fill-opacity:0.6;fill-rule:nonzero;"/>
                        </g>
                        <g transform="matrix(1,0,0,1,79.02,183.59)">
                            <path d="M5,0C5,2.743 2.743,5 0,5C-2.743,5 -5,2.743 -5,0C-5,-2.743 -2.743,-5 -0,-5C2.743,-5 5,-2.743 5,-0Z" style="fill:rgb(99,110,250);fill-opacity:0.6;fill-rule:nonzero;"/>
                        </g>
                        <g transform="matrix(1,0,0,1,99.02,71.64)">
                            <path d="M5,0C5,2.743 2.743,5 0,5C-2.743,5 -5,2.743 -5,0C-5,-2.743 -2.743,-5 -0,-5C2.743,-5 5,-2.743 5,-0Z" style="fill:rgb(99,110,250);fill-opacity:0.6;fill-rule:nonzero;"/>
                        </g>
                        <g transform="matrix(1,0,0,1,269.33,187.16)">
                            <path d="M5,0C5,2.743 2.743,5 0,5C-2.743,5 -5,2.743 -5,0C-5,-2.743 -2.743,-5 -0,-5C2.743,-5 5,-2.743 5,-0Z" style="fill:rgb(99,110,250);fill-opacity:0.6;fill-rule:nonzero;"/>
                        </g>
                        <g transform="matrix(1,0,0,1,201.49,72.33)">
                            <path d="M5,0C5,2.743 2.743,5 0,5C-2.743,5 -5,2.743 -5,0C-5,-2.743 -2.743,-5 -0,-5C2.743,-5 5,-2.743 5,-0Z" style="fill:rgb(99,110,250);fill-opacity:0.6;fill-rule:nonzero;"/>
                        </g>
                        <g transform="matrix(1,0,0,1,66.01,55.33)">
                            <path d="M5,0C5,2.743 2.743,5 0,5C-2.743,5 -5,2.743 -5,0C-5,-2.743 -2.743,-5 -0,-5C2.743,-5 5,-2.743 5,-0Z" style="fill:rgb(99,110,250);fill-opacity:0.6;fill-rule:nonzero;"/>
                        </g>
                        <g transform="matrix(1,0,0,1,168.02,195.47)">
                            <path d="M5,0C5,2.743 2.743,5 0,5C-2.743,5 -5,2.743 -5,0C-5,-2.743 -2.743,-5 -0,-5C2.743,-5 5,-2.743 5,-0Z" style="fill:rgb(99,110,250);fill-opacity:0.6;fill-rule:nonzero;"/>
                        </g>
                        <g transform="matrix(1,0,0,1,319.98,184.03)">
                            <path d="M5,0C5,2.743 2.743,5 0,5C-2.743,5 -5,2.743 -5,0C-5,-2.743 -2.743,-5 -0,-5C2.743,-5 5,-2.743 5,-0Z" style="fill:rgb(99,110,250);fill-opacity:0.6;fill-rule:nonzero;"/>
                        </g>
                        <g transform="matrix(1,0,0,1,130.07,159.63)">
                            <path d="M5,0C5,2.743 2.743,5 0,5C-2.743,5 -5,2.743 -5,0C-5,-2.743 -2.743,-5 -0,-5C2.743,-5 5,-2.743 5,-0Z" style="fill:rgb(99,110,250);fill-opacity:0.6;fill-rule:nonzero;"/>
                        </g>
                        <g transform="matrix(1,0,0,1,360.48,127.57)">
                            <path d="M5,0C5,2.743 2.743,5 0,5C-2.743,5 -5,2.743 -5,0C-5,-2.743 -2.743,-5 -0,-5C2.743,-5 5,-2.743 5,-0Z" style="fill:rgb(99,110,250);fill-opacity:0.6;fill-rule:nonzero;"/>
                        </g>
                        <g transform="matrix(1,0,0,1,120.66,215.83)">
                            <path d="M5,0C5,2.743 2.743,5 0,5C-2.743,5 -5,2.743 -5,0C-5,-2.743 -2.743,-5 -0,-5C2.743,-5 5,-2.743 5,-0Z" style="fill:rgb(99,110,250);fill-opacity:0.6;fill-rule:nonzero;"/>
                        </g>
                        <g transform="matrix(1,0,0,1,145.89,76.95)">
                            <path d="M5,0C5,2.743 2.743,5 0,5C-2.743,5 -5,2.743 -5,0C-5,-2.743 -2.743,-5 -0,-5C2.743,-5 5,-2.743 5,-0Z" style="fill:rgb(99,110,250);fill-opacity:0.6;fill-rule:nonzero;"/>
                        </g>
                        <g transform="matrix(1,0,0,1,237.62,162.26)">
                            <path d="M5,0C5,2.743 2.743,5 0,5C-2.743,5 -5,2.743 -5,0C-5,-2.743 -2.743,-5 -0,-5C2.743,-5 5,-2.743 5,-0Z" style="fill:rgb(99,110,250);fill-opacity:0.6;fill-rule:nonzero;"/>
                        </g>
                        <g transform="matrix(1,0,0,1,164.29,76.55)">
                            <path d="M5,0C5,2.743 2.743,5 0,5C-2.743,5 -5,2.743 -5,0C-5,-2.743 -2.743,-5 -0,-5C2.743,-5 5,-2.743 5,-0Z" style="fill:rgb(99,110,250);fill-opacity:0.6;fill-rule:nonzero;"/>
                        </g>
                        <g transform="matrix(1,0,0,1,118.71,68.91)">
                            <path d="M5,0C5,2.743 2.743,5 0,5C-2.743,5 -5,2.743 -5,0C-5,-2.743 -2.743,-5 -0,-5C2.743,-5 5,-2.743 5,-0Z" style="fill:rgb(99,110,250);fill-opacity:0.6;fill-rule:nonzero;"/>
                        </g>
                        <g transform="matrix(1,0,0,1,137.31,58.95)">
                            <path d="M5,0C5,2.743 2.743,5 0,5C-2.743,5 -5,2.743 -5,0C-5,-2.743 -2.743,-5 -0,-5C2.743,-5 5,-2.743 5,-0Z" style="fill:rgb(99,110,250);fill-opacity:0.6;fill-rule:nonzero;"/>
                        </g>
                        <g transform="matrix(1,0,0,1,300.42,151.71)">
                            <path d="M5,0C5,2.743 2.743,5 0,5C-2.743,5 -5,2.743 -5,0C-5,-2.743 -2.743,-5 -0,-5C2.743,-5 5,-2.743 5,-0Z" style="fill:rgb(99,110,250);fill-opacity:0.6;fill-rule:nonzero;"/>
                        </g>
                        <g transform="matrix(1,0,0,1,197.41,104.03)">
                            <path d="M5,0C5,2.743 2.743,5 0,5C-2.743,5 -5,2.743 -5,0C-5,-2.743 -2.743,-5 -0,-5C2.743,-5 5,-2.743 5,-0Z" style="fill:rgb(99,110,250);fill-opacity:0.6;fill-rule:nonzero;"/>
                        </g>
                        <g transform="matrix(1,0,0,1,251.92,145.97)">
                            <path d="M5,0C5,2.743 2.743,5 0,5C-2.743,5 -5,2.743 -5,0C-5,-2.743 -2.743,-5 -0,-5C2.743,-5 5,-2.743 5,-0Z" style="fill:rgb(99,110,250);fill-opacity:0.6;fill-rule:nonzero;"/>
                        </g>
                        <g transform="matrix(1,0,0,1,340.54,276.26)">
                            <path d="M5,0C5,2.743 2.743,5 0,5C-2.743,5 -5,2.743 -5,0C-5,-2.743 -2.743,-5 -0,-5C2.743,-5 5,-2.743 5,-0Z" style="fill:rgb(99,110,250);fill-opacity:0.6;fill-rule:nonzero;"/>
                        </g>
                        <g transform="matrix(1,0,0,1,168.85,196.67)">
                            <path d="M5,0C5,2.743 2.743,5 0,5C-2.743,5 -5,2.743 -5,0C-5,-2.743 -2.743,-5 -0,-5C2.743,-5 5,-2.743 5,-0Z" style="fill:rgb(99,110,250);fill-opacity:0.6;fill-rule:nonzero;"/>
                        </g>
                        <g transform="matrix(1,0,0,1,176.22,54.71)">
                            <path d="M5,0C5,2.743 2.743,5 0,5C-2.743,5 -5,2.743 -5,0C-5,-2.743 -2.743,-5 -0,-5C2.743,-5 5,-2.743 5,-0Z" style="fill:rgb(99,110,250);fill-opacity:0.6;fill-rule:nonzero;"/>
                        </g>
                        <g transform="matrix(1,0,0,1,112.6,215.11)">
                            <path d="M5,0C5,2.743 2.743,5 0,5C-2.743,5 -5,2.743 -5,0C-5,-2.743 -2.743,-5 -0,-5C2.743,-5 5,-2.743 5,-0Z" style="fill:rgb(99,110,250);fill-opacity:0.6;fill-rule:nonzero;"/>
                        </g>
                        <g transform="matrix(1,0,0,1,360.44,250.54)">
                            <path d="M5,0C5,2.743 2.743,5 0,5C-2.743,5 -5,2.743 -5,0C-5,-2.743 -2.743,-5 -0,-5C2.743,-5 5,-2.743 5,-0Z" style="fill:rgb(99,110,250);fill-opacity:0.6;fill-rule:nonzero;"/>
                        </g>
                        <g transform="matrix(1,0,0,1,309.79,142.69)">
                            <path d="M5,0C5,2.743 2.743,5 0,5C-2.743,5 -5,2.743 -5,0C-5,-2.743 -2.743,-5 -0,-5C2.743,-5 5,-2.743 5,-0Z" style="fill:rgb(99,110,250);fill-opacity:0.6;fill-rule:nonzero;"/>
                        </g>
                        <g transform="matrix(1,0,0,1,109.56,49.02)">
                            <path d="M5,0C5,2.743 2.743,5 0,5C-2.743,5 -5,2.743 -5,0C-5,-2.743 -2.743,-5 -0,-5C2.743,-5 5,-2.743 5,-0Z" style="fill:rgb(99,110,250);fill-opacity:0.6;fill-rule:nonzero;"/>
                        </g>
                        <g transform="matrix(1,0,0,1,281.35,165.97)">
                            <path d="M5,0C5,2.743 2.743,5 0,5C-2.743,5 -5,2.743 -5,0C-5,-2.743 -2.743,-5 -0,-5C2.743,-5 5,-2.743 5,-0Z" style="fill:rgb(99,110,250);fill-opacity:0.6;fill-rule:nonzero;"/>
                        </g>
                        <g transform="matrix(1,0,0,1,286.2,163.73)">
                            <path d="M5,0C5,2.743 2.743,5 0,5C-2.743,5 -5,2.743 -5,0C-5,-2.743 -2.743,-5 -0,-5C2.743,-5 5,-2.743 5,-0Z" style="fill:rgb(99,110,250);fill-opacity:0.6;fill-rule:nonzero;"/>
                        </g>
                        <g transform="matrix(1,0,0,1,345.35,226.87)">
                            <path d="M5,0C5,2.743 2.743,5 0,5C-2.743,5 -5,2.743 -5,0C-5,-2.743 -2.743,-5 -0,-5C2.743,-5 5,-2.743 5,-0Z" style="fill:rgb(99,110,250);fill-opacity:0.6;fill-rule:nonzero;"/>
                        </g>
                        <g transform="matrix(1,0,0,1,290.92,145.56)">
                            <path d="M5,0C5,2.743 2.743,5 0,5C-2.743,5 -5,2.743 -5,0C-5,-2.743 -2.743,-5 -0,-5C2.743,-5 5,-2.743 5,-0Z" style="fill:rgb(99,110,250);fill-opacity:0.6;fill-rule:nonzero;"/>
                        </g>
                        <g transform="matrix(1,0,0,1,63.32,204.62)">
                            <path d="M5,0C5,2.743 2.743,5 0,5C-2.743,5 -5,2.743 -5,0C-5,-2.743 -2.743,-5 -0,-5C2.743,-5 5,-2.743 5,-0Z" style="fill:rgb(99,110,250);fill-opacity:0.6;fill-rule:nonzero;"/>
                        </g>
                        <g transform="matrix(1,0,0,1,173.66,241.82)">
                            <path d="M5,0C5,2.743 2.743,5 0,5C-2.743,5 -5,2.743 -5,0C-5,-2.743 -2.743,-5 -0,-5C2.743,-5 5,-2.743 5,-0Z" style="fill:rgb(99,110,250);fill-opacity:0.6;fill-rule:nonzero;"/>
                        </g>
                        <g transform="matrix(1,0,0,1,251.22,142.81)">
                            <path d="M5,0C5,2.743 2.743,5 0,5C-2.743,5 -5,2.743 -5,0C-5,-2.743 -2.743,-5 -0,-5C2.743,-5 5,-2.743 5,-0Z" style="fill:rgb(99,110,250);fill-opacity:0.6;fill-rule:nonzero;"/>
                        </g>
                        <g transform="matrix(1,0,0,1,331.8,240.93)">
                            <path d="M5,0C5,2.743 2.743,5 0,5C-2.743,5 -5,2.743 -5,0C-5,-2.743 -2.743,-5 -0,-5C2.743,-5 5,-2.743 5,-0Z" style="fill:rgb(99,110,250);fill-opacity:0.6;fill-rule:nonzero;"/>
                        </g>
                        <g transform="matrix(1,0,0,1,317.22,176.74)">
                            <path d="M5,0C5,2.743 2.743,5 0,5C-2.743,5 -5,2.743 -5,0C-5,-2.743 -2.743,-5 -0,-5C2.743,-5 5,-2.743 5,-0Z" style="fill:rgb(99,110,250);fill-opacity:0.6;fill-rule:nonzero;"/>
                        </g>
                        <g transform="matrix(1,0,0,1,308.56,165.37)">
                            <path d="M5,0C5,2.743 2.743,5 0,5C-2.743,5 -5,2.743 -5,0C-5,-2.743 -2.743,-5 -0,-5C2.743,-5 5,-2.743 5,-0Z" style="fill:rgb(99,110,250);fill-opacity:0.6;fill-rule:nonzero;"/>
                        </g>
                        <g transform="matrix(1,0,0,1,156.17,49.3)">
                            <path d="M5,0C5,2.743 2.743,5 0,5C-2.743,5 -5,2.743 -5,0C-5,-2.743 -2.743,-5 -0,-5C2.743,-5 5,-2.743 5,-0Z" style="fill:rgb(99,110,250);fill-opacity:0.6;fill-rule:nonzero;"/>
                        </g>
                        <g transform="matrix(1,0,0,1,334.9,257.83)">
                            <path d="M5,0C5,2.743 2.743,5 0,5C-2.743,5 -5,2.743 -5,0C-5,-2.743 -2.743,-5 -0,-5C2.743,-5 5,-2.743 5,-0Z" style="fill:rgb(99,110,250);fill-opacity:0.6;fill-rule:nonzero;"/>
                        </g>
                        <g transform="matrix(1,0,0,1,362.24,134.59)">
                            <path d="M5,0C5,2.743 2.743,5 0,5C-2.743,5 -5,2.743 -5,0C-5,-2.743 -2.743,-5 -0,-5C2.743,-5 5,-2.743 5,-0Z" style="fill:rgb(99,110,250);fill-opacity:0.6;fill-rule:nonzero;"/>
                        </g>
                        <g transform="matrix(1,0,0,1,149.73,163.51)">
                            <path d="M5,0C5,2.743 2.743,5 0,5C-2.743,5 -5,2.743 -5,0C-5,-2.743 -2.743,-5 -0,-5C2.743,-5 5,-2.743 5,-0Z" style="fill:rgb(99,110,250);fill-opacity:0.6;fill-rule:nonzero;"/>
                        </g>
                        <g transform="matrix(1,0,0,1,161.2,60.35)">
                            <path d="M5,0C5,2.743 2.743,5 0,5C-2.743,5 -5,2.743 -5,0C-5,-2.743 -2.743,-5 -0,-5C2.743,-5 5,-2.743 5,-0Z" style="fill:rgb(99,110,250);fill-opacity:0.6;fill-rule:nonzero;"/>
                        </g>
                        <g transform="matrix(1,0,0,1,400.08,230.73)">
                            <path d="M5,0C5,2.743 2.743,5 0,5C-2.743,5 -5,2.743 -5,0C-5,-2.743 -2.743,-5 -0,-5C2.743,-5 5,-2.743 5,-0Z" style="fill:rgb(99,110,250);fill-opacity:0.6;fill-rule:nonzero;"/>
                        </g>
                        <g transform="matrix(1,0,0,1,389.64,241.01)">
                            <path d="M5,0C5,2.743 2.743,5 0,5C-2.743,5 -5,2.743 -5,0C-5,-2.743 -2.743,-5 -0,-5C2.743,-5 5,-2.743 5,-0Z" style="fill:rgb(99,110,250);fill-opacity:0.6;fill-rule:nonzero;"/>
                        </g>
                        <g transform="matrix(1,0,0,1,274.9,164.67)">
                            <path d="M5,0C5,2.743 2.743,5 0,5C-2.743,5 -5,2.743 -5,0C-5,-2.743 -2.743,-5 -0,-5C2.743,-5 5,-2.743 5,-0Z" style="fill:rgb(99,110,250);fill-opacity:0.6;fill-rule:nonzero;"/>
                        </g>
                        <g transform="matrix(1,0,0,1,173.22,191.16)">
                            <path d="M5,0C5,2.743 2.743,5 0,5C-2.743,5 -5,2.743 -5,0C-5,-2.743 -2.743,-5 -0,-5C2.743,-5 5,-2.743 5,-0Z" style="fill:rgb(99,110,250);fill-opacity:0.6;fill-rule:nonzero;"/>
                        </g>
                        <g transform="matrix(1,0,0,1,410.36,250.7)">
                            <path d="M5,0C5,2.743 2.743,5 0,5C-2.743,5 -5,2.743 -5,0C-5,-2.743 -2.743,-5 -0,-5C2.743,-5 5,-2.743 5,-0Z" style="fill:rgb(99,110,250);fill-opacity:0.6;fill-rule:nonzero;"/>
                        </g>
                        <g transform="matrix(1,0,0,1,348.22,161.72)">
                            <path d="M5,0C5,2.743 2.743,5 0,5C-2.743,5 -5,2.743 -5,0C-5,-2.743 -2.743,-5 -0,-5C2.743,-5 5,-2.743 5,-0Z" style="fill:rgb(99,110,250);fill-opacity:0.6;fill-rule:nonzero;"/>
                        </g>
                        <g transform="matrix(1,0,0,1,90.48,201.89)">
                            <path d="M5,0C5,2.743 2.743,5 0,5C-2.743,5 -5,2.743 -5,0C-5,-2.743 -2.743,-5 -0,-5C2.743,-5 5,-2.743 5,-0Z" style="fill:rgb(99,110,250);fill-opacity:0.6;fill-rule:nonzero;"/>
                        </g>
                        <g transform="matrix(1,0,0,1,132.91,193.56)">
                            <path d="M5,0C5,2.743 2.743,5 0,5C-2.743,5 -5,2.743 -5,0C-5,-2.743 -2.743,-5 -0,-5C2.743,-5 5,-2.743 5,-0Z" style="fill:rgb(99,110,250);fill-opacity:0.6;fill-rule:nonzero;"/>
                        </g>
                        <g transform="matrix(1,0,0,1,242.48,151.53)">
                            <path d="M5,0C5,2.743 2.743,5 0,5C-2.743,5 -5,2.743 -5,0C-5,-2.743 -2.743,-5 -0,-5C2.743,-5 5,-2.743 5,-0Z" style="fill:rgb(99,110,250);fill-opacity:0.6;fill-rule:nonzero;"/>
                        </g>
                        <g transform="matrix(1,0,0,1,331.68,156.76)">
                            <path d="M5,0C5,2.743 2.743,5 0,5C-2.743,5 -5,2.743 -5,0C-5,-2.743 -2.743,-5 -0,-5C2.743,-5 5,-2.743 5,-0Z" style="fill:rgb(99,110,250);fill-opacity:0.6;fill-rule:nonzero;"/>
                        </g>
                        <g transform="matrix(1,0,0,1,307.24,134.84)">
                            <path d="M5,0C5,2.743 2.743,5 0,5C-2.743,5 -5,2.743 -5,0C-5,-2.743 -2.743,-5 -0,-5C2.743,-5 5,-2.743 5,-0Z" style="fill:rgb(99,110,250);fill-opacity:0.6;fill-rule:nonzero;"/>
                        </g>
                        <g transform="matrix(1,0,0,1,287.76,156.19)">
                            <path d="M5,0C5,2.743 2.743,5 0,5C-2.743,5 -5,2.743 -5,0C-5,-2.743 -2.743,-5 -0,-5C2.743,-5 5,-2.743 5,-0Z" style="fill:rgb(99,110,250);fill-opacity:0.6;fill-rule:nonzero;"/>
                        </g>
                        <g transform="matrix(1,0,0,1,400.14,240.71)">
                            <path d="M5,0C5,2.743 2.743,5 0,5C-2.743,5 -5,2.743 -5,0C-5,-2.743 -2.743,-5 -0,-5C2.743,-5 5,-2.743 5,-0Z" style="fill:rgb(99,110,250);fill-opacity:0.6;fill-rule:nonzero;"/>
                        </g>
                        <g transform="matrix(1,0,0,1,122.8,80.33)">
                            <path d="M5,0C5,2.743 2.743,5 0,5C-2.743,5 -5,2.743 -5,0C-5,-2.743 -2.743,-5 -0,-5C2.743,-5 5,-2.743 5,-0Z" style="fill:rgb(99,110,250);fill-opacity:0.6;fill-rule:nonzero;"/>
                        </g>
                        <g transform="matrix(1,0,0,1,260.01,182.12)">
                            <path d="M5,0C5,2.743 2.743,5 0,5C-2.743,5 -5,2.743 -5,0C-5,-2.743 -2.743,-5 -0,-5C2.743,-5 5,-2.743 5,-0Z" style="fill:rgb(99,110,250);fill-opacity:0.6;fill-rule:nonzero;"/>
                        </g>
                        <g transform="matrix(1,0,0,1,171,198.65)">
                            <path d="M5,0C5,2.743 2.743,5 0,5C-2.743,5 -5,2.743 -5,0C-5,-2.743 -2.743,-5 -0,-5C2.743,-5 5,-2.743 5,-0Z" style="fill:rgb(99,110,250);fill-opacity:0.6;fill-rule:nonzero;"/>
                        </g>
                        <g transform="matrix(1,0,0,1,304.17,153.78)">
                            <path d="M5,0C5,2.743 2.743,5 0,5C-2.743,5 -5,2.743 -5,0C-5,-2.743 -2.743,-5 -0,-5C2.743,-5 5,-2.743 5,-0Z" style="fill:rgb(99,110,250);fill-opacity:0.6;fill-rule:nonzero;"/>
                        </g>
                        <g transform="matrix(1,0,0,1,274.03,161.22)">
                            <path d="M5,0C5,2.743 2.743,5 0,5C-2.743,5 -5,2.743 -5,0C-5,-2.743 -2.743,-5 -0,-5C2.743,-5 5,-2.743 5,-0Z" style="fill:rgb(99,110,250);fill-opacity:0.6;fill-rule:nonzero;"/>
                        </g>
                        <g transform="matrix(1,0,0,1,97.28,220.97)">
                            <path d="M5,0C5,2.743 2.743,5 0,5C-2.743,5 -5,2.743 -5,0C-5,-2.743 -2.743,-5 -0,-5C2.743,-5 5,-2.743 5,-0Z" style="fill:rgb(99,110,250);fill-opacity:0.6;fill-rule:nonzero;"/>
                        </g>
                        <g transform="matrix(1,0,0,1,147.18,211.41)">
                            <path d="M5,0C5,2.743 2.743,5 0,5C-2.743,5 -5,2.743 -5,0C-5,-2.743 -2.743,-5 -0,-5C2.743,-5 5,-2.743 5,-0Z" style="fill:rgb(99,110,250);fill-opacity:0.6;fill-rule:nonzero;"/>
                        </g>
                        <g transform="matrix(1,0,0,1,53.36,194.72)">
                            <path d="M5,0C5,2.743 2.743,5 0,5C-2.743,5 -5,2.743 -5,0C-5,-2.743 -2.743,-5 -0,-5C2.743,-5 5,-2.743 5,-0Z" style="fill:rgb(99,110,250);fill-opacity:0.6;fill-rule:nonzero;"/>
                        </g>
                        <g transform="matrix(1,0,0,1,346.16,176.52)">
                            <path d="M5,0C5,2.743 2.743,5 0,5C-2.743,5 -5,2.743 -5,0C-5,-2.743 -2.743,-5 -0,-5C2.743,-5 5,-2.743 5,-0Z" style="fill:rgb(99,110,250);fill-opacity:0.6;fill-rule:nonzero;"/>
                        </g>
                        <g transform="matrix(1,0,0,1,109.07,216.73)">
                            <path d="M5,0C5,2.743 2.743,5 0,5C-2.743,5 -5,2.743 -5,0C-5,-2.743 -2.743,-5 -0,-5C2.743,-5 5,-2.743 5,-0Z" style="fill:rgb(99,110,250);fill-opacity:0.6;fill-rule:nonzero;"/>
                        </g>
                        <g transform="matrix(1,0,0,1,117.3,58.02)">
                            <path d="M5,0C5,2.743 2.743,5 0,5C-2.743,5 -5,2.743 -5,0C-5,-2.743 -2.743,-5 -0,-5C2.743,-5 5,-2.743 5,-0Z" style="fill:rgb(99,110,250);fill-opacity:0.6;fill-rule:nonzero;"/>
                        </g>
                        <g transform="matrix(1,0,0,1,316.44,176.84)">
                            <path d="M5,0C5,2.743 2.743,5 0,5C-2.743,5 -5,2.743 -5,0C-5,-2.743 -2.743,-5 -0,-5C2.743,-5 5,-2.743 5,-0Z" style="fill:rgb(99,110,250);fill-opacity:0.6;fill-rule:nonzero;"/>
                        </g>
                        <g transform="matrix(1,0,0,1,173.12,187.18)">
                            <path d="M5,0C5,2.743 2.743,5 0,5C-2.743,5 -5,2.743 -5,0C-5,-2.743 -2.743,-5 -0,-5C2.743,-5 5,-2.743 5,-0Z" style="fill:rgb(99,110,250);fill-opacity:0.6;fill-rule:nonzero;"/>
                        </g>
                        <g transform="matrix(1,0,0,1,360.52,279.71)">
                            <path d="M5,0C5,2.743 2.743,5 0,5C-2.743,5 -5,2.743 -5,0C-5,-2.743 -2.743,-5 -0,-5C2.743,-5 5,-2.743 5,-0Z" style="fill:rgb(99,110,250);fill-opacity:0.6;fill-rule:nonzero;"/>
                        </g>
                        <g transform="matrix(1,0,0,1,117.82,220.06)">
                            <path d="M5,0C5,2.743 2.743,5 0,5C-2.743,5 -5,2.743 -5,0C-5,-2.743 -2.743,-5 -0,-5C2.743,-5 5,-2.743 5,-0Z" style="fill:rgb(99,110,250);fill-opacity:0.6;fill-rule:nonzero;"/>
                        </g>
                        <g transform="matrix(1,0,0,1,317.47,170.02)">
                            <path d="M5,0C5,2.743 2.743,5 0,5C-2.743,5 -5,2.743 -5,0C-5,-2.743 -2.743,-5 -0,-5C2.743,-5 5,-2.743 5,-0Z" style="fill:rgb(99,110,250);fill-opacity:0.6;fill-rule:nonzero;"/>
                        </g>
                        <g transform="matrix(1,0,0,1,139.16,112.04)">
                            <path d="M5,0C5,2.743 2.743,5 0,5C-2.743,5 -5,2.743 -5,0C-5,-2.743 -2.743,-5 -0,-5C2.743,-5 5,-2.743 5,-0Z" style="fill:rgb(99,110,250);fill-opacity:0.6;fill-rule:nonzero;"/>
                        </g>
                        <g transform="matrix(1,0,0,1,133.87,198.52)">
                            <path d="M5,0C5,2.743 2.743,5 0,5C-2.743,5 -5,2.743 -5,0C-5,-2.743 -2.743,-5 -0,-5C2.743,-5 5,-2.743 5,-0Z" style="fill:rgb(99,110,250);fill-opacity:0.6;fill-rule:nonzero;"/>
                        </g>
                        <g transform="matrix(1,0,0,1,191.8,38.7)">
                            <path d="M5,0C5,2.743 2.743,5 0,5C-2.743,5 -5,2.743 -5,0C-5,-2.743 -2.743,-5 -0,-5C2.743,-5 5,-2.743 5,-0Z" style="fill:rgb(99,110,250);fill-opacity:0.6;fill-rule:nonzero;"/>
                        </g>
                        <g transform="matrix(1,0,0,1,308.14,148.31)">
                            <path d="M5,0C5,2.743 2.743,5 0,5C-2.743,5 -5,2.743 -5,0C-5,-2.743 -2.743,-5 -0,-5C2.743,-5 5,-2.743 5,-0Z" style="fill:rgb(99,110,250);fill-opacity:0.6;fill-rule:nonzero;"/>
                        </g>
                        <g transform="matrix(1,0,0,1,172.68,92.03)">
                            <path d="M5,0C5,2.743 2.743,5 0,5C-2.743,5 -5,2.743 -5,0C-5,-2.743 -2.743,-5 -0,-5C2.743,-5 5,-2.743 5,-0Z" style="fill:rgb(99,110,250);fill-opacity:0.6;fill-rule:nonzero;"/>
                        </g>
                        <g transform="matrix(1,0,0,1,328.16,152.06)">
                            <path d="M5,0C5,2.743 2.743,5 0,5C-2.743,5 -5,2.743 -5,0C-5,-2.743 -2.743,-5 -0,-5C2.743,-5 5,-2.743 5,-0Z" style="fill:rgb(99,110,250);fill-opacity:0.6;fill-rule:nonzero;"/>
                        </g>
                        <g transform="matrix(1,0,0,1,128.76,203.25)">
                            <path d="M5,0C5,2.743 2.743,5 0,5C-2.743,5 -5,2.743 -5,0C-5,-2.743 -2.743,-5 -0,-5C2.743,-5 5,-2.743 5,-0Z" style="fill:rgb(99,110,250);fill-opacity:0.6;fill-rule:nonzero;"/>
                        </g>
                        <g transform="matrix(1,0,0,1,236.98,151.15)">
                            <path d="M5,0C5,2.743 2.743,5 0,5C-2.743,5 -5,2.743 -5,0C-5,-2.743 -2.743,-5 -0,-5C2.743,-5 5,-2.743 5,-0Z" style="fill:rgb(99,110,250);fill-opacity:0.6;fill-rule:nonzero;"/>
                        </g>
                        <g transform="matrix(1,0,0,1,350.26,138.98)">
                            <path d="M5,0C5,2.743 2.743,5 0,5C-2.743,5 -5,2.743 -5,0C-5,-2.743 -2.743,-5 -0,-5C2.743,-5 5,-2.743 5,-0Z" style="fill:rgb(99,110,250);fill-opacity:0.6;fill-rule:nonzero;"/>
                        </g>
                        <g transform="matrix(1,0,0,1,144.34,64.93)">
                            <path d="M5,0C5,2.743 2.743,5 0,5C-2.743,5 -5,2.743 -5,0C-5,-2.743 -2.743,-5 -0,-5C2.743,-5 5,-2.743 5,-0Z" style="fill:rgb(99,110,250);fill-opacity:0.6;fill-rule:nonzero;"/>
                        </g>
                        <g transform="matrix(1,0,0,1,190.35,208.1)">
                            <path d="M5,0C5,2.743 2.743,5 0,5C-2.743,5 -5,2.743 -5,0C-5,-2.743 -2.743,-5 -0,-5C2.743,-5 5,-2.743 5,-0Z" style="fill:rgb(99,110,250);fill-opacity:0.6;fill-rule:nonzero;"/>
                        </g>
                        <g transform="matrix(1,0,0,1,178.63,204.21)">
                            <path d="M5,0C5,2.743 2.743,5 0,5C-2.743,5 -5,2.743 -5,0C-5,-2.743 -2.743,-5 -0,-5C2.743,-5 5,-2.743 5,-0Z" style="fill:rgb(99,110,250);fill-opacity:0.6;fill-rule:nonzero;"/>
                        </g>
                        <g transform="matrix(1,0,0,1,368.08,263.33)">
                            <path d="M5,0C5,2.743 2.743,5 0,5C-2.743,5 -5,2.743 -5,0C-5,-2.743 -2.743,-5 -0,-5C2.743,-5 5,-2.743 5,-0Z" style="fill:rgb(99,110,250);fill-opacity:0.6;fill-rule:nonzero;"/>
                        </g>
                        <g transform="matrix(1,0,0,1,431.94,286.19)">
                            <path d="M5,0C5,2.743 2.743,5 0,5C-2.743,5 -5,2.743 -5,0C-5,-2.743 -2.743,-5 -0,-5C2.743,-5 5,-2.743 5,-0Z" style="fill:rgb(99,110,250);fill-opacity:0.6;fill-rule:nonzero;"/>
                        </g>
                        <g transform="matrix(1,0,0,1,265.6,157.9)">
                            <path d="M5,0C5,2.743 2.743,5 0,5C-2.743,5 -5,2.743 -5,0C-5,-2.743 -2.743,-5 -0,-5C2.743,-5 5,-2.743 5,-0Z" style="fill:rgb(99,110,250);fill-opacity:0.6;fill-rule:nonzero;"/>
                        </g>
                        <g transform="matrix(1,0,0,1,113.92,67.69)">
                            <path d="M5,0C5,2.743 2.743,5 0,5C-2.743,5 -5,2.743 -5,0C-5,-2.743 -2.743,-5 -0,-5C2.743,-5 5,-2.743 5,-0Z" style="fill:rgb(99,110,250);fill-opacity:0.6;fill-rule:nonzero;"/>
                        </g>
                        <g transform="matrix(1,0,0,1,403.9,259.81)">
                            <path d="M5,0C5,2.743 2.743,5 0,5C-2.743,5 -5,2.743 -5,0C-5,-2.743 -2.743,-5 -0,-5C2.743,-5 5,-2.743 5,-0Z" style="fill:rgb(99,110,250);fill-opacity:0.6;fill-rule:nonzero;"/>
                        </g>
                        <g transform="matrix(1,0,0,1,371.79,264.28)">
                            <path d="M5,0C5,2.743 2.743,5 0,5C-2.743,5 -5,2.743 -5,0C-5,-2.743 -2.743,-5 -0,-5C2.743,-5 5,-2.743 5,-0Z" style="fill:rgb(99,110,250);fill-opacity:0.6;fill-rule:nonzero;"/>
                        </g>
                        <g transform="matrix(1,0,0,1,66.77,189.34)">
                            <path d="M5,0C5,2.743 2.743,5 0,5C-2.743,5 -5,2.743 -5,0C-5,-2.743 -2.743,-5 -0,-5C2.743,-5 5,-2.743 5,-0Z" style="fill:rgb(99,110,250);fill-opacity:0.6;fill-rule:nonzero;"/>
                        </g>
                        <g transform="matrix(1,0,0,1,344.02,274.9)">
                            <path d="M5,0C5,2.743 2.743,5 0,5C-2.743,5 -5,2.743 -5,0C-5,-2.743 -2.743,-5 -0,-5C2.743,-5 5,-2.743 5,-0Z" style="fill:rgb(99,110,250);fill-opacity:0.6;fill-rule:nonzero;"/>
                        </g>
                        <g transform="matrix(1,0,0,1,66.27,190.91)">
                            <path d="M5,0C5,2.743 2.743,5 0,5C-2.743,5 -5,2.743 -5,0C-5,-2.743 -2.743,-5 -0,-5C2.743,-5 5,-2.743 5,-0Z" style="fill:rgb(99,110,250);fill-opacity:0.6;fill-rule:nonzero;"/>
                        </g>
                        <g transform="matrix(1,0,0,1,266.38,191.34)">
                            <path d="M5,0C5,2.743 2.743,5 0,5C-2.743,5 -5,2.743 -5,0C-5,-2.743 -2.743,-5 -0,-5C2.743,-5 5,-2.743 5,-0Z" style="fill:rgb(99,110,250);fill-opacity:0.6;fill-rule:nonzero;"/>
                        </g>
                        <g transform="matrix(1,0,0,1,206.95,76.45)">
                            <path d="M5,0C5,2.743 2.743,5 0,5C-2.743,5 -5,2.743 -5,0C-5,-2.743 -2.743,-5 -0,-5C2.743,-5 5,-2.743 5,-0Z" style="fill:rgb(99,110,250);fill-opacity:0.6;fill-rule:nonzero;"/>
                        </g>
                        <g transform="matrix(1,0,0,1,162.6,62.77)">
                            <path d="M5,0C5,2.743 2.743,5 0,5C-2.743,5 -5,2.743 -5,0C-5,-2.743 -2.743,-5 -0,-5C2.743,-5 5,-2.743 5,-0Z" style="fill:rgb(99,110,250);fill-opacity:0.6;fill-rule:nonzero;"/>
                        </g>
                        <g transform="matrix(1,0,0,1,377.69,134.4)">
                            <path d="M5,0C5,2.743 2.743,5 0,5C-2.743,5 -5,2.743 -5,0C-5,-2.743 -2.743,-5 -0,-5C2.743,-5 5,-2.743 5,-0Z" style="fill:rgb(99,110,250);fill-opacity:0.6;fill-rule:nonzero;"/>
                        </g>
                        <g transform="matrix(1,0,0,1,303.35,161.84)">
                            <path d="M5,0C5,2.743 2.743,5 0,5C-2.743,5 -5,2.743 -5,0C-5,-2.743 -2.743,-5 -0,-5C2.743,-5 5,-2.743 5,-0Z" style="fill:rgb(99,110,250);fill-opacity:0.6;fill-rule:nonzero;"/>
                        </g>
                        <g transform="matrix(1,0,0,1,145.12,36.96)">
                            <path d="M5,0C5,2.743 2.743,5 0,5C-2.743,5 -5,2.743 -5,0C-5,-2.743 -2.743,-5 -0,-5C2.743,-5 5,-2.743 5,-0Z" style="fill:rgb(99,110,250);fill-opacity:0.6;fill-rule:nonzero;"/>
                        </g>
                        <g transform="matrix(1,0,0,1,285.16,171.05)">
                            <path d="M5,0C5,2.743 2.743,5 0,5C-2.743,5 -5,2.743 -5,0C-5,-2.743 -2.743,-5 -0,-5C2.743,-5 5,-2.743 5,-0Z" style="fill:rgb(99,110,250);fill-opacity:0.6;fill-rule:nonzero;"/>
                        </g>
                        <g transform="matrix(1,0,0,1,296.07,249.04)">
                            <path d="M5,0C5,2.743 2.743,5 0,5C-2.743,5 -5,2.743 -5,0C-5,-2.743 -2.743,-5 -0,-5C2.743,-5 5,-2.743 5,-0Z" style="fill:rgb(99,110,250);fill-opacity:0.6;fill-rule:nonzero;"/>
                        </g>
                        <g transform="matrix(1,0,0,1,163.97,196.69)">
                            <path d="M5,0C5,2.743 2.743,5 0,5C-2.743,5 -5,2.743 -5,0C-5,-2.743 -2.743,-5 -0,-5C2.743,-5 5,-2.743 5,-0Z" style="fill:rgb(99,110,250);fill-opacity:0.6;fill-rule:nonzero;"/>
                        </g>
                        <g transform="matrix(1,0,0,1,289.2,157.84)">
                            <path d="M5,0C5,2.743 2.743,5 0,5C-2.743,5 -5,2.743 -5,0C-5,-2.743 -2.743,-5 -0,-5C2.743,-5 5,-2.743 5,-0Z" style="fill:rgb(99,110,250);fill-opacity:0.6;fill-rule:nonzero;"/>
                        </g>
                        <g transform="matrix(1,0,0,1,367.49,257.04)">
                            <path d="M5,0C5,2.743 2.743,5 0,5C-2.743,5 -5,2.743 -5,0C-5,-2.743 -2.743,-5 -0,-5C2.743,-5 5,-2.743 5,-0Z" style="fill:rgb(99,110,250);fill-opacity:0.6;fill-rule:nonzero;"/>
                        </g>
                        <g transform="matrix(1,0,0,1,154.65,192.16)">
                            <path d="M5,0C5,2.743 2.743,5 0,5C-2.743,5 -5,2.743 -5,0C-5,-2.743 -2.743,-5 -0,-5C2.743,-5 5,-2.743 5,-0Z" style="fill:rgb(99,110,250);fill-opacity:0.6;fill-rule:nonzero;"/>
                        </g>
                        <g transform="matrix(1,0,0,1,165.96,33.27)">
                            <path d="M5,0C5,2.743 2.743,5 0,5C-2.743,5 -5,2.743 -5,0C-5,-2.743 -2.743,-5 -0,-5C2.743,-5 5,-2.743 5,-0Z" style="fill:rgb(99,110,250);fill-opacity:0.6;fill-rule:nonzero;"/>
                        </g>
                        <g transform="matrix(1,0,0,1,113.77,192.32)">
                            <path d="M5,0C5,2.743 2.743,5 0,5C-2.743,5 -5,2.743 -5,0C-5,-2.743 -2.743,-5 -0,-5C2.743,-5 5,-2.743 5,-0Z" style="fill:rgb(99,110,250);fill-opacity:0.6;fill-rule:nonzero;"/>
                        </g>
                        <g transform="matrix(1,0,0,1,419.81,246.93)">
                            <path d="M5,0C5,2.743 2.743,5 0,5C-2.743,5 -5,2.743 -5,0C-5,-2.743 -2.743,-5 -0,-5C2.743,-5 5,-2.743 5,-0Z" style="fill:rgb(99,110,250);fill-opacity:0.6;fill-rule:nonzero;"/>
                        </g>
                        <g transform="matrix(1,0,0,1,255.39,143.94)">
                            <path d="M5,0C5,2.743 2.743,5 0,5C-2.743,5 -5,2.743 -5,0C-5,-2.743 -2.743,-5 -0,-5C2.743,-5 5,-2.743 5,-0Z" style="fill:rgb(99,110,250);fill-opacity:0.6;fill-rule:nonzero;"/>
                        </g>
                        <g transform="matrix(1,0,0,1,462.23,252.84)">
                            <path d="M5,0C5,2.743 2.743,5 0,5C-2.743,5 -5,2.743 -5,0C-5,-2.743 -2.743,-5 -0,-5C2.743,-5 5,-2.743 5,-0Z" style="fill:rgb(99,110,250);fill-opacity:0.6;fill-rule:nonzero;"/>
                        </g>
                        <g transform="matrix(1,0,0,1,132.75,69.68)">
                            <path d="M5,0C5,2.743 2.743,5 0,5C-2.743,5 -5,2.743 -5,0C-5,-2.743 -2.743,-5 -0,-5C2.743,-5 5,-2.743 5,-0Z" style="fill:rgb(99,110,250);fill-opacity:0.6;fill-rule:nonzero;"/>
                        </g>
                        <g transform="matrix(1,0,0,1,136.09,65.5)">
                            <path d="M5,0C5,2.743 2.743,5 0,5C-2.743,5 -5,2.743 -5,0C-5,-2.743 -2.743,-5 -0,-5C2.743,-5 5,-2.743 5,-0Z" style="fill:rgb(99,110,250);fill-opacity:0.6;fill-rule:nonzero;"/>
                        </g>
                        <g transform="matrix(1,0,0,1,116.67,74.98)">
                            <path d="M5,0C5,2.743 2.743,5 0,5C-2.743,5 -5,2.743 -5,0C-5,-2.743 -2.743,-5 -0,-5C2.743,-5 5,-2.743 5,-0Z" style="fill:rgb(99,110,250);fill-opacity:0.6;fill-rule:nonzero;"/>
                        </g>
                        <g transform="matrix(1,0,0,1,125.83,58.7)">
                            <path d="M5,0C5,2.743 2.743,5 0,5C-2.743,5 -5,2.743 -5,0C-5,-2.743 -2.743,-5 -0,-5C2.743,-5 5,-2.743 5,-0Z" style="fill:rgb(99,110,250);fill-opacity:0.6;fill-rule:nonzero;"/>
                        </g>
                        <g transform="matrix(1,0,0,1,128.12,182.28)">
                            <path d="M5,0C5,2.743 2.743,5 0,5C-2.743,5 -5,2.743 -5,0C-5,-2.743 -2.743,-5 -0,-5C2.743,-5 5,-2.743 5,-0Z" style="fill:rgb(99,110,250);fill-opacity:0.6;fill-rule:nonzero;"/>
                        </g>
                        <g transform="matrix(1,0,0,1,151,194.42)">
                            <path d="M5,0C5,2.743 2.743,5 0,5C-2.743,5 -5,2.743 -5,0C-5,-2.743 -2.743,-5 -0,-5C2.743,-5 5,-2.743 5,-0Z" style="fill:rgb(99,110,250);fill-opacity:0.6;fill-rule:nonzero;"/>
                        </g>
                        <g transform="matrix(1,0,0,1,188.87,105.62)">
                            <path d="M5,0C5,2.743 2.743,5 0,5C-2.743,5 -5,2.743 -5,0C-5,-2.743 -2.743,-5 -0,-5C2.743,-5 5,-2.743 5,-0Z" style="fill:rgb(99,110,250);fill-opacity:0.6;fill-rule:nonzero;"/>
                        </g>
                        <g transform="matrix(1,0,0,1,395.92,143.22)">
                            <path d="M5,0C5,2.743 2.743,5 0,5C-2.743,5 -5,2.743 -5,0C-5,-2.743 -2.743,-5 -0,-5C2.743,-5 5,-2.743 5,-0Z" style="fill:rgb(99,110,250);fill-opacity:0.6;fill-rule:nonzero;"/>
                        </g>
                        <g transform="matrix(1,0,0,1,135.69,194.11)">
                            <path d="M5,0C5,2.743 2.743,5 0,5C-2.743,5 -5,2.743 -5,0C-5,-2.743 -2.743,-5 -0,-5C2.743,-5 5,-2.743 5,-0Z" style="fill:rgb(99,110,250);fill-opacity:0.6;fill-rule:nonzero;"/>
                        </g>
                        <g transform="matrix(1,0,0,1,335.35,258.89)">
                            <path d="M5,0C5,2.743 2.743,5 0,5C-2.743,5 -5,2.743 -5,0C-5,-2.743 -2.743,-5 -0,-5C2.743,-5 5,-2.743 5,-0Z" style="fill:rgb(99,110,250);fill-opacity:0.6;fill-rule:nonzero;"/>
                        </g>
                        <g transform="matrix(1,0,0,1,271.05,149.89)">
                            <path d="M5,0C5,2.743 2.743,5 0,5C-2.743,5 -5,2.743 -5,0C-5,-2.743 -2.743,-5 -0,-5C2.743,-5 5,-2.743 5,-0Z" style="fill:rgb(99,110,250);fill-opacity:0.6;fill-rule:nonzero;"/>
                        </g>
                        <g transform="matrix(1,0,0,1,117.32,186.55)">
                            <path d="M5,0C5,2.743 2.743,5 0,5C-2.743,5 -5,2.743 -5,0C-5,-2.743 -2.743,-5 -0,-5C2.743,-5 5,-2.743 5,-0Z" style="fill:rgb(99,110,250);fill-opacity:0.6;fill-rule:nonzero;"/>
                        </g>
                        <g transform="matrix(1,0,0,1,109.22,169.46)">
                            <path d="M5,0C5,2.743 2.743,5 0,5C-2.743,5 -5,2.743 -5,0C-5,-2.743 -2.743,-5 -0,-5C2.743,-5 5,-2.743 5,-0Z" style="fill:rgb(99,110,250);fill-opacity:0.6;fill-rule:nonzero;"/>
                        </g>
                        <g transform="matrix(1,0,0,1,196.51,168.47)">
                            <path d="M5,0C5,2.743 2.743,5 0,5C-2.743,5 -5,2.743 -5,0C-5,-2.743 -2.743,-5 -0,-5C2.743,-5 5,-2.743 5,-0Z" style="fill:rgb(99,110,250);fill-opacity:0.6;fill-rule:nonzero;"/>
                        </g>
                        <g transform="matrix(1,0,0,1,371.2,271.36)">
                            <path d="M5,0C5,2.743 2.743,5 0,5C-2.743,5 -5,2.743 -5,0C-5,-2.743 -2.743,-5 -0,-5C2.743,-5 5,-2.743 5,-0Z" style="fill:rgb(99,110,250);fill-opacity:0.6;fill-rule:nonzero;"/>
                        </g>
                        <g transform="matrix(1,0,0,1,378.96,248.32)">
                            <path d="M5,0C5,2.743 2.743,5 0,5C-2.743,5 -5,2.743 -5,0C-5,-2.743 -2.743,-5 -0,-5C2.743,-5 5,-2.743 5,-0Z" style="fill:rgb(99,110,250);fill-opacity:0.6;fill-rule:nonzero;"/>
                        </g>
                        <g transform="matrix(1,0,0,1,146.67,63.74)">
                            <path d="M5,0C5,2.743 2.743,5 0,5C-2.743,5 -5,2.743 -5,0C-5,-2.743 -2.743,-5 -0,-5C2.743,-5 5,-2.743 5,-0Z" style="fill:rgb(99,110,250);fill-opacity:0.6;fill-rule:nonzero;"/>
                        </g>
                        <g transform="matrix(1,0,0,1,297.45,152)">
                            <path d="M5,0C5,2.743 2.743,5 0,5C-2.743,5 -5,2.743 -5,0C-5,-2.743 -2.743,-5 -0,-5C2.743,-5 5,-2.743 5,-0Z" style="fill:rgb(99,110,250);fill-opacity:0.6;fill-rule:nonzero;"/>
                        </g>
                        <g transform="matrix(1,0,0,1,259.13,141.41)">
                            <path d="M5,0C5,2.743 2.743,5 0,5C-2.743,5 -5,2.743 -5,0C-5,-2.743 -2.743,-5 -0,-5C2.743,-5 5,-2.743 5,-0Z" style="fill:rgb(99,110,250);fill-opacity:0.6;fill-rule:nonzero;"/>
                        </g>
                        <g transform="matrix(1,0,0,1,94.55,183.26)">
                            <path d="M5,0C5,2.743 2.743,5 0,5C-2.743,5 -5,2.743 -5,0C-5,-2.743 -2.743,-5 -0,-5C2.743,-5 5,-2.743 5,-0Z" style="fill:rgb(99,110,250);fill-opacity:0.6;fill-rule:nonzero;"/>
                        </g>
                        <g transform="matrix(1,0,0,1,327.31,259.34)">
                            <path d="M5,0C5,2.743 2.743,5 0,5C-2.743,5 -5,2.743 -5,0C-5,-2.743 -2.743,-5 -0,-5C2.743,-5 5,-2.743 5,-0Z" style="fill:rgb(99,110,250);fill-opacity:0.6;fill-rule:nonzero;"/>
                        </g>
                        <g transform="matrix(1,0,0,1,199.4,53.78)">
                            <path d="M5,0C5,2.743 2.743,5 0,5C-2.743,5 -5,2.743 -5,0C-5,-2.743 -2.743,-5 -0,-5C2.743,-5 5,-2.743 5,-0Z" style="fill:rgb(99,110,250);fill-opacity:0.6;fill-rule:nonzero;"/>
                        </g>
                        <g transform="matrix(1,0,0,1,170.73,192.2)">
                            <path d="M5,0C5,2.743 2.743,5 0,5C-2.743,5 -5,2.743 -5,0C-5,-2.743 -2.743,-5 -0,-5C2.743,-5 5,-2.743 5,-0Z" style="fill:rgb(99,110,250);fill-opacity:0.6;fill-rule:nonzero;"/>
                        </g>
                        <g transform="matrix(1,0,0,1,335.77,170.97)">
                            <path d="M5,0C5,2.743 2.743,5 0,5C-2.743,5 -5,2.743 -5,0C-5,-2.743 -2.743,-5 -0,-5C2.743,-5 5,-2.743 5,-0Z" style="fill:rgb(99,110,250);fill-opacity:0.6;fill-rule:nonzero;"/>
                        </g>
                        <g transform="matrix(1,0,0,1,198.12,65.79)">
                            <path d="M5,0C5,2.743 2.743,5 0,5C-2.743,5 -5,2.743 -5,0C-5,-2.743 -2.743,-5 -0,-5C2.743,-5 5,-2.743 5,-0Z" style="fill:rgb(99,110,250);fill-opacity:0.6;fill-rule:nonzero;"/>
                        </g>
                        <g transform="matrix(1,0,0,1,284.3,128.34)">
                            <path d="M5,0C5,2.743 2.743,5 0,5C-2.743,5 -5,2.743 -5,0C-5,-2.743 -2.743,-5 -0,-5C2.743,-5 5,-2.743 5,-0Z" style="fill:rgb(99,110,250);fill-opacity:0.6;fill-rule:nonzero;"/>
                        </g>
                        <g transform="matrix(1,0,0,1,376.63,242.55)">
                            <path d="M5,0C5,2.743 2.743,5 0,5C-2.743,5 -5,2.743 -5,0C-5,-2.743 -2.743,-5 -0,-5C2.743,-5 5,-2.743 5,-0Z" style="fill:rgb(99,110,250);fill-opacity:0.6;fill-rule:nonzero;"/>
                        </g>
                        <g transform="matrix(1,0,0,1,316.36,260.26)">
                            <path d="M5,0C5,2.743 2.743,5 0,5C-2.743,5 -5,2.743 -5,0C-5,-2.743 -2.743,-5 -0,-5C2.743,-5 5,-2.743 5,-0Z" style="fill:rgb(99,110,250);fill-opacity:0.6;fill-rule:nonzero;"/>
                        </g>
                        <g transform="matrix(1,0,0,1,69.06,190.38)">
                            <path d="M5,0C5,2.743 2.743,5 0,5C-2.743,5 -5,2.743 -5,0C-5,-2.743 -2.743,-5 -0,-5C2.743,-5 5,-2.743 5,-0Z" style="fill:rgb(99,110,250);fill-opacity:0.6;fill-rule:nonzero;"/>
                        </g>
                        <g transform="matrix(1,0,0,1,107.81,210.13)">
                            <path d="M5,0C5,2.743 2.743,5 0,5C-2.743,5 -5,2.743 -5,0C-5,-2.743 -2.743,-5 -0,-5C2.743,-5 5,-2.743 5,-0Z" style="fill:rgb(99,110,250);fill-opacity:0.6;fill-rule:nonzero;"/>
                        </g>
                        <g transform="matrix(1,0,0,1,391.43,182.68)">
                            <path d="M5,0C5,2.743 2.743,5 0,5C-2.743,5 -5,2.743 -5,0C-5,-2.743 -2.743,-5 -0,-5C2.743,-5 5,-2.743 5,-0Z" style="fill:rgb(99,110,250);fill-opacity:0.6;fill-rule:nonzero;"/>
                        </g>
                        <g transform="matrix(1,0,0,1,458.43,230.16)">
                            <path d="M5,0C5,2.743 2.743,5 0,5C-2.743,5 -5,2.743 -5,0C-5,-2.743 -2.743,-5 -0,-5C2.743,-5 5,-2.743 5,-0Z" style="fill:rgb(99,110,250);fill-opacity:0.6;fill-rule:nonzero;"/>
                        </g>
                        <g transform="matrix(1,0,0,1,358.74,274.76)">
                            <path d="M5,0C5,2.743 2.743,5 0,5C-2.743,5 -5,2.743 -5,0C-5,-2.743 -2.743,-5 -0,-5C2.743,-5 5,-2.743 5,-0Z" style="fill:rgb(99,110,250);fill-opacity:0.6;fill-rule:nonzero;"/>
                        </g>
                        <g transform="matrix(1,0,0,1,324.23,238.25)">
                            <path d="M5,0C5,2.743 2.743,5 0,5C-2.743,5 -5,2.743 -5,0C-5,-2.743 -2.743,-5 -0,-5C2.743,-5 5,-2.743 5,-0Z" style="fill:rgb(99,110,250);fill-opacity:0.6;fill-rule:nonzero;"/>
                        </g>
                        <g transform="matrix(1,0,0,1,375.5,143.85)">
                            <path d="M5,0C5,2.743 2.743,5 0,5C-2.743,5 -5,2.743 -5,0C-5,-2.743 -2.743,-5 -0,-5C2.743,-5 5,-2.743 5,-0Z" style="fill:rgb(99,110,250);fill-opacity:0.6;fill-rule:nonzero;"/>
                        </g>
                        <g transform="matrix(1,0,0,1,155.05,53.27)">
                            <path d="M5,0C5,2.743 2.743,5 0,5C-2.743,5 -5,2.743 -5,0C-5,-2.743 -2.743,-5 -0,-5C2.743,-5 5,-2.743 5,-0Z" style="fill:rgb(99,110,250);fill-opacity:0.6;fill-rule:nonzero;"/>
                        </g>
                        <g transform="matrix(1,0,0,1,114.39,63.21)">
                            <path d="M5,0C5,2.743 2.743,5 0,5C-2.743,5 -5,2.743 -5,0C-5,-2.743 -2.743,-5 -0,-5C2.743,-5 5,-2.743 5,-0Z" style="fill:rgb(99,110,250);fill-opacity:0.6;fill-rule:nonzero;"/>
                        </g>
                        <g transform="matrix(1,0,0,1,418.39,234.38)">
                            <path d="M5,0C5,2.743 2.743,5 0,5C-2.743,5 -5,2.743 -5,0C-5,-2.743 -2.743,-5 -0,-5C2.743,-5 5,-2.743 5,-0Z" style="fill:rgb(99,110,250);fill-opacity:0.6;fill-rule:nonzero;"/>
                        </g>
                        <g transform="matrix(1,0,0,1,409.23,246.9)">
                            <path d="M5,0C5,2.743 2.743,5 0,5C-2.743,5 -5,2.743 -5,0C-5,-2.743 -2.743,-5 -0,-5C2.743,-5 5,-2.743 5,-0Z" style="fill:rgb(99,110,250);fill-opacity:0.6;fill-rule:nonzero;"/>
                        </g>
                        <g transform="matrix(1,0,0,1,346.66,179.07)">
                            <path d="M5,0C5,2.743 2.743,5 0,5C-2.743,5 -5,2.743 -5,0C-5,-2.743 -2.743,-5 -0,-5C2.743,-5 5,-2.743 5,-0Z" style="fill:rgb(99,110,250);fill-opacity:0.6;fill-rule:nonzero;"/>
                        </g>
                        <g transform="matrix(1,0,0,1,392.31,254.05)">
                            <path d="M5,0C5,2.743 2.743,5 0,5C-2.743,5 -5,2.743 -5,0C-5,-2.743 -2.743,-5 -0,-5C2.743,-5 5,-2.743 5,-0Z" style="fill:rgb(99,110,250);fill-opacity:0.6;fill-rule:nonzero;"/>
                        </g>
                        <g transform="matrix(1,0,0,1,383.84,253.76)">
                            <path d="M5,0C5,2.743 2.743,5 0,5C-2.743,5 -5,2.743 -5,0C-5,-2.743 -2.743,-5 -0,-5C2.743,-5 5,-2.743 5,-0Z" style="fill:rgb(99,110,250);fill-opacity:0.6;fill-rule:nonzero;"/>
                        </g>
                        <g transform="matrix(1,0,0,1,450.22,245.72)">
                            <path d="M5,0C5,2.743 2.743,5 0,5C-2.743,5 -5,2.743 -5,0C-5,-2.743 -2.743,-5 -0,-5C2.743,-5 5,-2.743 5,-0Z" style="fill:rgb(99,110,250);fill-opacity:0.6;fill-rule:nonzero;"/>
                        </g>
                        <g transform="matrix(1,0,0,1,134.21,78.04)">
                            <path d="M5,0C5,2.743 2.743,5 0,5C-2.743,5 -5,2.743 -5,0C-5,-2.743 -2.743,-5 -0,-5C2.743,-5 5,-2.743 5,-0Z" style="fill:rgb(99,110,250);fill-opacity:0.6;fill-rule:nonzero;"/>
                        </g>
                        <g transform="matrix(1,0,0,1,194.39,182.73)">
                            <path d="M5,0C5,2.743 2.743,5 0,5C-2.743,5 -5,2.743 -5,0C-5,-2.743 -2.743,-5 -0,-5C2.743,-5 5,-2.743 5,-0Z" style="fill:rgb(99,110,250);fill-opacity:0.6;fill-rule:nonzero;"/>
                        </g>
                        <g transform="matrix(1,0,0,1,149.51,43.3)">
                            <path d="M5,0C5,2.743 2.743,5 0,5C-2.743,5 -5,2.743 -5,0C-5,-2.743 -2.743,-5 -0,-5C2.743,-5 5,-2.743 5,-0Z" style="fill:rgb(99,110,250);fill-opacity:0.6;fill-rule:nonzero;"/>
                        </g>
                        <g transform="matrix(1,0,0,1,297.64,169.67)">
                            <path d="M5,0C5,2.743 2.743,5 0,5C-2.743,5 -5,2.743 -5,0C-5,-2.743 -2.743,-5 -0,-5C2.743,-5 5,-2.743 5,-0Z" style="fill:rgb(99,110,250);fill-opacity:0.6;fill-rule:nonzero;"/>
                        </g>
                        <g transform="matrix(1,0,0,1,388.56,297.75)">
                            <path d="M5,0C5,2.743 2.743,5 0,5C-2.743,5 -5,2.743 -5,0C-5,-2.743 -2.743,-5 -0,-5C2.743,-5 5,-2.743 5,-0Z" style="fill:rgb(99,110,250);fill-opacity:0.6;fill-rule:nonzero;"/>
                        </g>
                        <g transform="matrix(1,0,0,1,356.94,246.05)">
                            <path d="M5,0C5,2.743 2.743,5 0,5C-2.743,5 -5,2.743 -5,0C-5,-2.743 -2.743,-5 -0,-5C2.743,-5 5,-2.743 5,-0Z" style="fill:rgb(99,110,250);fill-opacity:0.6;fill-rule:nonzero;"/>
                        </g>
                        <g transform="matrix(1,0,0,1,163.16,81.81)">
                            <path d="M5,0C5,2.743 2.743,5 0,5C-2.743,5 -5,2.743 -5,0C-5,-2.743 -2.743,-5 -0,-5C2.743,-5 5,-2.743 5,-0Z" style="fill:rgb(99,110,250);fill-opacity:0.6;fill-rule:nonzero;"/>
                        </g>
                        <g transform="matrix(1,0,0,1,127.85,40.58)">
                            <path d="M5,0C5,2.743 2.743,5 0,5C-2.743,5 -5,2.743 -5,0C-5,-2.743 -2.743,-5 -0,-5C2.743,-5 5,-2.743 5,-0Z" style="fill:rgb(99,110,250);fill-opacity:0.6;fill-rule:nonzero;"/>
                        </g>
                        <g transform="matrix(1,0,0,1,152.89,58.31)">
                            <path d="M5,0C5,2.743 2.743,5 0,5C-2.743,5 -5,2.743 -5,0C-5,-2.743 -2.743,-5 -0,-5C2.743,-5 5,-2.743 5,-0Z" style="fill:rgb(99,110,250);fill-opacity:0.6;fill-rule:nonzero;"/>
                        </g>
                        <g transform="matrix(1,0,0,1,367.37,233.44)">
                            <path d="M5,0C5,2.743 2.743,5 0,5C-2.743,5 -5,2.743 -5,0C-5,-2.743 -2.743,-5 -0,-5C2.743,-5 5,-2.743 5,-0Z" style="fill:rgb(99,110,250);fill-opacity:0.6;fill-rule:nonzero;"/>
                        </g>
                        <g transform="matrix(1,0,0,1,403.32,238.6)">
                            <path d="M5,0C5,2.743 2.743,5 0,5C-2.743,5 -5,2.743 -5,0C-5,-2.743 -2.743,-5 -0,-5C2.743,-5 5,-2.743 5,-0Z" style="fill:rgb(99,110,250);fill-opacity:0.6;fill-rule:nonzero;"/>
                        </g>
                        <g transform="matrix(1,0,0,1,266.07,152.39)">
                            <path d="M5,0C5,2.743 2.743,5 0,5C-2.743,5 -5,2.743 -5,0C-5,-2.743 -2.743,-5 -0,-5C2.743,-5 5,-2.743 5,-0Z" style="fill:rgb(99,110,250);fill-opacity:0.6;fill-rule:nonzero;"/>
                        </g>
                        <g transform="matrix(1,0,0,1,261.48,63.15)">
                            <path d="M5,0C5,2.743 2.743,5 0,5C-2.743,5 -5,2.743 -5,0C-5,-2.743 -2.743,-5 -0,-5C2.743,-5 5,-2.743 5,-0Z" style="fill:rgb(99,110,250);fill-opacity:0.6;fill-rule:nonzero;"/>
                        </g>
                        <g transform="matrix(1,0,0,1,118.85,201.37)">
                            <path d="M5,0C5,2.743 2.743,5 0,5C-2.743,5 -5,2.743 -5,0C-5,-2.743 -2.743,-5 -0,-5C2.743,-5 5,-2.743 5,-0Z" style="fill:rgb(99,110,250);fill-opacity:0.6;fill-rule:nonzero;"/>
                        </g>
                    </g>
                </g>
                <g>
                    <g>
                        <g transform="matrix(1,0,0,1,367.96,252.96)">
                            <path d="M10,0C10,5.486 5.486,10 0,10C-5.486,10 -10,5.486 -10,0C-10,-5.486 -5.486,-10 -0,-10C5.486,-10 10,-5.486 10,-0Z" style="fill:rgb(239,85,59);fill-opacity:0.8;fill-rule:nonzero;"/>
                        </g>
                        <g transform="matrix(1,0,0,1,299.79,155.6)">
                            <path d="M10,0C10,5.486 5.486,10 0,10C-5.486,10 -10,5.486 -10,0C-10,-5.486 -5.486,-10 -0,-10C5.486,-10 10,-5.486 10,-0Z" style="fill:rgb(239,85,59);fill-opacity:0.8;fill-rule:nonzero;"/>
                        </g>
                        <g transform="matrix(1,0,0,1,146.46,64.18)">
                            <path d="M10,0C10,5.486 5.486,10 0,10C-5.486,10 -10,5.486 -10,0C-10,-5.486 -5.486,-10 -0,-10C5.486,-10 10,-5.486 10,-0Z" style="fill:rgb(239,85,59);fill-opacity:0.8;fill-rule:nonzero;"/>
                        </g>
                        <g transform="matrix(1,0,0,1,132.52,199.14)">
                            <path d="M10,0C10,5.486 5.486,10 0,10C-5.486,10 -10,5.486 -10,0C-10,-5.486 -5.486,-10 -0,-10C5.486,-10 10,-5.486 10,-0Z" style="fill:rgb(239,85,59);fill-opacity:0.8;fill-rule:nonzero;"/>
                        </g>
                    </g>
                </g>
            </g>
        </g>
        <g>
            <g transform="matrix(1,0,0,1,185.09,433)">
                <text x="-8.566px" y="0px" style="font-family:'LucidaGrande', 'Lucida Grande', sans-serif;font-weight:500;font-size:12px;fill:rgb(42,63,95);">2</text>
            </g>
            <g transform="matrix(1,0,0,1,317.1,433)">
                <text x="-3.794px" y="0px" style="font-family:'LucidaGrande', 'Lucida Grande', sans-serif;font-weight:500;font-size:12px;fill:rgb(42,63,95);">0</text>
            </g>
            <g transform="matrix(1,0,0,1,449.11,433)">
                <text x="-3.794px" y="0px" style="font-family:'LucidaGrande', 'Lucida Grande', sans-serif;font-weight:500;font-size:12px;fill:rgb(42,63,95);">2</text>
            </g>
        </g>
        <g>
            <g transform="matrix(1,0,0,1,79,380.95)">
                <text x="-7.588px" y="0px" style="font-family:'LucidaGrande', 'Lucida Grande', sans-serif;font-weight:500;font-size:12px;fill:rgb(42,63,95);">0</text>
            </g>
            <g transform="matrix(1,0,0,1,79,326.12)">
                <text x="-7.588px" y="0px" style="font-family:'LucidaGrande', 'Lucida Grande', sans-serif;font-weight:500;font-size:12px;fill:rgb(42,63,95);">2</text>
            </g>
            <g transform="matrix(1,0,0,1,79,271.29)">
                <text x="-7.588px" y="0px" style="font-family:'LucidaGrande', 'Lucida Grande', sans-serif;font-weight:500;font-size:12px;fill:rgb(42,63,95);">4</text>
            </g>
            <g transform="matrix(1,0,0,1,79,216.46)">
                <text x="-7.588px" y="0px" style="font-family:'LucidaGrande', 'Lucida Grande', sans-serif;font-weight:500;font-size:12px;fill:rgb(42,63,95);">6</text>
            </g>
            <g transform="matrix(1,0,0,1,79,161.62)">
                <text x="-7.588px" y="0px" style="font-family:'LucidaGrande', 'Lucida Grande', sans-serif;font-weight:500;font-size:12px;fill:rgb(42,63,95);">8</text>
            </g>
            <g transform="matrix(1,0,0,1,79,106.79)">
                <text x="-15.176px" y="0px" style="font-family:'LucidaGrande', 'Lucida Grande', sans-serif;font-weight:500;font-size:12px;fill:rgb(42,63,95);">10</text>
            </g>
        </g>
    </g>
    <g transform="matrix(1,0,0,1,525.449,14.7791)">
        <rect x="0" y="0" width="103" height="48" style="fill:white;"/>
        <g>
            <g>
                <g transform="matrix(1,0,0,1,0,14.5)">
                    <g transform="matrix(1,0,0,1,40,4.68)">
                        <text x="0px" y="0px" style="font-family:'LucidaGrande', 'Lucida Grande', sans-serif;font-weight:500;font-size:12px;fill:rgb(42,63,95);">Points</text>
                    </g>
                    <g transform="matrix(1,0,0,1,20,0)">
                        <g>
                            <g>
                                <path d="M5,0C5,2.743 2.743,5 0,5C-2.743,5 -5,2.743 -5,0C-5,-2.743 -2.743,-5 -0,-5C2.743,-5 5,-2.743 5,-0Z" style="fill:rgb(99,110,250);fill-opacity:0.6;fill-rule:nonzero;"/>
                            </g>
                        </g>
                    </g>
                    <rect x="0" y="-9.5" width="97.281" height="19" style="fill-opacity:0;"/>
                </g>
                <g transform="matrix(1,0,0,1,0,33.5)">
                    <g transform="matrix(1,0,0,1,40,4.68)">
                        <text x="0px" y="0px" style="font-family:'LucidaGrande', 'Lucida Grande', sans-serif;font-weight:500;font-size:12px;fill:rgb(42,63,95);">Centroids</text>
                    </g>
                    <g transform="matrix(1,0,0,1,20,0)">
                        <g>
                            <g>
                                <path d="M8,0C8,4.389 4.389,8 0,8C-4.389,8 -8,4.389 -8,0C-8,-4.389 -4.389,-8 -0,-8C4.389,-8 8,-4.389 8,-0Z" style="fill:rgb(239,85,59);fill-opacity:0.8;fill-rule:nonzero;"/>
                            </g>
                        </g>
                    </g>
                    <rect x="0" y="-9.5" width="97.281" height="19" style="fill-opacity:0;"/>
                </g>
            </g>
        </g>
    </g>
</svg>
