<svg width="583" height="585" viewBox="0 0 583 585" fill="none" xmlns="http://www.w3.org/2000/svg">
<circle cx="132.5" cy="428.5" r="12.5" fill="#6D597A"/>
<circle cx="144.5" cy="375.5" r="12.5" fill="#6D597A"/>
<circle cx="181.5" cy="415.5" r="12.5" fill="#6D597A"/>
<circle cx="408.5" cy="400.5" r="12.5" fill="#588B8B"/>
<circle cx="453.5" cy="425.5" r="12.5" fill="#588B8B"/>
<circle cx="496.5" cy="438.5" r="12.5" fill="#588B8B"/>
<circle cx="194.5" cy="127.5" r="12.5" fill="#018EAD"/>
<circle cx="206.5" cy="74.5" r="12.5" fill="#018EAD"/>
<circle cx="243.5" cy="114.5" r="12.5" fill="#018EAD"/>
<circle cx="168.5" cy="463.5" r="12.5" fill="#6D597A"/>
<circle cx="332.5" cy="306.5" r="12.5" fill="#B56576"/>
<circle cx="270.5" cy="308.5" r="12.5" fill="#B56576"/>
<circle cx="301.5" cy="320.5" r="12.5" fill="#B56576"/>
<circle cx="314.5" cy="281.5" r="12.5" fill="#B56576"/>
<circle cx="283.5" cy="281.5" r="12.5" fill="#B56576"/>
<circle cx="507.5" cy="381.5" r="12.5" fill="#588B8B"/>
<circle cx="445.5" cy="383.5" r="12.5" fill="#588B8B"/>
<circle cx="476.5" cy="395.5" r="12.5" fill="#588B8B"/>
<circle cx="489.5" cy="356.5" r="12.5" fill="#588B8B"/>
<circle cx="458.5" cy="356.5" r="12.5" fill="#588B8B"/>
<circle cx="132.5" cy="166.5" r="12.5" fill="#018EAD"/>
<circle cx="156.5" cy="113.5" r="12.5" fill="#018EAD"/>
<circle cx="181.5" cy="166.5" r="12.5" fill="#018EAD"/>
<path d="M49.0607 0.93934C48.4749 0.353553 47.5251 0.353553 46.9393 0.93934L37.3934 10.4853C36.8076 11.0711 36.8076 12.0208 37.3934 12.6066C37.9792 13.1924 38.9289 13.1924 39.5147 12.6066L48 4.12132L56.4853 12.6066C57.0711 13.1924 58.0208 13.1924 58.6066 12.6066C59.1924 12.0208 59.1924 11.0711 58.6066 10.4853L49.0607 0.93934ZM46.5 535C46.5 535.828 47.1716 536.5 48 536.5C48.8284 536.5 49.5 535.828 49.5 535H46.5ZM46.5 2L46.5 535H49.5L49.5 2H46.5Z" fill="black"/>
<path d="M48 533.5C47.1716 533.5 46.5 534.172 46.5 535C46.5 535.828 47.1716 536.5 48 536.5V533.5ZM582.061 536.061C582.646 535.475 582.646 534.525 582.061 533.939L572.515 524.393C571.929 523.808 570.979 523.808 570.393 524.393C569.808 524.979 569.808 525.929 570.393 526.515L578.879 535L570.393 543.485C569.808 544.071 569.808 545.021 570.393 545.607C570.979 546.192 571.929 546.192 572.515 545.607L582.061 536.061ZM48 536.5H581V533.5H48V536.5Z" fill="black"/>
<path d="M407.637 562.92L410.541 554.928H410.589L413.445 562.92H407.637ZM409.341 552.864L402.668 570H404.997L406.917 564.84H414.165L416.036 570H418.557L411.861 552.864H409.341ZM422.743 557.592V553.872H420.703V557.592H418.591V559.392H420.703V567.288C420.703 567.864 420.759 568.328 420.871 568.68C420.983 569.032 421.151 569.304 421.375 569.496C421.615 569.688 421.919 569.824 422.287 569.904C422.671 569.968 423.127 570 423.655 570H425.215V568.2H424.279C423.959 568.2 423.695 568.192 423.487 568.176C423.295 568.144 423.143 568.088 423.031 568.008C422.919 567.928 422.839 567.816 422.791 567.672C422.759 567.528 422.743 567.336 422.743 567.096V559.392H425.215V557.592H422.743ZM427.409 557.592V570H429.449V564.48C429.449 563.68 429.529 562.976 429.689 562.368C429.849 561.744 430.105 561.216 430.457 560.784C430.809 560.352 431.273 560.024 431.849 559.8C432.425 559.576 433.121 559.464 433.937 559.464V557.304C432.833 557.272 431.921 557.496 431.201 557.976C430.481 558.456 429.873 559.2 429.377 560.208H429.329V557.592H427.409ZM437.634 555.36V552.864H435.594V555.36H437.634ZM435.594 557.592V570H437.634V557.592H435.594ZM440.866 552.864V570H442.906V568.344H442.954C443.178 568.712 443.45 569.024 443.77 569.28C444.106 569.52 444.458 569.712 444.826 569.856C445.194 570 445.562 570.104 445.93 570.168C446.314 570.232 446.658 570.264 446.962 570.264C447.906 570.264 448.73 570.096 449.434 569.76C450.154 569.424 450.746 568.968 451.21 568.392C451.69 567.8 452.042 567.112 452.266 566.328C452.506 565.544 452.626 564.712 452.626 563.832C452.626 562.952 452.506 562.12 452.266 561.336C452.026 560.552 451.666 559.864 451.186 559.272C450.722 558.664 450.13 558.184 449.41 557.832C448.706 557.48 447.874 557.304 446.914 557.304C446.05 557.304 445.258 557.464 444.538 557.784C443.818 558.088 443.29 558.584 442.954 559.272H442.906V552.864H440.866ZM450.466 563.688C450.466 564.296 450.402 564.888 450.274 565.464C450.146 566.04 449.938 566.552 449.65 567C449.362 567.448 448.978 567.808 448.498 568.08C448.034 568.352 447.45 568.488 446.746 568.488C446.042 568.488 445.442 568.36 444.946 568.104C444.45 567.832 444.042 567.48 443.722 567.048C443.418 566.616 443.194 566.12 443.05 565.56C442.906 564.984 442.834 564.392 442.834 563.784C442.834 563.208 442.898 562.64 443.026 562.08C443.17 561.52 443.394 561.024 443.698 560.592C444.002 560.144 444.394 559.784 444.874 559.512C445.354 559.24 445.938 559.104 446.626 559.104C447.282 559.104 447.85 559.232 448.33 559.488C448.826 559.744 449.226 560.088 449.53 560.52C449.85 560.952 450.082 561.448 450.226 562.008C450.386 562.552 450.466 563.112 450.466 563.688ZM465.292 570V557.592H463.252V564.6C463.252 565.16 463.172 565.68 463.012 566.16C462.868 566.624 462.644 567.032 462.34 567.384C462.036 567.736 461.652 568.008 461.188 568.2C460.74 568.392 460.204 568.488 459.58 568.488C458.796 568.488 458.18 568.264 457.732 567.816C457.284 567.368 457.06 566.76 457.06 565.992V557.592H455.02V565.752C455.02 566.424 455.084 567.04 455.212 567.6C455.356 568.144 455.596 568.616 455.932 569.016C456.268 569.416 456.708 569.728 457.252 569.952C457.796 570.16 458.476 570.264 459.292 570.264C460.204 570.264 460.996 570.088 461.668 569.736C462.34 569.368 462.892 568.8 463.324 568.032H463.372V570H465.292ZM471.188 557.592V553.872H469.148V557.592H467.036V559.392H469.148V567.288C469.148 567.864 469.204 568.328 469.316 568.68C469.428 569.032 469.596 569.304 469.82 569.496C470.06 569.688 470.364 569.824 470.732 569.904C471.116 569.968 471.572 570 472.1 570H473.66V568.2H472.724C472.404 568.2 472.14 568.192 471.932 568.176C471.74 568.144 471.588 568.088 471.476 568.008C471.364 567.928 471.284 567.816 471.236 567.672C471.204 567.528 471.188 567.336 471.188 567.096V559.392H473.66V557.592H471.188ZM477.415 563.808C477.415 563.056 477.511 562.392 477.703 561.816C477.911 561.224 478.191 560.728 478.543 560.328C478.895 559.928 479.303 559.624 479.767 559.416C480.247 559.208 480.751 559.104 481.279 559.104C481.807 559.104 482.303 559.208 482.767 559.416C483.247 559.624 483.663 559.928 484.015 560.328C484.367 560.728 484.639 561.224 484.831 561.816C485.039 562.392 485.143 563.056 485.143 563.808C485.143 564.56 485.039 565.232 484.831 565.824C484.639 566.4 484.367 566.888 484.015 567.288C483.663 567.672 483.247 567.968 482.767 568.176C482.303 568.384 481.807 568.488 481.279 568.488C480.751 568.488 480.247 568.384 479.767 568.176C479.303 567.968 478.895 567.672 478.543 567.288C478.191 566.888 477.911 566.4 477.703 565.824C477.511 565.232 477.415 564.56 477.415 563.808ZM475.255 563.808C475.255 564.72 475.383 565.568 475.639 566.352C475.895 567.136 476.279 567.824 476.791 568.416C477.303 568.992 477.935 569.448 478.687 569.784C479.439 570.104 480.303 570.264 481.279 570.264C482.271 570.264 483.135 570.104 483.871 569.784C484.623 569.448 485.255 568.992 485.767 568.416C486.279 567.824 486.663 567.136 486.919 566.352C487.175 565.568 487.303 564.72 487.303 563.808C487.303 562.896 487.175 562.048 486.919 561.264C486.663 560.464 486.279 559.776 485.767 559.2C485.255 558.608 484.623 558.144 483.871 557.808C483.135 557.472 482.271 557.304 481.279 557.304C480.303 557.304 479.439 557.472 478.687 557.808C477.935 558.144 477.303 558.608 476.791 559.2C476.279 559.776 475.895 560.464 475.639 561.264C475.383 562.048 475.255 562.896 475.255 563.808ZM503.396 570V552.984H501.836C501.724 553.624 501.516 554.152 501.212 554.568C500.908 554.984 500.532 555.312 500.084 555.552C499.652 555.792 499.164 555.96 498.62 556.056C498.076 556.136 497.516 556.176 496.94 556.176V557.808H501.356V570H503.396Z" fill="black"/>
<path d="M25.92 457.363L17.928 454.459V454.411L25.92 451.555V457.363ZM15.864 455.659L33 462.332V460.003L27.84 458.083V450.835L33 448.964V446.443L15.864 453.139V455.659ZM20.592 442.257H16.872V444.297H20.592V446.409H22.392V444.297H30.288C30.864 444.297 31.328 444.241 31.68 444.129C32.032 444.017 32.304 443.849 32.496 443.625C32.688 443.385 32.824 443.081 32.904 442.713C32.968 442.329 33 441.873 33 441.345V439.785H31.2V440.721C31.2 441.041 31.192 441.305 31.176 441.513C31.144 441.705 31.088 441.857 31.008 441.969C30.928 442.081 30.816 442.161 30.672 442.209C30.528 442.241 30.336 442.257 30.096 442.257H22.392V439.785H20.592V442.257ZM20.592 437.591H33V435.551H27.48C26.68 435.551 25.976 435.471 25.368 435.311C24.744 435.151 24.216 434.895 23.784 434.543C23.352 434.191 23.024 433.727 22.8 433.151C22.576 432.575 22.464 431.879 22.464 431.063H20.304C20.272 432.167 20.496 433.079 20.976 433.799C21.456 434.519 22.2 435.127 23.208 435.623V435.671H20.592V437.591ZM18.36 427.366H15.864V429.406H18.36V427.366ZM20.592 429.406H33V427.366H20.592V429.406ZM15.864 424.134H33V422.094H31.344V422.046C31.712 421.822 32.024 421.55 32.28 421.23C32.52 420.894 32.712 420.542 32.856 420.174C33 419.806 33.104 419.438 33.168 419.07C33.232 418.686 33.264 418.342 33.264 418.038C33.264 417.094 33.096 416.27 32.76 415.566C32.424 414.846 31.968 414.254 31.392 413.79C30.8 413.31 30.112 412.958 29.328 412.734C28.544 412.494 27.712 412.374 26.832 412.374C25.952 412.374 25.12 412.494 24.336 412.734C23.552 412.974 22.864 413.334 22.272 413.814C21.664 414.278 21.184 414.87 20.832 415.59C20.48 416.294 20.304 417.126 20.304 418.086C20.304 418.95 20.464 419.742 20.784 420.462C21.088 421.182 21.584 421.71 22.272 422.046V422.094H15.864V424.134ZM26.688 414.534C27.296 414.534 27.888 414.598 28.464 414.726C29.04 414.854 29.552 415.062 30 415.35C30.448 415.638 30.808 416.022 31.08 416.502C31.352 416.966 31.488 417.55 31.488 418.254C31.488 418.958 31.36 419.558 31.104 420.054C30.832 420.55 30.48 420.958 30.048 421.278C29.616 421.582 29.12 421.806 28.56 421.95C27.984 422.094 27.392 422.166 26.784 422.166C26.208 422.166 25.64 422.102 25.08 421.974C24.52 421.83 24.024 421.606 23.592 421.302C23.144 420.998 22.784 420.606 22.512 420.126C22.24 419.646 22.104 419.062 22.104 418.374C22.104 417.718 22.232 417.15 22.488 416.67C22.744 416.174 23.088 415.774 23.52 415.47C23.952 415.15 24.448 414.918 25.008 414.774C25.552 414.614 26.112 414.534 26.688 414.534ZM33 399.708H20.592V401.748H27.6C28.16 401.748 28.68 401.828 29.16 401.988C29.624 402.132 30.032 402.356 30.384 402.66C30.736 402.964 31.008 403.348 31.2 403.812C31.392 404.26 31.488 404.796 31.488 405.42C31.488 406.204 31.264 406.82 30.816 407.268C30.368 407.716 29.76 407.94 28.992 407.94H20.592V409.98H28.752C29.424 409.98 30.04 409.916 30.6 409.788C31.144 409.644 31.616 409.404 32.016 409.068C32.416 408.732 32.728 408.292 32.952 407.748C33.16 407.204 33.264 406.524 33.264 405.708C33.264 404.796 33.088 404.004 32.736 403.332C32.368 402.66 31.8 402.108 31.032 401.676V401.628H33V399.708ZM20.592 393.812H16.872V395.852H20.592V397.964H22.392V395.852H30.288C30.864 395.852 31.328 395.796 31.68 395.684C32.032 395.572 32.304 395.404 32.496 395.18C32.688 394.94 32.824 394.636 32.904 394.268C32.968 393.884 33 393.428 33 392.9V391.34H31.2V392.276C31.2 392.596 31.192 392.86 31.176 393.068C31.144 393.26 31.088 393.412 31.008 393.524C30.928 393.636 30.816 393.716 30.672 393.764C30.528 393.796 30.336 393.812 30.096 393.812H22.392V391.34H20.592V393.812ZM26.808 387.585C26.056 387.585 25.392 387.489 24.816 387.297C24.224 387.089 23.728 386.809 23.328 386.457C22.928 386.105 22.624 385.697 22.416 385.233C22.208 384.753 22.104 384.249 22.104 383.721C22.104 383.193 22.208 382.697 22.416 382.233C22.624 381.753 22.928 381.337 23.328 380.985C23.728 380.633 24.224 380.361 24.816 380.169C25.392 379.961 26.056 379.857 26.808 379.857C27.56 379.857 28.232 379.961 28.824 380.169C29.4 380.361 29.888 380.633 30.288 380.985C30.672 381.337 30.968 381.753 31.176 382.233C31.384 382.697 31.488 383.193 31.488 383.721C31.488 384.249 31.384 384.753 31.176 385.233C30.968 385.697 30.672 386.105 30.288 386.457C29.888 386.809 29.4 387.089 28.824 387.297C28.232 387.489 27.56 387.585 26.808 387.585ZM26.808 389.745C27.72 389.745 28.568 389.617 29.352 389.361C30.136 389.105 30.824 388.721 31.416 388.209C31.992 387.697 32.448 387.065 32.784 386.313C33.104 385.561 33.264 384.697 33.264 383.721C33.264 382.729 33.104 381.865 32.784 381.129C32.448 380.377 31.992 379.745 31.416 379.233C30.824 378.721 30.136 378.337 29.352 378.081C28.568 377.825 27.72 377.697 26.808 377.697C25.896 377.697 25.048 377.825 24.264 378.081C23.464 378.337 22.776 378.721 22.2 379.233C21.608 379.745 21.144 380.377 20.808 381.129C20.472 381.865 20.304 382.729 20.304 383.721C20.304 384.697 20.472 385.561 20.808 386.313C21.144 387.065 21.608 387.697 22.2 388.209C22.776 388.721 23.464 389.105 24.264 389.361C25.048 389.617 25.896 389.745 26.808 389.745ZM22.008 369.092V367.052C21.496 367.068 20.992 367.02 20.496 366.908C19.984 366.78 19.528 366.58 19.128 366.308C18.728 366.036 18.408 365.692 18.168 365.276C17.912 364.844 17.784 364.332 17.784 363.74C17.784 363.292 17.856 362.868 18 362.468C18.144 362.068 18.352 361.724 18.624 361.436C18.896 361.132 19.224 360.892 19.608 360.716C19.976 360.54 20.392 360.452 20.856 360.452C21.448 360.452 21.968 360.548 22.416 360.74C22.864 360.916 23.28 361.188 23.664 361.556C24.048 361.908 24.432 362.356 24.816 362.9C25.184 363.444 25.592 364.076 26.04 364.796C26.392 365.388 26.768 365.956 27.168 366.5C27.568 367.044 28.032 367.532 28.56 367.964C29.088 368.396 29.712 368.756 30.432 369.044C31.136 369.316 31.992 369.492 33 369.572L33 358.46H31.2V367.196C30.672 367.1 30.208 366.9 29.808 366.596C29.392 366.276 29.008 365.9 28.656 365.468C28.304 365.02 27.976 364.532 27.672 364.004C27.352 363.476 27.032 362.948 26.712 362.42C26.376 361.892 26.024 361.38 25.656 360.884C25.288 360.388 24.88 359.948 24.432 359.564C23.968 359.18 23.448 358.876 22.872 358.652C22.296 358.412 21.632 358.292 20.88 358.292C20.08 358.292 19.376 358.436 18.768 358.724C18.16 358.996 17.656 359.372 17.256 359.852C16.84 360.332 16.528 360.9 16.32 361.556C16.096 362.196 15.984 362.884 15.984 363.62C15.984 364.516 16.136 365.316 16.44 366.02C16.744 366.724 17.168 367.316 17.712 367.796C18.24 368.26 18.872 368.604 19.608 368.828C20.344 369.052 21.144 369.14 22.008 369.092Z" fill="black"/>
</svg>
