<svg width="150" height="139" viewBox="0 0 150 139" fill="none" xmlns="http://www.w3.org/2000/svg">
<path d="M11.6967 110.257C11.2866 110.977 11.5376 111.893 12.2574 112.303C12.9772 112.713 13.8932 112.462 14.3033 111.743L11.6967 110.257ZM63.4467 24.6035C63.2277 23.8046 62.4025 23.3344 61.6035 23.5534L48.5837 27.1218C47.7847 27.3407 47.3145 28.1659 47.5335 28.9649C47.7525 29.7639 48.5777 30.234 49.3766 30.0151L60.9498 26.8431L64.1218 38.4163C64.3407 39.2153 65.1659 39.6855 65.9649 39.4665C66.7639 39.2475 67.234 38.4223 67.0151 37.6234L63.4467 24.6035ZM14.3033 111.743L63.3033 25.7426L60.6967 24.2574L11.6967 110.257L14.3033 111.743Z" fill="black"/>
<path d="M123 128.5C123.828 128.5 124.5 127.828 124.5 127C124.5 126.172 123.828 125.5 123 125.5V128.5ZM25.9393 125.939C25.3536 126.525 25.3536 127.475 25.9393 128.061L35.4853 137.607C36.0711 138.192 37.0208 138.192 37.6066 137.607C38.1924 137.021 38.1924 136.071 37.6066 135.485L29.1213 127L37.6066 118.515C38.1924 117.929 38.1924 116.979 37.6066 116.393C37.0208 115.808 36.0711 115.808 35.4853 116.393L25.9393 125.939ZM123 125.5L27 125.5V128.5H123V125.5Z" fill="black"/>
<path d="M88.2902 24.2349C87.8676 23.5223 86.9474 23.2872 86.2349 23.7098C85.5223 24.1324 85.2872 25.0526 85.7098 25.7651L88.2902 24.2349ZM137.629 112.453C138.431 112.658 139.248 112.174 139.453 111.371L142.795 98.2914C143 97.4887 142.516 96.6718 141.713 96.4668C140.91 96.2617 140.093 96.7462 139.888 97.5488L136.918 109.175L125.291 106.205C124.489 106 123.672 106.484 123.467 107.287C123.262 108.09 123.746 108.907 124.549 109.112L137.629 112.453ZM85.7098 25.7651L136.71 111.765L139.29 110.235L88.2902 24.2349L85.7098 25.7651Z" fill="black"/>
<circle cx="74.5" cy="12.5" r="12.5" fill="#6D597A"/>
<circle cx="12.5" cy="126.5" r="12.5" fill="#6D597A"/>
<circle cx="137.5" cy="126.5" r="12.5" fill="#6D597A"/>
</svg>
