<svg width="884" height="437" viewBox="0 0 884 437" fill="none" xmlns="http://www.w3.org/2000/svg">
<circle cx="12.5" cy="12.5" r="12.5" fill="#355070"/>
<circle cx="12.5" cy="127.5" r="12.5" fill="#B56576"/>
<circle cx="12.5" cy="242.5" r="12.5" fill="#018EAD"/>
<circle cx="12.5" cy="357.5" r="12.5" fill="#D282A6"/>
<circle cx="112.5" cy="12.5" r="12.5" fill="#6D597A"/>
<circle cx="112.5" cy="127.5" r="12.5" fill="#588B8B"/>
<circle cx="112.5" cy="242.5" r="12.5" fill="#7D605A"/>
<circle cx="112.5" cy="357.5" r="12.5" fill="#8DD8C1"/>
<circle cx="271.5" cy="12.5" r="12.5" fill="#355070"/>
<circle cx="371.5" cy="127.5" r="12.5" fill="#6D597A"/>
<circle cx="371.5" cy="242.5" r="12.5" fill="#018EAD"/>
<circle cx="271.5" cy="357.5" r="12.5" fill="#7D605A"/>
<circle cx="571.5" cy="12.5" r="12.5" fill="#588B8B"/>
<circle cx="471.5" cy="127.5" r="12.5" fill="#B56576"/>
<circle cx="471.5" cy="242.5" r="12.5" fill="#8DD8C1"/>
<circle cx="571.5" cy="357.5" r="12.5" fill="#D282A6"/>
<path d="M27 12L98 12" stroke="black" stroke-width="3" stroke-linecap="round"/>
<path d="M25 25L100 115" stroke="black" stroke-width="3" stroke-linecap="round"/>
<path d="M284 25L359 115" stroke="black" stroke-width="3" stroke-linecap="round"/>
<path d="M484 255L559 345" stroke="black" stroke-width="3" stroke-linecap="round"/>
<path d="M25 25L100 230" stroke="black" stroke-width="3" stroke-linecap="round"/>
<path d="M25 140L100 345" stroke="black" stroke-width="3" stroke-linecap="round"/>
<path d="M100 25L25 115" stroke="black" stroke-width="3" stroke-linecap="round"/>
<path d="M559 25L484 115" stroke="black" stroke-width="3" stroke-linecap="round"/>
<path d="M359 255L284 345" stroke="black" stroke-width="3" stroke-linecap="round"/>
<path d="M100 25L25 230" stroke="black" stroke-width="3" stroke-linecap="round"/>
<path d="M100 140L25 345" stroke="black" stroke-width="3" stroke-linecap="round"/>
<path d="M25 255L100 345" stroke="black" stroke-width="3" stroke-linecap="round"/>
<path d="M100 255L25 345" stroke="black" stroke-width="3" stroke-linecap="round"/>
<path d="M386 128L457 128" stroke="black" stroke-width="3" stroke-linecap="round"/>
<path d="M372 223.5V152.5" stroke="black" stroke-width="3" stroke-linecap="round"/>
<path d="M472 223.5V152.5" stroke="black" stroke-width="3" stroke-linecap="round"/>
<path d="M386 243L457 243" stroke="black" stroke-width="3" stroke-linecap="round"/>
<path d="M286 12L557 12" stroke="black" stroke-width="3" stroke-linecap="round"/>
<path d="M286 358L557 358" stroke="black" stroke-width="3" stroke-linecap="round"/>
<path d="M272 342L272 28" stroke="black" stroke-width="3" stroke-linecap="round"/>
<path d="M572 341L572 29" stroke="black" stroke-width="3" stroke-linecap="round"/>
<path d="M27 128L98 128" stroke="black" stroke-width="3" stroke-linecap="round"/>
<path d="M27 243L98 243" stroke="black" stroke-width="3" stroke-linecap="round"/>
<path d="M27 358H98" stroke="black" stroke-width="3" stroke-linecap="round"/>
<path d="M67.1869 421.398L67.6369 423H68.7169V416.232H63.0829V417.672H67.1869C67.2109 418.26 67.1329 418.812 66.9529 419.328C66.7729 419.832 66.5029 420.276 66.1429 420.66C65.7949 421.032 65.3629 421.326 64.8469 421.542C64.3309 421.758 63.7369 421.866 63.0649 421.866C62.3449 421.866 61.7089 421.728 61.1569 421.452C60.6169 421.164 60.1609 420.786 59.7889 420.318C59.4169 419.838 59.1349 419.292 58.9429 418.68C58.7509 418.056 58.6549 417.408 58.6549 416.736C58.6549 416.052 58.7389 415.386 58.9069 414.738C59.0749 414.078 59.3329 413.496 59.6809 412.992C60.0409 412.476 60.4969 412.062 61.0489 411.75C61.6129 411.438 62.2849 411.282 63.0649 411.282C63.5449 411.282 63.9949 411.342 64.4149 411.462C64.8469 411.57 65.2309 411.738 65.5669 411.966C65.9029 412.194 66.1849 412.488 66.4129 412.848C66.6409 413.196 66.7969 413.616 66.8809 414.108H68.5909C68.4709 413.352 68.2429 412.71 67.9069 412.182C67.5829 411.642 67.1749 411.198 66.6829 410.85C66.2029 410.502 65.6509 410.25 65.0269 410.094C64.4149 409.926 63.7609 409.842 63.0649 409.842C62.0449 409.842 61.1509 410.034 60.3829 410.418C59.6269 410.79 58.9909 411.294 58.4749 411.93C57.9709 412.566 57.5869 413.31 57.3229 414.162C57.0709 415.002 56.9449 415.89 56.9449 416.826C56.9449 417.666 57.0829 418.476 57.3589 419.256C57.6349 420.036 58.0369 420.726 58.5649 421.326C59.0929 421.926 59.7349 422.406 60.4909 422.766C61.2469 423.114 62.1049 423.288 63.0649 423.288C63.8209 423.288 64.5709 423.144 65.3149 422.856C66.0589 422.556 66.6829 422.07 67.1869 421.398Z" fill="black"/>
<path d="M416.909 410.148V423H418.619V417.114H425.387V423H427.097V410.148H425.387V415.674H418.619V410.148H416.909Z" fill="black"/>
<path d="M750.142 399.148V412H751.852V399.148H750.142ZM755.412 409.066H753.882C753.906 409.642 754.026 410.134 754.242 410.542C754.458 410.938 754.746 411.262 755.106 411.514C755.466 411.754 755.88 411.928 756.348 412.036C756.816 412.144 757.308 412.198 757.824 412.198C758.292 412.198 758.76 412.15 759.228 412.054C759.708 411.97 760.134 411.814 760.506 411.586C760.89 411.358 761.196 411.058 761.424 410.686C761.664 410.314 761.784 409.846 761.784 409.282C761.784 408.838 761.694 408.466 761.514 408.166C761.346 407.866 761.118 407.62 760.83 407.428C760.554 407.224 760.23 407.062 759.858 406.942C759.498 406.822 759.126 406.72 758.742 406.636C758.382 406.552 758.022 406.474 757.662 406.402C757.302 406.318 756.978 406.222 756.69 406.114C756.402 405.994 756.162 405.85 755.97 405.682C755.79 405.502 755.7 405.28 755.7 405.016C755.7 404.776 755.76 404.584 755.88 404.44C756 404.284 756.156 404.164 756.348 404.08C756.54 403.984 756.75 403.918 756.978 403.882C757.218 403.846 757.452 403.828 757.68 403.828C757.932 403.828 758.178 403.858 758.418 403.918C758.67 403.966 758.898 404.05 759.102 404.17C759.306 404.29 759.474 404.452 759.606 404.656C759.738 404.848 759.816 405.094 759.84 405.394H761.37C761.334 404.83 761.214 404.362 761.01 403.99C760.806 403.606 760.53 403.306 760.182 403.09C759.846 402.862 759.456 402.706 759.012 402.622C758.568 402.526 758.082 402.478 757.554 402.478C757.146 402.478 756.732 402.532 756.312 402.64C755.904 402.736 755.532 402.892 755.196 403.108C754.872 403.312 754.602 403.582 754.386 403.918C754.182 404.254 754.08 404.656 754.08 405.124C754.08 405.724 754.23 406.192 754.53 406.528C754.83 406.864 755.202 407.128 755.646 407.32C756.102 407.5 756.594 407.644 757.122 407.752C757.65 407.848 758.136 407.962 758.58 408.094C759.036 408.214 759.414 408.376 759.714 408.58C760.014 408.784 760.164 409.084 760.164 409.48C760.164 409.768 760.092 410.008 759.948 410.2C759.804 410.38 759.618 410.518 759.39 410.614C759.174 410.71 758.934 410.776 758.67 410.812C758.406 410.848 758.154 410.866 757.914 410.866C757.602 410.866 757.296 410.836 756.996 410.776C756.708 410.716 756.444 410.62 756.204 410.488C755.976 410.344 755.79 410.158 755.646 409.93C755.502 409.69 755.424 409.402 755.412 409.066ZM764.592 407.356C764.592 406.792 764.664 406.294 764.808 405.862C764.964 405.418 765.174 405.046 765.438 404.746C765.702 404.446 766.008 404.218 766.356 404.062C766.716 403.906 767.094 403.828 767.49 403.828C767.886 403.828 768.258 403.906 768.606 404.062C768.966 404.218 769.278 404.446 769.542 404.746C769.806 405.046 770.01 405.418 770.154 405.862C770.31 406.294 770.388 406.792 770.388 407.356C770.388 407.92 770.31 408.424 770.154 408.868C770.01 409.3 769.806 409.666 769.542 409.966C769.278 410.254 768.966 410.476 768.606 410.632C768.258 410.788 767.886 410.866 767.49 410.866C767.094 410.866 766.716 410.788 766.356 410.632C766.008 410.476 765.702 410.254 765.438 409.966C765.174 409.666 764.964 409.3 764.808 408.868C764.664 408.424 764.592 407.92 764.592 407.356ZM762.972 407.356C762.972 408.04 763.068 408.676 763.26 409.264C763.452 409.852 763.74 410.368 764.124 410.812C764.508 411.244 764.982 411.586 765.546 411.838C766.11 412.078 766.758 412.198 767.49 412.198C768.234 412.198 768.882 412.078 769.434 411.838C769.998 411.586 770.472 411.244 770.856 410.812C771.24 410.368 771.528 409.852 771.72 409.264C771.912 408.676 772.008 408.04 772.008 407.356C772.008 406.672 771.912 406.036 771.72 405.448C771.528 404.848 771.24 404.332 770.856 403.9C770.472 403.456 769.998 403.108 769.434 402.856C768.882 402.604 768.234 402.478 767.49 402.478C766.758 402.478 766.11 402.604 765.546 402.856C764.982 403.108 764.508 403.456 764.124 403.9C763.74 404.332 763.452 404.848 763.26 405.448C763.068 406.036 762.972 406.672 762.972 407.356ZM773.812 402.694V412H775.342V406.204C775.342 406.024 775.384 405.802 775.468 405.538C775.564 405.262 775.708 404.998 775.9 404.746C776.104 404.494 776.362 404.278 776.674 404.098C776.998 403.918 777.382 403.828 777.826 403.828C778.174 403.828 778.456 403.882 778.672 403.99C778.9 404.086 779.08 404.23 779.212 404.422C779.344 404.602 779.434 404.818 779.482 405.07C779.542 405.322 779.572 405.598 779.572 405.898V412H781.102V406.204C781.102 405.484 781.318 404.908 781.75 404.476C782.182 404.044 782.776 403.828 783.532 403.828C783.904 403.828 784.204 403.882 784.432 403.99C784.672 404.098 784.858 404.248 784.99 404.44C785.122 404.62 785.212 404.836 785.26 405.088C785.308 405.34 785.332 405.61 785.332 405.898V412H786.862V405.178C786.862 404.698 786.784 404.29 786.628 403.954C786.484 403.606 786.274 403.324 785.998 403.108C785.734 402.892 785.41 402.736 785.026 402.64C784.654 402.532 784.234 402.478 783.766 402.478C783.154 402.478 782.59 402.616 782.074 402.892C781.57 403.168 781.162 403.558 780.85 404.062C780.658 403.486 780.328 403.078 779.86 402.838C779.392 402.598 778.87 402.478 778.294 402.478C776.986 402.478 775.984 403.006 775.288 404.062H775.252V402.694H773.812ZM790.274 407.356C790.274 406.792 790.346 406.294 790.49 405.862C790.646 405.418 790.856 405.046 791.12 404.746C791.384 404.446 791.69 404.218 792.038 404.062C792.398 403.906 792.776 403.828 793.172 403.828C793.568 403.828 793.94 403.906 794.288 404.062C794.648 404.218 794.96 404.446 795.224 404.746C795.488 405.046 795.692 405.418 795.836 405.862C795.992 406.294 796.07 406.792 796.07 407.356C796.07 407.92 795.992 408.424 795.836 408.868C795.692 409.3 795.488 409.666 795.224 409.966C794.96 410.254 794.648 410.476 794.288 410.632C793.94 410.788 793.568 410.866 793.172 410.866C792.776 410.866 792.398 410.788 792.038 410.632C791.69 410.476 791.384 410.254 791.12 409.966C790.856 409.666 790.646 409.3 790.49 408.868C790.346 408.424 790.274 407.92 790.274 407.356ZM788.654 407.356C788.654 408.04 788.75 408.676 788.942 409.264C789.134 409.852 789.422 410.368 789.806 410.812C790.19 411.244 790.664 411.586 791.228 411.838C791.792 412.078 792.44 412.198 793.172 412.198C793.916 412.198 794.564 412.078 795.116 411.838C795.68 411.586 796.154 411.244 796.538 410.812C796.922 410.368 797.21 409.852 797.402 409.264C797.594 408.676 797.69 408.04 797.69 407.356C797.69 406.672 797.594 406.036 797.402 405.448C797.21 404.848 796.922 404.332 796.538 403.9C796.154 403.456 795.68 403.108 795.116 402.856C794.564 402.604 793.916 402.478 793.172 402.478C792.44 402.478 791.792 402.604 791.228 402.856C790.664 403.108 790.19 403.456 789.806 403.9C789.422 404.332 789.134 404.848 788.942 405.448C788.75 406.036 788.654 406.672 788.654 407.356ZM799.44 402.694V412H800.97V407.86C800.97 407.26 801.03 406.732 801.15 406.276C801.27 405.808 801.462 405.412 801.726 405.088C801.99 404.764 802.338 404.518 802.77 404.35C803.202 404.182 803.724 404.098 804.336 404.098V402.478C803.508 402.454 802.824 402.622 802.284 402.982C801.744 403.342 801.288 403.9 800.916 404.656H800.88V402.694H799.44ZM810.906 412H812.436V402.694H810.906V412ZM810.906 401.02H812.436V399.148H810.906V401.02ZM806.118 404.044V412H807.648V404.044H809.448V402.694H807.648V401.398C807.648 400.99 807.75 400.714 807.954 400.57C808.158 400.426 808.446 400.354 808.818 400.354C808.95 400.354 809.094 400.366 809.25 400.39C809.406 400.402 809.55 400.432 809.682 400.48V399.148C809.538 399.1 809.37 399.064 809.178 399.04C808.998 399.016 808.836 399.004 808.692 399.004C807.852 399.004 807.21 399.202 806.766 399.598C806.334 399.982 806.118 400.552 806.118 401.308V402.694H804.552V404.044H806.118ZM815.74 409.066H814.21C814.234 409.642 814.354 410.134 814.57 410.542C814.786 410.938 815.074 411.262 815.434 411.514C815.794 411.754 816.208 411.928 816.676 412.036C817.144 412.144 817.636 412.198 818.152 412.198C818.62 412.198 819.088 412.15 819.556 412.054C820.036 411.97 820.462 411.814 820.834 411.586C821.218 411.358 821.524 411.058 821.752 410.686C821.992 410.314 822.112 409.846 822.112 409.282C822.112 408.838 822.022 408.466 821.842 408.166C821.674 407.866 821.446 407.62 821.158 407.428C820.882 407.224 820.558 407.062 820.186 406.942C819.826 406.822 819.454 406.72 819.07 406.636C818.71 406.552 818.35 406.474 817.99 406.402C817.63 406.318 817.306 406.222 817.018 406.114C816.73 405.994 816.49 405.85 816.298 405.682C816.118 405.502 816.028 405.28 816.028 405.016C816.028 404.776 816.088 404.584 816.208 404.44C816.328 404.284 816.484 404.164 816.676 404.08C816.868 403.984 817.078 403.918 817.306 403.882C817.546 403.846 817.78 403.828 818.008 403.828C818.26 403.828 818.506 403.858 818.746 403.918C818.998 403.966 819.226 404.05 819.43 404.17C819.634 404.29 819.802 404.452 819.934 404.656C820.066 404.848 820.144 405.094 820.168 405.394H821.698C821.662 404.83 821.542 404.362 821.338 403.99C821.134 403.606 820.858 403.306 820.51 403.09C820.174 402.862 819.784 402.706 819.34 402.622C818.896 402.526 818.41 402.478 817.882 402.478C817.474 402.478 817.06 402.532 816.64 402.64C816.232 402.736 815.86 402.892 815.524 403.108C815.2 403.312 814.93 403.582 814.714 403.918C814.51 404.254 814.408 404.656 814.408 405.124C814.408 405.724 814.558 406.192 814.858 406.528C815.158 406.864 815.53 407.128 815.974 407.32C816.43 407.5 816.922 407.644 817.45 407.752C817.978 407.848 818.464 407.962 818.908 408.094C819.364 408.214 819.742 408.376 820.042 408.58C820.342 408.784 820.492 409.084 820.492 409.48C820.492 409.768 820.42 410.008 820.276 410.2C820.132 410.38 819.946 410.518 819.718 410.614C819.502 410.71 819.262 410.776 818.998 410.812C818.734 410.848 818.482 410.866 818.242 410.866C817.93 410.866 817.624 410.836 817.324 410.776C817.036 410.716 816.772 410.62 816.532 410.488C816.304 410.344 816.118 410.158 815.974 409.93C815.83 409.69 815.752 409.402 815.74 409.066ZM823.804 402.694V412H825.334V406.204C825.334 406.024 825.376 405.802 825.46 405.538C825.556 405.262 825.7 404.998 825.892 404.746C826.096 404.494 826.354 404.278 826.666 404.098C826.99 403.918 827.374 403.828 827.818 403.828C828.166 403.828 828.448 403.882 828.664 403.99C828.892 404.086 829.072 404.23 829.204 404.422C829.336 404.602 829.426 404.818 829.474 405.07C829.534 405.322 829.564 405.598 829.564 405.898V412H831.094V406.204C831.094 405.484 831.31 404.908 831.742 404.476C832.174 404.044 832.768 403.828 833.524 403.828C833.896 403.828 834.196 403.882 834.424 403.99C834.664 404.098 834.85 404.248 834.982 404.44C835.114 404.62 835.204 404.836 835.252 405.088C835.3 405.34 835.324 405.61 835.324 405.898V412H836.854V405.178C836.854 404.698 836.776 404.29 836.62 403.954C836.476 403.606 836.266 403.324 835.99 403.108C835.726 402.892 835.402 402.736 835.018 402.64C834.646 402.532 834.226 402.478 833.758 402.478C833.146 402.478 832.582 402.616 832.066 402.892C831.562 403.168 831.154 403.558 830.842 404.062C830.65 403.486 830.32 403.078 829.852 402.838C829.384 402.598 828.862 402.478 828.286 402.478C826.978 402.478 825.976 403.006 825.28 404.062H825.244V402.694H823.804ZM840.266 407.356C840.266 406.792 840.338 406.294 840.482 405.862C840.638 405.418 840.848 405.046 841.112 404.746C841.376 404.446 841.682 404.218 842.03 404.062C842.39 403.906 842.768 403.828 843.164 403.828C843.56 403.828 843.932 403.906 844.28 404.062C844.64 404.218 844.952 404.446 845.216 404.746C845.48 405.046 845.684 405.418 845.828 405.862C845.984 406.294 846.062 406.792 846.062 407.356C846.062 407.92 845.984 408.424 845.828 408.868C845.684 409.3 845.48 409.666 845.216 409.966C844.952 410.254 844.64 410.476 844.28 410.632C843.932 410.788 843.56 410.866 843.164 410.866C842.768 410.866 842.39 410.788 842.03 410.632C841.682 410.476 841.376 410.254 841.112 409.966C840.848 409.666 840.638 409.3 840.482 408.868C840.338 408.424 840.266 407.92 840.266 407.356ZM838.646 407.356C838.646 408.04 838.742 408.676 838.934 409.264C839.126 409.852 839.414 410.368 839.798 410.812C840.182 411.244 840.656 411.586 841.22 411.838C841.784 412.078 842.432 412.198 843.164 412.198C843.908 412.198 844.556 412.078 845.108 411.838C845.672 411.586 846.146 411.244 846.53 410.812C846.914 410.368 847.202 409.852 847.394 409.264C847.586 408.676 847.682 408.04 847.682 407.356C847.682 406.672 847.586 406.036 847.394 405.448C847.202 404.848 846.914 404.332 846.53 403.9C846.146 403.456 845.672 403.108 845.108 402.856C844.556 402.604 843.908 402.478 843.164 402.478C842.432 402.478 841.784 402.604 841.22 402.856C840.656 403.108 840.182 403.456 839.798 403.9C839.414 404.332 839.126 404.848 838.934 405.448C838.742 406.036 838.646 406.672 838.646 407.356ZM760.428 427.456H755.082C755.106 427.096 755.184 426.76 755.316 426.448C755.448 426.124 755.628 425.842 755.856 425.602C756.084 425.362 756.354 425.176 756.666 425.044C756.99 424.9 757.35 424.828 757.746 424.828C758.13 424.828 758.478 424.9 758.79 425.044C759.114 425.176 759.39 425.362 759.618 425.602C759.858 425.83 760.044 426.106 760.176 426.43C760.32 426.754 760.404 427.096 760.428 427.456ZM761.904 430.048H760.392C760.26 430.66 759.984 431.116 759.564 431.416C759.156 431.716 758.628 431.866 757.98 431.866C757.476 431.866 757.038 431.782 756.666 431.614C756.294 431.446 755.988 431.224 755.748 430.948C755.508 430.66 755.334 430.336 755.226 429.976C755.118 429.604 755.07 429.214 755.082 428.806H762.048C762.072 428.242 762.018 427.648 761.886 427.024C761.766 426.4 761.538 425.824 761.202 425.296C760.878 424.768 760.44 424.336 759.888 424C759.348 423.652 758.664 423.478 757.836 423.478C757.2 423.478 756.612 423.598 756.072 423.838C755.544 424.078 755.082 424.414 754.686 424.846C754.302 425.278 754.002 425.788 753.786 426.376C753.57 426.964 753.462 427.612 753.462 428.32C753.486 429.028 753.588 429.682 753.768 430.282C753.96 430.882 754.242 431.398 754.614 431.83C754.986 432.262 755.442 432.598 755.982 432.838C756.534 433.078 757.182 433.198 757.926 433.198C758.982 433.198 759.858 432.934 760.554 432.406C761.25 431.878 761.7 431.092 761.904 430.048ZM763.634 423.694V433H765.164V427.744C765.164 427.324 765.218 426.94 765.326 426.592C765.446 426.232 765.62 425.92 765.848 425.656C766.076 425.392 766.358 425.188 766.694 425.044C767.042 424.9 767.45 424.828 767.918 424.828C768.506 424.828 768.968 424.996 769.304 425.332C769.64 425.668 769.808 426.124 769.808 426.7V433H771.338V426.88C771.338 426.376 771.284 425.92 771.176 425.512C771.08 425.092 770.906 424.732 770.654 424.432C770.402 424.132 770.072 423.898 769.664 423.73C769.256 423.562 768.746 423.478 768.134 423.478C766.754 423.478 765.746 424.042 765.11 425.17H765.074V423.694H763.634ZM775.76 423.694V420.904H774.23V423.694H772.646V425.044H774.23V430.966C774.23 431.398 774.272 431.746 774.356 432.01C774.44 432.274 774.566 432.478 774.734 432.622C774.914 432.766 775.142 432.868 775.418 432.928C775.706 432.976 776.048 433 776.444 433H777.614V431.65H776.912C776.672 431.65 776.474 431.644 776.318 431.632C776.174 431.608 776.06 431.566 775.976 431.506C775.892 431.446 775.832 431.362 775.796 431.254C775.772 431.146 775.76 431.002 775.76 430.822V425.044H777.614V423.694H775.76ZM779.26 423.694V433H780.79V428.86C780.79 428.26 780.85 427.732 780.97 427.276C781.09 426.808 781.282 426.412 781.546 426.088C781.81 425.764 782.158 425.518 782.59 425.35C783.022 425.182 783.544 425.098 784.156 425.098V423.478C783.328 423.454 782.644 423.622 782.104 423.982C781.564 424.342 781.108 424.9 780.736 425.656H780.7V423.694H779.26ZM791.454 427.456H786.108C786.132 427.096 786.21 426.76 786.342 426.448C786.474 426.124 786.654 425.842 786.882 425.602C787.11 425.362 787.38 425.176 787.692 425.044C788.016 424.9 788.376 424.828 788.772 424.828C789.156 424.828 789.504 424.9 789.816 425.044C790.14 425.176 790.416 425.362 790.644 425.602C790.884 425.83 791.07 426.106 791.202 426.43C791.346 426.754 791.43 427.096 791.454 427.456ZM792.93 430.048H791.418C791.286 430.66 791.01 431.116 790.59 431.416C790.182 431.716 789.654 431.866 789.006 431.866C788.502 431.866 788.064 431.782 787.692 431.614C787.32 431.446 787.014 431.224 786.774 430.948C786.534 430.66 786.36 430.336 786.252 429.976C786.144 429.604 786.096 429.214 786.108 428.806H793.074C793.098 428.242 793.044 427.648 792.912 427.024C792.792 426.4 792.564 425.824 792.228 425.296C791.904 424.768 791.466 424.336 790.914 424C790.374 423.652 789.69 423.478 788.862 423.478C788.226 423.478 787.638 423.598 787.098 423.838C786.57 424.078 786.108 424.414 785.712 424.846C785.328 425.278 785.028 425.788 784.812 426.376C784.596 426.964 784.488 427.612 784.488 428.32C784.512 429.028 784.614 429.682 784.794 430.282C784.986 430.882 785.268 431.398 785.64 431.83C786.012 432.262 786.468 432.598 787.008 432.838C787.56 433.078 788.208 433.198 788.952 433.198C790.008 433.198 790.884 432.934 791.58 432.406C792.276 431.878 792.726 431.092 792.93 430.048ZM809.534 431.398L809.984 433H811.064V426.232H805.43V427.672H809.534C809.558 428.26 809.48 428.812 809.3 429.328C809.12 429.832 808.85 430.276 808.49 430.66C808.142 431.032 807.71 431.326 807.194 431.542C806.678 431.758 806.084 431.866 805.412 431.866C804.692 431.866 804.056 431.728 803.504 431.452C802.964 431.164 802.508 430.786 802.136 430.318C801.764 429.838 801.482 429.292 801.29 428.68C801.098 428.056 801.002 427.408 801.002 426.736C801.002 426.052 801.086 425.386 801.254 424.738C801.422 424.078 801.68 423.496 802.028 422.992C802.388 422.476 802.844 422.062 803.396 421.75C803.96 421.438 804.632 421.282 805.412 421.282C805.892 421.282 806.342 421.342 806.762 421.462C807.194 421.57 807.578 421.738 807.914 421.966C808.25 422.194 808.532 422.488 808.76 422.848C808.988 423.196 809.144 423.616 809.228 424.108H810.938C810.818 423.352 810.59 422.71 810.254 422.182C809.93 421.642 809.522 421.198 809.03 420.85C808.55 420.502 807.998 420.25 807.374 420.094C806.762 419.926 806.108 419.842 805.412 419.842C804.392 419.842 803.498 420.034 802.73 420.418C801.974 420.79 801.338 421.294 800.822 421.93C800.318 422.566 799.934 423.31 799.67 424.162C799.418 425.002 799.292 425.89 799.292 426.826C799.292 427.666 799.43 428.476 799.706 429.256C799.982 430.036 800.384 430.726 800.912 431.326C801.44 431.926 802.082 432.406 802.838 432.766C803.594 433.114 804.452 433.288 805.412 433.288C806.168 433.288 806.918 433.144 807.662 432.856C808.406 432.556 809.03 432.07 809.534 431.398ZM821.992 434.242C821.812 434.698 821.632 435.082 821.452 435.394C821.284 435.706 821.092 435.958 820.876 436.15C820.672 436.354 820.438 436.498 820.174 436.582C819.922 436.678 819.628 436.726 819.292 436.726C819.112 436.726 818.932 436.714 818.752 436.69C818.572 436.666 818.398 436.624 818.23 436.564V435.16C818.362 435.22 818.512 435.268 818.68 435.304C818.86 435.352 819.01 435.376 819.13 435.376C819.442 435.376 819.7 435.298 819.904 435.142C820.12 434.998 820.282 434.788 820.39 434.512L821.02 432.946L817.33 423.694H819.058L821.776 431.308H821.812L824.422 423.694H826.042L821.992 434.242ZM832.599 420.148V433H834.309V427.114H841.077V433H842.787V420.148H841.077V425.674H834.309V420.148H832.599Z" fill="black"/>
<path d="M738.797 45.624V58H741.177V45.624H743.977V43.524H741.177V41.508C741.177 40.8733 741.336 40.444 741.653 40.22C741.97 39.996 742.418 39.884 742.997 39.884C743.202 39.884 743.426 39.9027 743.669 39.94C743.912 39.9587 744.136 40.0053 744.341 40.08V38.008C744.117 37.9333 743.856 37.8773 743.557 37.84C743.277 37.8027 743.025 37.784 742.801 37.784C741.494 37.784 740.496 38.092 739.805 38.708C739.133 39.3053 738.797 40.192 738.797 41.368V43.524H736.361V45.624H738.797ZM755.622 63.516H757.442C756.117 61.3693 755.165 59.2413 754.586 57.132C754.026 55.0227 753.746 52.792 753.746 50.44C753.746 48.144 754.026 45.9507 754.586 43.86C755.146 41.7693 756.098 39.66 757.442 37.532H755.622C754.166 39.4547 753.065 41.536 752.318 43.776C751.59 46.016 751.226 48.2373 751.226 50.44C751.226 51.672 751.329 52.848 751.534 53.968C751.739 55.088 752.029 56.18 752.402 57.244C752.794 58.308 753.261 59.3533 753.802 60.38C754.343 61.4253 754.95 62.4707 755.622 63.516ZM777.372 57.944C776.962 58.1867 776.392 58.308 775.664 58.308C775.048 58.308 774.554 58.14 774.18 57.804C773.826 57.4493 773.648 56.88 773.648 56.096C772.995 56.88 772.23 57.4493 771.352 57.804C770.494 58.14 769.56 58.308 768.552 58.308C767.899 58.308 767.274 58.2333 766.676 58.084C766.098 57.9347 765.594 57.7013 765.164 57.384C764.735 57.0667 764.39 56.656 764.128 56.152C763.886 55.6293 763.764 55.004 763.764 54.276C763.764 53.4547 763.904 52.7827 764.184 52.26C764.464 51.7373 764.828 51.3173 765.276 51C765.743 50.664 766.266 50.412 766.844 50.244C767.442 50.076 768.048 49.936 768.664 49.824C769.318 49.6933 769.934 49.6 770.512 49.544C771.11 49.4693 771.632 49.376 772.08 49.264C772.528 49.1333 772.883 48.956 773.144 48.732C773.406 48.4893 773.536 48.144 773.536 47.696C773.536 47.1733 773.434 46.7533 773.228 46.436C773.042 46.1187 772.79 45.876 772.472 45.708C772.174 45.54 771.828 45.428 771.436 45.372C771.063 45.316 770.69 45.288 770.316 45.288C769.308 45.288 768.468 45.484 767.796 45.876C767.124 46.2493 766.76 46.968 766.704 48.032H764.324C764.362 47.136 764.548 46.38 764.884 45.764C765.22 45.148 765.668 44.6533 766.228 44.28C766.788 43.888 767.423 43.608 768.132 43.44C768.86 43.272 769.635 43.188 770.456 43.188C771.11 43.188 771.754 43.2347 772.388 43.328C773.042 43.4213 773.63 43.6173 774.152 43.916C774.675 44.196 775.095 44.5973 775.412 45.12C775.73 45.6427 775.888 46.324 775.888 47.164V54.612C775.888 55.172 775.916 55.5827 775.972 55.844C776.047 56.1053 776.271 56.236 776.644 56.236C776.85 56.236 777.092 56.1893 777.372 56.096V57.944ZM773.508 50.524C773.21 50.748 772.818 50.916 772.332 51.028C771.847 51.1213 771.334 51.2053 770.792 51.28C770.27 51.336 769.738 51.4107 769.196 51.504C768.655 51.5787 768.17 51.7093 767.74 51.896C767.311 52.0827 766.956 52.3533 766.676 52.708C766.415 53.044 766.284 53.5107 766.284 54.108C766.284 54.5 766.359 54.836 766.508 55.116C766.676 55.3773 766.882 55.592 767.124 55.76C767.386 55.928 767.684 56.0493 768.02 56.124C768.356 56.1987 768.711 56.236 769.084 56.236C769.868 56.236 770.54 56.1333 771.1 55.928C771.66 55.704 772.118 55.4333 772.472 55.116C772.827 54.78 773.088 54.4253 773.256 54.052C773.424 53.66 773.508 53.296 773.508 52.96V50.524ZM783.143 63.516H784.935C786.391 61.5933 787.483 59.5213 788.211 57.3C788.958 55.06 789.331 52.8387 789.331 50.636C789.331 49.404 789.229 48.228 789.023 47.108C788.818 45.988 788.519 44.896 788.127 43.832C787.754 42.7493 787.297 41.6947 786.755 40.668C786.214 39.6227 785.607 38.5773 784.935 37.532H783.143C784.45 39.6787 785.383 41.816 785.943 43.944C786.522 46.0533 786.811 48.284 786.811 50.636C786.811 52.9133 786.531 55.1067 785.971 57.216C785.411 59.3067 784.469 61.4067 783.143 63.516ZM810.978 52.792V54.696H825.09V52.792H810.978ZM825.09 49.04V47.136H810.978V49.04H825.09ZM855.384 58V38.148H853.564C853.434 38.8947 853.191 39.5107 852.836 39.996C852.482 40.4813 852.043 40.864 851.52 41.144C851.016 41.424 850.447 41.62 849.812 41.732C849.178 41.8253 848.524 41.872 847.852 41.872V43.776H853.004V58H855.384ZM738.018 85.624V98H740.398V85.624H743.198V83.524H740.398V81.508C740.398 80.8733 740.556 80.444 740.874 80.22C741.191 79.996 741.639 79.884 742.218 79.884C742.423 79.884 742.647 79.9027 742.89 79.94C743.132 79.9587 743.356 80.0053 743.562 80.08V78.008C743.338 77.9333 743.076 77.8773 742.778 77.84C742.498 77.8027 742.246 77.784 742.022 77.784C740.715 77.784 739.716 78.092 739.026 78.708C738.354 79.3053 738.018 80.192 738.018 81.368V83.524H735.582V85.624H738.018ZM754.843 103.516H756.663C755.338 101.369 754.386 99.2413 753.807 97.132C753.247 95.0227 752.967 92.792 752.967 90.44C752.967 88.144 753.247 85.9507 753.807 83.86C754.367 81.7693 755.319 79.66 756.663 77.532H754.843C753.387 79.4547 752.286 81.536 751.539 83.776C750.811 86.016 750.447 88.2373 750.447 90.44C750.447 91.672 750.55 92.848 750.755 93.968C750.96 95.088 751.25 96.18 751.623 97.244C752.015 98.308 752.482 99.3533 753.023 100.38C753.564 101.425 754.171 102.471 754.843 103.516ZM763.853 78.008V98H766.233V96.068H766.289C766.55 96.4973 766.868 96.8613 767.241 97.16C767.633 97.44 768.044 97.664 768.473 97.832C768.902 98 769.332 98.1213 769.761 98.196C770.209 98.2707 770.61 98.308 770.965 98.308C772.066 98.308 773.028 98.112 773.849 97.72C774.689 97.328 775.38 96.796 775.921 96.124C776.481 95.4333 776.892 94.6307 777.153 93.716C777.433 92.8013 777.573 91.8307 777.573 90.804C777.573 89.7773 777.433 88.8067 777.153 87.892C776.873 86.9773 776.453 86.1747 775.893 85.484C775.352 84.7747 774.661 84.2147 773.821 83.804C773 83.3933 772.029 83.188 770.909 83.188C769.901 83.188 768.977 83.3747 768.137 83.748C767.297 84.1027 766.681 84.6813 766.289 85.484H766.233V78.008H763.853ZM775.053 90.636C775.053 91.3453 774.978 92.036 774.829 92.708C774.68 93.38 774.437 93.9773 774.101 94.5C773.765 95.0227 773.317 95.4427 772.757 95.76C772.216 96.0773 771.534 96.236 770.713 96.236C769.892 96.236 769.192 96.0867 768.613 95.788C768.034 95.4707 767.558 95.06 767.185 94.556C766.83 94.052 766.569 93.4733 766.401 92.82C766.233 92.148 766.149 91.4573 766.149 90.748C766.149 90.076 766.224 89.4133 766.373 88.76C766.541 88.1067 766.802 87.528 767.157 87.024C767.512 86.5013 767.969 86.0813 768.529 85.764C769.089 85.4467 769.77 85.288 770.573 85.288C771.338 85.288 772.001 85.4373 772.561 85.736C773.14 86.0347 773.606 86.436 773.961 86.94C774.334 87.444 774.605 88.0227 774.773 88.676C774.96 89.3107 775.053 89.964 775.053 90.636ZM783.923 103.516H785.715C787.171 101.593 788.263 99.5213 788.991 97.3C789.737 95.06 790.111 92.8387 790.111 90.636C790.111 89.404 790.008 88.228 789.803 87.108C789.597 85.988 789.299 84.896 788.907 83.832C788.533 82.7493 788.076 81.6947 787.535 80.668C786.993 79.6227 786.387 78.5773 785.715 77.532H783.923C785.229 79.6787 786.163 81.816 786.723 83.944C787.301 86.0533 787.591 88.284 787.591 90.636C787.591 92.9133 787.311 95.1067 786.751 97.216C786.191 99.3067 785.248 101.407 783.923 103.516ZM811.758 92.792V94.696H825.87V92.792H811.758ZM825.87 89.04V87.136H811.758V89.04H825.87ZM857.788 83.216H860.168C860.018 81.5733 859.458 80.3227 858.488 79.464C857.517 78.5867 856.21 78.148 854.568 78.148C853.149 78.148 851.973 78.4467 851.04 79.044C850.106 79.6413 849.36 80.4347 848.8 81.424C848.24 82.4133 847.838 83.552 847.596 84.84C847.372 86.1093 847.26 87.4253 847.26 88.788C847.26 89.8333 847.334 90.916 847.484 92.036C847.652 93.156 847.978 94.1827 848.464 95.116C848.949 96.0493 849.64 96.8147 850.536 97.412C851.432 98.0093 852.617 98.308 854.092 98.308C855.342 98.308 856.388 98.1027 857.228 97.692C858.086 97.2627 858.768 96.7307 859.272 96.096C859.794 95.4427 860.168 94.724 860.392 93.94C860.616 93.156 860.728 92.4 860.728 91.672C860.728 90.7573 860.588 89.908 860.308 89.124C860.028 88.34 859.626 87.6587 859.104 87.08C858.6 86.5013 857.965 86.0533 857.2 85.736C856.453 85.4 855.604 85.232 854.652 85.232C853.569 85.232 852.608 85.4373 851.768 85.848C850.946 86.2587 850.256 86.9213 849.696 87.836L849.64 87.78C849.658 87.0147 849.733 86.1933 849.864 85.316C849.994 84.4387 850.228 83.6267 850.564 82.88C850.918 82.1147 851.404 81.4893 852.02 81.004C852.636 80.5 853.448 80.248 854.456 80.248C855.408 80.248 856.173 80.5187 856.752 81.06C857.33 81.6013 857.676 82.32 857.788 83.216ZM854.204 87.332C854.876 87.332 855.464 87.4533 855.968 87.696C856.472 87.9387 856.892 88.2653 857.228 88.676C857.564 89.068 857.806 89.544 857.956 90.104C858.124 90.6453 858.208 91.224 858.208 91.84C858.208 92.4187 858.114 92.9787 857.928 93.52C857.76 94.0427 857.508 94.5093 857.172 94.92C856.836 95.3307 856.416 95.6573 855.912 95.9C855.426 96.124 854.857 96.236 854.204 96.236C853.55 96.236 852.962 96.124 852.44 95.9C851.936 95.6573 851.506 95.34 851.152 94.948C850.816 94.556 850.554 94.0893 850.368 93.548C850.181 93.0067 850.088 92.428 850.088 91.812C850.088 91.196 850.172 90.6173 850.34 90.076C850.526 89.516 850.797 89.04 851.152 88.648C851.506 88.2373 851.936 87.92 852.44 87.696C852.944 87.4533 853.532 87.332 854.204 87.332ZM738.797 125.624V138H741.177V125.624H743.977V123.524H741.177V121.508C741.177 120.873 741.336 120.444 741.653 120.22C741.97 119.996 742.418 119.884 742.997 119.884C743.202 119.884 743.426 119.903 743.669 119.94C743.912 119.959 744.136 120.005 744.341 120.08V118.008C744.117 117.933 743.856 117.877 743.557 117.84C743.277 117.803 743.025 117.784 742.801 117.784C741.494 117.784 740.496 118.092 739.805 118.708C739.133 119.305 738.797 120.192 738.797 121.368V123.524H736.361V125.624H738.797ZM755.622 143.516H757.442C756.117 141.369 755.165 139.241 754.586 137.132C754.026 135.023 753.746 132.792 753.746 130.44C753.746 128.144 754.026 125.951 754.586 123.86C755.146 121.769 756.098 119.66 757.442 117.532H755.622C754.166 119.455 753.065 121.536 752.318 123.776C751.59 126.016 751.226 128.237 751.226 130.44C751.226 131.672 751.329 132.848 751.534 133.968C751.739 135.088 752.029 136.18 752.402 137.244C752.794 138.308 753.261 139.353 753.802 140.38C754.343 141.425 754.95 142.471 755.622 143.516ZM774.376 128.172H776.84C776.747 127.313 776.523 126.576 776.168 125.96C775.814 125.325 775.356 124.803 774.796 124.392C774.255 123.981 773.62 123.683 772.892 123.496C772.183 123.291 771.418 123.188 770.596 123.188C769.458 123.188 768.459 123.393 767.6 123.804C766.742 124.196 766.023 124.747 765.444 125.456C764.884 126.147 764.464 126.968 764.184 127.92C763.904 128.853 763.764 129.861 763.764 130.944C763.764 132.027 763.904 133.025 764.184 133.94C764.483 134.836 764.912 135.611 765.472 136.264C766.051 136.917 766.76 137.421 767.6 137.776C768.459 138.131 769.439 138.308 770.54 138.308C772.388 138.308 773.844 137.823 774.908 136.852C775.991 135.881 776.663 134.5 776.924 132.708H774.488C774.339 133.828 773.928 134.696 773.256 135.312C772.603 135.928 771.688 136.236 770.512 136.236C769.766 136.236 769.122 136.087 768.58 135.788C768.039 135.489 767.6 135.097 767.264 134.612C766.928 134.108 766.676 133.539 766.508 132.904C766.359 132.269 766.284 131.616 766.284 130.944C766.284 130.216 766.359 129.516 766.508 128.844C766.658 128.153 766.9 127.547 767.236 127.024C767.591 126.501 768.058 126.081 768.636 125.764C769.215 125.447 769.934 125.288 770.792 125.288C771.8 125.288 772.603 125.54 773.2 126.044C773.798 126.548 774.19 127.257 774.376 128.172ZM783.143 143.516H784.935C786.391 141.593 787.483 139.521 788.211 137.3C788.958 135.06 789.331 132.839 789.331 130.636C789.331 129.404 789.229 128.228 789.023 127.108C788.818 125.988 788.519 124.896 788.127 123.832C787.754 122.749 787.297 121.695 786.755 120.668C786.214 119.623 785.607 118.577 784.935 117.532H783.143C784.45 119.679 785.383 121.816 785.943 123.944C786.522 126.053 786.811 128.284 786.811 130.636C786.811 132.913 786.531 135.107 785.971 137.216C785.411 139.307 784.469 141.407 783.143 143.516ZM810.978 132.792V134.696H825.09V132.792H810.978ZM825.09 129.04V127.136H810.978V129.04H825.09ZM849.756 123.3C849.756 122.796 849.85 122.357 850.036 121.984C850.223 121.611 850.466 121.293 850.764 121.032C851.082 120.771 851.455 120.575 851.884 120.444C852.314 120.313 852.762 120.248 853.228 120.248C854.199 120.248 854.992 120.509 855.608 121.032C856.243 121.536 856.56 122.292 856.56 123.3C856.56 124.308 856.252 125.092 855.636 125.652C855.02 126.212 854.236 126.492 853.284 126.492C852.799 126.492 852.342 126.427 851.912 126.296C851.483 126.165 851.11 125.969 850.792 125.708C850.475 125.447 850.223 125.12 850.036 124.728C849.85 124.317 849.756 123.841 849.756 123.3ZM847.236 123.216C847.236 124.112 847.488 124.943 847.992 125.708C848.496 126.455 849.168 126.996 850.008 127.332C848.888 127.724 848.03 128.359 847.432 129.236C846.835 130.095 846.536 131.112 846.536 132.288C846.536 133.296 846.704 134.183 847.04 134.948C847.395 135.695 847.871 136.32 848.468 136.824C849.084 137.328 849.803 137.701 850.624 137.944C851.446 138.187 852.332 138.308 853.284 138.308C854.199 138.308 855.058 138.177 855.86 137.916C856.663 137.655 857.354 137.272 857.932 136.768C858.53 136.245 858.996 135.611 859.332 134.864C859.687 134.117 859.864 133.259 859.864 132.288C859.864 131.056 859.575 130.02 858.996 129.18C858.418 128.321 857.531 127.705 856.336 127.332C857.176 126.959 857.839 126.408 858.324 125.68C858.828 124.933 859.08 124.112 859.08 123.216C859.08 122.581 858.968 121.965 858.744 121.368C858.52 120.752 858.166 120.211 857.68 119.744C857.214 119.259 856.598 118.876 855.832 118.596C855.067 118.297 854.143 118.148 853.06 118.148C852.295 118.148 851.558 118.26 850.848 118.484C850.158 118.708 849.542 119.035 849 119.464C848.459 119.893 848.03 120.425 847.712 121.06C847.395 121.676 847.236 122.395 847.236 123.216ZM849.056 132.4C849.056 131.821 849.159 131.299 849.364 130.832C849.588 130.365 849.887 129.964 850.26 129.628C850.652 129.292 851.1 129.04 851.604 128.872C852.127 128.685 852.678 128.592 853.256 128.592C853.816 128.592 854.339 128.695 854.824 128.9C855.328 129.087 855.767 129.348 856.14 129.684C856.514 130.02 856.803 130.421 857.008 130.888C857.232 131.336 857.344 131.831 857.344 132.372C857.344 132.932 857.242 133.445 857.036 133.912C856.85 134.379 856.57 134.789 856.196 135.144C855.842 135.48 855.412 135.751 854.908 135.956C854.423 136.143 853.882 136.236 853.284 136.236C852.052 136.236 851.035 135.9 850.232 135.228C849.448 134.537 849.056 133.595 849.056 132.4ZM738.018 165.624V178H740.398V165.624H743.198V163.524H740.398V161.508C740.398 160.873 740.556 160.444 740.874 160.22C741.191 159.996 741.639 159.884 742.218 159.884C742.423 159.884 742.647 159.903 742.89 159.94C743.132 159.959 743.356 160.005 743.562 160.08V158.008C743.338 157.933 743.076 157.877 742.778 157.84C742.498 157.803 742.246 157.784 742.022 157.784C740.715 157.784 739.716 158.092 739.026 158.708C738.354 159.305 738.018 160.192 738.018 161.368V163.524H735.582V165.624H738.018ZM754.843 183.516H756.663C755.338 181.369 754.386 179.241 753.807 177.132C753.247 175.023 752.967 172.792 752.967 170.44C752.967 168.144 753.247 165.951 753.807 163.86C754.367 161.769 755.319 159.66 756.663 157.532H754.843C753.387 159.455 752.286 161.536 751.539 163.776C750.811 166.016 750.447 168.237 750.447 170.44C750.447 171.672 750.55 172.848 750.755 173.968C750.96 175.088 751.25 176.18 751.623 177.244C752.015 178.308 752.482 179.353 753.023 180.38C753.564 181.425 754.171 182.471 754.843 183.516ZM765.505 170.888C765.505 170.179 765.58 169.488 765.729 168.816C765.878 168.144 766.121 167.547 766.457 167.024C766.793 166.501 767.241 166.081 767.801 165.764C768.361 165.447 769.042 165.288 769.845 165.288C770.666 165.288 771.366 165.447 771.945 165.764C772.524 166.063 772.99 166.464 773.345 166.968C773.718 167.472 773.989 168.06 774.157 168.732C774.325 169.385 774.409 170.067 774.409 170.776C774.409 171.448 774.325 172.111 774.157 172.764C774.008 173.417 773.756 174.005 773.401 174.528C773.046 175.032 772.589 175.443 772.029 175.76C771.469 176.077 770.788 176.236 769.985 176.236C769.22 176.236 768.548 176.087 767.969 175.788C767.409 175.489 766.942 175.088 766.569 174.584C766.214 174.08 765.944 173.511 765.757 172.876C765.589 172.223 765.505 171.56 765.505 170.888ZM776.705 178V158.008H774.325V165.456H774.269C774.008 165.027 773.681 164.672 773.289 164.392C772.916 164.093 772.514 163.86 772.085 163.692C771.656 163.505 771.226 163.375 770.797 163.3C770.368 163.225 769.966 163.188 769.593 163.188C768.492 163.188 767.521 163.393 766.681 163.804C765.86 164.196 765.169 164.737 764.609 165.428C764.068 166.1 763.657 166.893 763.377 167.808C763.116 168.723 762.985 169.693 762.985 170.72C762.985 171.747 763.125 172.717 763.405 173.632C763.685 174.547 764.096 175.349 764.637 176.04C765.197 176.731 765.888 177.281 766.709 177.692C767.549 178.103 768.529 178.308 769.649 178.308C770.657 178.308 771.581 178.131 772.421 177.776C773.261 177.421 773.877 176.843 774.269 176.04H774.325V178H776.705ZM783.923 183.516H785.715C787.171 181.593 788.263 179.521 788.991 177.3C789.737 175.06 790.111 172.839 790.111 170.636C790.111 169.404 790.008 168.228 789.803 167.108C789.597 165.988 789.299 164.896 788.907 163.832C788.533 162.749 788.076 161.695 787.535 160.668C786.993 159.623 786.387 158.577 785.715 157.532H783.923C785.229 159.679 786.163 161.816 786.723 163.944C787.301 166.053 787.591 168.284 787.591 170.636C787.591 172.913 787.311 175.107 786.751 177.216C786.191 179.307 785.248 181.407 783.923 183.516ZM811.758 172.792V174.696H825.87V172.792H811.758ZM825.87 169.04V167.136H811.758V169.04H825.87ZM852.3 166.66V168.676C852.748 168.62 853.224 168.592 853.728 168.592C854.325 168.592 854.876 168.676 855.38 168.844C855.902 168.993 856.35 169.236 856.724 169.572C857.097 169.889 857.396 170.291 857.62 170.776C857.844 171.243 857.956 171.784 857.956 172.4C857.956 172.997 857.834 173.539 857.592 174.024C857.368 174.491 857.06 174.892 856.668 175.228C856.276 175.545 855.818 175.797 855.296 175.984C854.773 176.152 854.222 176.236 853.644 176.236C852.281 176.236 851.245 175.835 850.536 175.032C849.826 174.211 849.453 173.156 849.416 171.868H847.036C847.017 172.895 847.157 173.809 847.456 174.612C847.773 175.415 848.221 176.096 848.8 176.656C849.378 177.197 850.078 177.608 850.9 177.888C851.721 178.168 852.636 178.308 853.644 178.308C854.577 178.308 855.454 178.187 856.276 177.944C857.116 177.683 857.844 177.3 858.46 176.796C859.076 176.292 859.561 175.667 859.916 174.92C860.289 174.155 860.476 173.277 860.476 172.288C860.476 171.093 860.177 170.057 859.58 169.18C859.001 168.303 858.105 167.733 856.892 167.472V167.416C857.676 167.061 858.329 166.539 858.852 165.848C859.374 165.157 859.636 164.364 859.636 163.468C859.636 162.553 859.477 161.76 859.16 161.088C858.861 160.416 858.441 159.865 857.9 159.436C857.358 159.007 856.714 158.689 855.968 158.484C855.24 158.26 854.446 158.148 853.588 158.148C852.598 158.148 851.721 158.307 850.956 158.624C850.209 158.941 849.584 159.38 849.08 159.94C848.576 160.5 848.184 161.172 847.904 161.956C847.642 162.74 847.493 163.608 847.456 164.56H849.836C849.836 163.981 849.91 163.431 850.06 162.908C850.209 162.385 850.433 161.928 850.732 161.536C851.049 161.144 851.441 160.836 851.908 160.612C852.393 160.369 852.953 160.248 853.588 160.248C854.596 160.248 855.436 160.519 856.108 161.06C856.78 161.583 857.116 162.376 857.116 163.44C857.116 163.963 857.013 164.429 856.808 164.84C856.602 165.251 856.322 165.596 855.968 165.876C855.632 166.137 855.23 166.343 854.764 166.492C854.316 166.623 853.84 166.688 853.336 166.688H852.832C852.738 166.688 852.645 166.688 852.552 166.688C852.477 166.688 852.393 166.679 852.3 166.66ZM738.797 205.624V218H741.177V205.624H743.977V203.524H741.177V201.508C741.177 200.873 741.336 200.444 741.653 200.22C741.97 199.996 742.418 199.884 742.997 199.884C743.202 199.884 743.426 199.903 743.669 199.94C743.912 199.959 744.136 200.005 744.341 200.08V198.008C744.117 197.933 743.856 197.877 743.557 197.84C743.277 197.803 743.025 197.784 742.801 197.784C741.494 197.784 740.496 198.092 739.805 198.708C739.133 199.305 738.797 200.192 738.797 201.368V203.524H736.361V205.624H738.797ZM755.622 223.516H757.442C756.117 221.369 755.165 219.241 754.586 217.132C754.026 215.023 753.746 212.792 753.746 210.44C753.746 208.144 754.026 205.951 754.586 203.86C755.146 201.769 756.098 199.66 757.442 197.532H755.622C754.166 199.455 753.065 201.536 752.318 203.776C751.59 206.016 751.226 208.237 751.226 210.44C751.226 211.672 751.329 212.848 751.534 213.968C751.739 215.088 752.029 216.18 752.402 217.244C752.794 218.308 753.261 219.353 753.802 220.38C754.343 221.425 754.95 222.471 755.622 223.516ZM774.6 209.376H766.284C766.322 208.816 766.443 208.293 766.648 207.808C766.854 207.304 767.134 206.865 767.488 206.492C767.843 206.119 768.263 205.829 768.748 205.624C769.252 205.4 769.812 205.288 770.428 205.288C771.026 205.288 771.567 205.4 772.052 205.624C772.556 205.829 772.986 206.119 773.34 206.492C773.714 206.847 774.003 207.276 774.208 207.78C774.432 208.284 774.563 208.816 774.6 209.376ZM776.896 213.408H774.544C774.339 214.36 773.91 215.069 773.256 215.536C772.622 216.003 771.8 216.236 770.792 216.236C770.008 216.236 769.327 216.105 768.748 215.844C768.17 215.583 767.694 215.237 767.32 214.808C766.947 214.36 766.676 213.856 766.508 213.296C766.34 212.717 766.266 212.111 766.284 211.476H777.12C777.158 210.599 777.074 209.675 776.868 208.704C776.682 207.733 776.327 206.837 775.804 206.016C775.3 205.195 774.619 204.523 773.76 204C772.92 203.459 771.856 203.188 770.568 203.188C769.579 203.188 768.664 203.375 767.824 203.748C767.003 204.121 766.284 204.644 765.668 205.316C765.071 205.988 764.604 206.781 764.268 207.696C763.932 208.611 763.764 209.619 763.764 210.72C763.802 211.821 763.96 212.839 764.24 213.772C764.539 214.705 764.978 215.508 765.556 216.18C766.135 216.852 766.844 217.375 767.684 217.748C768.543 218.121 769.551 218.308 770.708 218.308C772.351 218.308 773.714 217.897 774.796 217.076C775.879 216.255 776.579 215.032 776.896 213.408ZM783.143 223.516H784.935C786.391 221.593 787.483 219.521 788.211 217.3C788.958 215.06 789.331 212.839 789.331 210.636C789.331 209.404 789.229 208.228 789.023 207.108C788.818 205.988 788.519 204.896 788.127 203.832C787.754 202.749 787.297 201.695 786.755 200.668C786.214 199.623 785.607 198.577 784.935 197.532H783.143C784.45 199.679 785.383 201.816 785.943 203.944C786.522 206.053 786.811 208.284 786.811 210.636C786.811 212.913 786.531 215.107 785.971 217.216C785.411 219.307 784.469 221.407 783.143 223.516ZM810.978 212.792V214.696H825.09V212.792H810.978ZM825.09 209.04V207.136H810.978V209.04H825.09ZM858.576 200.584V198.484H848.776L846.928 208.788L848.972 208.9C849.439 208.34 849.971 207.892 850.568 207.556C851.184 207.201 851.884 207.024 852.668 207.024C853.34 207.024 853.947 207.136 854.488 207.36C855.048 207.584 855.524 207.901 855.916 208.312C856.308 208.704 856.607 209.18 856.812 209.74C857.036 210.281 857.148 210.879 857.148 211.532C857.148 212.316 857.036 213.007 856.812 213.604C856.588 214.183 856.28 214.668 855.888 215.06C855.515 215.452 855.067 215.751 854.544 215.956C854.04 216.143 853.508 216.236 852.948 216.236C852.351 216.236 851.8 216.152 851.296 215.984C850.811 215.797 850.382 215.545 850.008 215.228C849.654 214.892 849.364 214.509 849.14 214.08C848.935 213.632 848.814 213.156 848.776 212.652H846.396C846.415 213.548 846.592 214.351 846.928 215.06C847.264 215.769 847.722 216.367 848.3 216.852C848.879 217.319 849.542 217.683 850.288 217.944C851.054 218.187 851.866 218.308 852.724 218.308C853.882 218.308 854.89 218.131 855.748 217.776C856.626 217.403 857.354 216.908 857.932 216.292C858.511 215.676 858.94 214.976 859.22 214.192C859.519 213.389 859.668 212.568 859.668 211.728C859.668 210.589 859.5 209.6 859.164 208.76C858.828 207.901 858.371 207.192 857.792 206.632C857.214 206.053 856.532 205.624 855.748 205.344C854.964 205.064 854.134 204.924 853.256 204.924C852.584 204.924 851.903 205.045 851.212 205.288C850.54 205.512 849.99 205.867 849.56 206.352L849.504 206.296L850.568 200.584H858.576ZM742.174 245.624V258H744.554V245.624H747.354V243.524H744.554V241.508C744.554 240.873 744.713 240.444 745.03 240.22C745.347 239.996 745.795 239.884 746.374 239.884C746.579 239.884 746.803 239.903 747.046 239.94C747.289 239.959 747.513 240.005 747.718 240.08V238.008C747.494 237.933 747.233 237.877 746.934 237.84C746.654 237.803 746.402 237.784 746.178 237.784C744.871 237.784 743.873 238.092 743.182 238.708C742.51 239.305 742.174 240.192 742.174 241.368V243.524H739.738V245.624H742.174ZM758.999 263.516H760.819C759.494 261.369 758.542 259.241 757.963 257.132C757.403 255.023 757.123 252.792 757.123 250.44C757.123 248.144 757.403 245.951 757.963 243.86C758.523 241.769 759.475 239.66 760.819 237.532H758.999C757.543 239.455 756.442 241.536 755.695 243.776C754.967 246.016 754.603 248.237 754.603 250.44C754.603 251.672 754.706 252.848 754.911 253.968C755.116 255.088 755.406 256.18 755.779 257.244C756.171 258.308 756.638 259.353 757.179 260.38C757.72 261.425 758.327 262.471 758.999 263.516ZM768.905 245.624V258H771.285V245.624H774.085V243.524H771.285V241.508C771.285 240.873 771.444 240.444 771.761 240.22C772.079 239.996 772.527 239.884 773.105 239.884C773.311 239.884 773.535 239.903 773.777 239.94C774.02 239.959 774.244 240.005 774.449 240.08V238.008C774.225 237.933 773.964 237.877 773.665 237.84C773.385 237.803 773.133 237.784 772.909 237.784C771.603 237.784 770.604 238.092 769.913 238.708C769.241 239.305 768.905 240.192 768.905 241.368V243.524H766.469V245.624H768.905ZM779.766 263.516H781.558C783.014 261.593 784.106 259.521 784.834 257.3C785.581 255.06 785.954 252.839 785.954 250.636C785.954 249.404 785.852 248.228 785.646 247.108C785.441 245.988 785.142 244.896 784.75 243.832C784.377 242.749 783.92 241.695 783.378 240.668C782.837 239.623 782.23 238.577 781.558 237.532H779.766C781.073 239.679 782.006 241.816 782.566 243.944C783.145 246.053 783.434 248.284 783.434 250.636C783.434 252.913 783.154 255.107 782.594 257.216C782.034 259.307 781.092 261.407 779.766 263.516ZM807.601 252.792V254.696H821.713V252.792H807.601ZM821.713 249.04V247.136H807.601V249.04H821.713ZM843.271 245.176H845.651C845.633 244.579 845.689 243.991 845.819 243.412C845.969 242.815 846.202 242.283 846.519 241.816C846.837 241.349 847.238 240.976 847.723 240.696C848.227 240.397 848.825 240.248 849.515 240.248C850.038 240.248 850.533 240.332 850.999 240.5C851.466 240.668 851.867 240.911 852.203 241.228C852.558 241.545 852.838 241.928 853.043 242.376C853.249 242.805 853.351 243.291 853.351 243.832C853.351 244.523 853.239 245.129 853.015 245.652C852.81 246.175 852.493 246.66 852.063 247.108C851.653 247.556 851.13 248.004 850.495 248.452C849.861 248.881 849.123 249.357 848.283 249.88C847.593 250.291 846.93 250.729 846.295 251.196C845.661 251.663 845.091 252.204 844.587 252.82C844.083 253.436 843.663 254.164 843.327 255.004C843.01 255.825 842.805 256.824 842.711 258H855.675V255.9H845.483C845.595 255.284 845.829 254.743 846.183 254.276C846.557 253.791 846.995 253.343 847.499 252.932C848.022 252.521 848.591 252.139 849.207 251.784C849.823 251.411 850.439 251.037 851.055 250.664C851.671 250.272 852.269 249.861 852.847 249.432C853.426 249.003 853.939 248.527 854.387 248.004C854.835 247.463 855.19 246.856 855.451 246.184C855.731 245.512 855.871 244.737 855.871 243.86C855.871 242.927 855.703 242.105 855.367 241.396C855.05 240.687 854.611 240.099 854.051 239.632C853.491 239.147 852.829 238.783 852.063 238.54C851.317 238.279 850.514 238.148 849.655 238.148C848.61 238.148 847.677 238.325 846.855 238.68C846.034 239.035 845.343 239.529 844.783 240.164C844.242 240.78 843.841 241.517 843.579 242.376C843.318 243.235 843.215 244.168 843.271 245.176ZM738.277 285.624V298H740.657V285.624H743.457V283.524H740.657V281.508C740.657 280.873 740.816 280.444 741.133 280.22C741.451 279.996 741.899 279.884 742.477 279.884C742.683 279.884 742.907 279.903 743.149 279.94C743.392 279.959 743.616 280.005 743.821 280.08V278.008C743.597 277.933 743.336 277.877 743.037 277.84C742.757 277.803 742.505 277.784 742.281 277.784C740.975 277.784 739.976 278.092 739.285 278.708C738.613 279.305 738.277 280.192 738.277 281.368V283.524H735.841V285.624H738.277ZM755.103 303.516H756.923C755.597 301.369 754.645 299.241 754.067 297.132C753.507 295.023 753.227 292.792 753.227 290.44C753.227 288.144 753.507 285.951 754.067 283.86C754.627 281.769 755.579 279.66 756.923 277.532H755.103C753.647 279.455 752.545 281.536 751.799 283.776C751.071 286.016 750.707 288.237 750.707 290.44C750.707 291.672 750.809 292.848 751.015 293.968C751.22 295.088 751.509 296.18 751.883 297.244C752.275 298.308 752.741 299.353 753.283 300.38C753.824 301.425 754.431 302.471 755.103 303.516ZM776.517 296.768V283.524H774.277V285.596H774.249C773.819 284.793 773.222 284.196 772.457 283.804C771.691 283.393 770.851 283.188 769.937 283.188C768.686 283.188 767.631 283.431 766.773 283.916C765.914 284.383 765.223 284.989 764.701 285.736C764.178 286.464 763.805 287.285 763.581 288.2C763.357 289.096 763.245 289.973 763.245 290.832C763.245 291.821 763.375 292.764 763.637 293.66C763.917 294.537 764.327 295.312 764.869 295.984C765.41 296.637 766.082 297.16 766.885 297.552C767.687 297.944 768.63 298.14 769.713 298.14C770.646 298.14 771.523 297.935 772.345 297.524C773.185 297.095 773.81 296.432 774.221 295.536H774.277V296.488C774.277 297.291 774.193 298.028 774.025 298.7C773.875 299.372 773.623 299.941 773.269 300.408C772.914 300.893 772.466 301.267 771.925 301.528C771.383 301.808 770.721 301.948 769.937 301.948C769.545 301.948 769.134 301.901 768.705 301.808C768.275 301.733 767.874 301.603 767.501 301.416C767.146 301.229 766.838 300.987 766.577 300.688C766.334 300.389 766.203 300.025 766.185 299.596H763.805C763.842 300.38 764.047 301.043 764.421 301.584C764.794 302.125 765.261 302.564 765.821 302.9C766.399 303.236 767.034 303.479 767.725 303.628C768.434 303.777 769.125 303.852 769.797 303.852C772.111 303.852 773.81 303.264 774.893 302.088C775.975 300.912 776.517 299.139 776.517 296.768ZM769.853 296.068C769.069 296.068 768.415 295.909 767.893 295.592C767.37 295.256 766.95 294.827 766.633 294.304C766.315 293.763 766.091 293.165 765.961 292.512C765.83 291.859 765.765 291.205 765.765 290.552C765.765 289.861 765.839 289.199 765.989 288.564C766.157 287.929 766.409 287.369 766.745 286.884C767.099 286.399 767.547 286.016 768.089 285.736C768.63 285.437 769.283 285.288 770.049 285.288C770.795 285.288 771.43 285.437 771.953 285.736C772.475 286.035 772.895 286.436 773.213 286.94C773.549 287.425 773.791 287.976 773.941 288.592C774.09 289.208 774.165 289.833 774.165 290.468C774.165 291.14 774.081 291.812 773.913 292.484C773.763 293.156 773.521 293.763 773.185 294.304C772.849 294.827 772.401 295.256 771.841 295.592C771.299 295.909 770.637 296.068 769.853 296.068ZM783.663 303.516H785.455C786.911 301.593 788.003 299.521 788.731 297.3C789.478 295.06 789.851 292.839 789.851 290.636C789.851 289.404 789.748 288.228 789.543 287.108C789.338 285.988 789.039 284.896 788.647 283.832C788.274 282.749 787.816 281.695 787.275 280.668C786.734 279.623 786.127 278.577 785.455 277.532H783.663C784.97 279.679 785.903 281.816 786.463 283.944C787.042 286.053 787.331 288.284 787.331 290.636C787.331 292.913 787.051 295.107 786.491 297.216C785.931 299.307 784.988 301.407 783.663 303.516ZM811.498 292.792V294.696H825.61V292.792H811.498ZM825.61 289.04V287.136H811.498V289.04H825.61ZM855.428 291.252H848.764L855.372 281.536H855.428V291.252ZM857.668 291.252V278.148H855.764L846.72 291.056V293.352H855.428V298H857.668V293.352H860.356V291.252H857.668ZM738.537 325.624V338H740.917V325.624H743.717V323.524H740.917V321.508C740.917 320.873 741.076 320.444 741.393 320.22C741.711 319.996 742.159 319.884 742.737 319.884C742.943 319.884 743.167 319.903 743.409 319.94C743.652 319.959 743.876 320.005 744.081 320.08V318.008C743.857 317.933 743.596 317.877 743.297 317.84C743.017 317.803 742.765 317.784 742.541 317.784C741.235 317.784 740.236 318.092 739.545 318.708C738.873 319.305 738.537 320.192 738.537 321.368V323.524H736.101V325.624H738.537ZM755.362 343.516H757.182C755.857 341.369 754.905 339.241 754.326 337.132C753.766 335.023 753.486 332.792 753.486 330.44C753.486 328.144 753.766 325.951 754.326 323.86C754.886 321.769 755.838 319.66 757.182 317.532H755.362C753.906 319.455 752.805 321.536 752.058 323.776C751.33 326.016 750.966 328.237 750.966 330.44C750.966 331.672 751.069 332.848 751.274 333.968C751.48 335.088 751.769 336.18 752.142 337.244C752.534 338.308 753.001 339.353 753.542 340.38C754.084 341.425 754.69 342.471 755.362 343.516ZM764.288 318.008V338H766.668V329.824C766.668 329.171 766.752 328.573 766.92 328.032C767.107 327.472 767.378 326.987 767.732 326.576C768.087 326.165 768.526 325.848 769.048 325.624C769.59 325.4 770.224 325.288 770.952 325.288C771.867 325.288 772.586 325.549 773.108 326.072C773.631 326.595 773.892 327.304 773.892 328.2V338H776.272V328.48C776.272 327.696 776.188 326.987 776.02 326.352C775.871 325.699 775.6 325.139 775.208 324.672C774.816 324.205 774.303 323.841 773.668 323.58C773.034 323.319 772.24 323.188 771.288 323.188C770.859 323.188 770.411 323.235 769.944 323.328C769.496 323.421 769.058 323.571 768.628 323.776C768.218 323.963 767.844 324.215 767.508 324.532C767.172 324.831 766.911 325.204 766.724 325.652H766.668V318.008H764.288ZM783.403 343.516H785.195C786.651 341.593 787.743 339.521 788.471 337.3C789.218 335.06 789.591 332.839 789.591 330.636C789.591 329.404 789.488 328.228 789.283 327.108C789.078 325.988 788.779 324.896 788.387 323.832C788.014 322.749 787.556 321.695 787.015 320.668C786.474 319.623 785.867 318.577 785.195 317.532H783.403C784.71 319.679 785.643 321.816 786.203 323.944C786.782 326.053 787.071 328.284 787.071 330.636C787.071 332.913 786.791 335.107 786.231 337.216C785.671 339.307 784.728 341.407 783.403 343.516ZM811.238 332.792V334.696H825.35V332.792H811.238ZM825.35 329.04V327.136H811.238V329.04H825.35ZM859.928 320.528V318.484H847.076V320.724H857.492C856.447 321.825 855.467 323.029 854.552 324.336C853.656 325.643 852.863 327.033 852.172 328.508C851.482 329.964 850.912 331.495 850.464 333.1C850.035 334.687 849.764 336.32 849.652 338H852.312C852.406 336.451 852.667 334.855 853.096 333.212C853.526 331.569 854.076 329.973 854.748 328.424C855.439 326.875 856.223 325.419 857.1 324.056C857.978 322.693 858.92 321.517 859.928 320.528Z" fill="black"/>
<path d="M16.0413 15.976C15.8653 16.08 15.6213 16.132 15.3093 16.132C15.0453 16.132 14.8333 16.06 14.6733 15.916C14.5213 15.764 14.4453 15.52 14.4453 15.184C14.1653 15.52 13.8373 15.764 13.4613 15.916C13.0933 16.06 12.6933 16.132 12.2613 16.132C11.9813 16.132 11.7133 16.1 11.4573 16.036C11.2093 15.972 10.9933 15.872 10.8093 15.736C10.6253 15.6 10.4773 15.424 10.3653 15.208C10.2613 14.984 10.2093 14.716 10.2093 14.404C10.2093 14.052 10.2693 13.764 10.3893 13.54C10.5093 13.316 10.6653 13.136 10.8573 13C11.0573 12.856 11.2813 12.748 11.5293 12.676C11.7853 12.604 12.0453 12.544 12.3093 12.496C12.5893 12.44 12.8533 12.4 13.1013 12.376C13.3573 12.344 13.5813 12.304 13.7733 12.256C13.9653 12.2 14.1173 12.124 14.2293 12.028C14.3413 11.924 14.3973 11.776 14.3973 11.584C14.3973 11.36 14.3533 11.18 14.2653 11.044C14.1853 10.908 14.0773 10.804 13.9413 10.732C13.8133 10.66 13.6653 10.612 13.4973 10.588C13.3373 10.564 13.1773 10.552 13.0173 10.552C12.5853 10.552 12.2253 10.636 11.9373 10.804C11.6493 10.964 11.4933 11.272 11.4693 11.728H10.4493C10.4653 11.344 10.5453 11.02 10.6893 10.756C10.8333 10.492 11.0253 10.28 11.2653 10.12C11.5053 9.952 11.7773 9.832 12.0813 9.76C12.3933 9.688 12.7253 9.652 13.0773 9.652C13.3573 9.652 13.6333 9.672 13.9053 9.712C14.1853 9.752 14.4373 9.836 14.6613 9.964C14.8853 10.084 15.0653 10.256 15.2013 10.48C15.3373 10.704 15.4053 10.996 15.4053 11.356V14.548C15.4053 14.788 15.4173 14.964 15.4413 15.076C15.4733 15.188 15.5693 15.244 15.7293 15.244C15.8173 15.244 15.9213 15.224 16.0413 15.184V15.976ZM14.3853 12.796C14.2573 12.892 14.0893 12.964 13.8813 13.012C13.6733 13.052 13.4533 13.088 13.2213 13.12C12.9973 13.144 12.7693 13.176 12.5373 13.216C12.3053 13.248 12.0973 13.304 11.9133 13.384C11.7293 13.464 11.5773 13.58 11.4573 13.732C11.3453 13.876 11.2893 14.076 11.2893 14.332C11.2893 14.5 11.3213 14.644 11.3853 14.764C11.4573 14.876 11.5453 14.968 11.6493 15.04C11.7613 15.112 11.8893 15.164 12.0333 15.196C12.1773 15.228 12.3293 15.244 12.4893 15.244C12.8253 15.244 13.1133 15.2 13.3533 15.112C13.5933 15.016 13.7893 14.9 13.9413 14.764C14.0933 14.62 14.2053 14.468 14.2773 14.308C14.3493 14.14 14.3853 13.984 14.3853 13.84V12.796Z" fill="black"/>
<path d="M272.734 359.108H269.878L272.71 354.944H272.734V359.108ZM273.694 359.108V353.492H272.878L269.002 359.024V360.008H272.734V362H273.694V360.008H274.846V359.108H273.694Z" fill="black"/>
<path d="M571.282 357.14V358.004C571.474 357.98 571.678 357.968 571.894 357.968C572.15 357.968 572.386 358.004 572.602 358.076C572.826 358.14 573.018 358.244 573.178 358.388C573.338 358.524 573.466 358.696 573.562 358.904C573.658 359.104 573.706 359.336 573.706 359.6C573.706 359.856 573.654 360.088 573.55 360.296C573.454 360.496 573.322 360.668 573.154 360.812C572.986 360.948 572.79 361.056 572.566 361.136C572.342 361.208 572.106 361.244 571.858 361.244C571.274 361.244 570.83 361.072 570.526 360.728C570.222 360.376 570.062 359.924 570.046 359.372H569.026C569.018 359.812 569.078 360.204 569.206 360.548C569.342 360.892 569.534 361.184 569.782 361.424C570.03 361.656 570.33 361.832 570.682 361.952C571.034 362.072 571.426 362.132 571.858 362.132C572.258 362.132 572.634 362.08 572.986 361.976C573.346 361.864 573.658 361.7 573.922 361.484C574.186 361.268 574.394 361 574.546 360.68C574.706 360.352 574.786 359.976 574.786 359.552C574.786 359.04 574.658 358.596 574.402 358.22C574.154 357.844 573.77 357.6 573.25 357.488V357.464C573.586 357.312 573.866 357.088 574.09 356.792C574.314 356.496 574.426 356.156 574.426 355.772C574.426 355.38 574.358 355.04 574.222 354.752C574.094 354.464 573.914 354.228 573.682 354.044C573.45 353.86 573.174 353.724 572.854 353.636C572.542 353.54 572.202 353.492 571.834 353.492C571.41 353.492 571.034 353.56 570.706 353.696C570.386 353.832 570.118 354.02 569.902 354.26C569.686 354.5 569.518 354.788 569.398 355.124C569.286 355.46 569.222 355.832 569.206 356.24H570.226C570.226 355.992 570.258 355.756 570.322 355.532C570.386 355.308 570.482 355.112 570.61 354.944C570.746 354.776 570.914 354.644 571.114 354.548C571.322 354.444 571.562 354.392 571.834 354.392C572.266 354.392 572.626 354.508 572.914 354.74C573.202 354.964 573.346 355.304 573.346 355.76C573.346 355.984 573.302 356.184 573.214 356.36C573.126 356.536 573.006 356.684 572.854 356.804C572.71 356.916 572.538 357.004 572.338 357.068C572.146 357.124 571.942 357.152 571.726 357.152H571.51C571.47 357.152 571.43 357.152 571.39 357.152C571.358 357.152 571.322 357.148 571.282 357.14Z" fill="black"/>
<path d="M272.938 16V7.492H272.158C272.102 7.812 271.998 8.076 271.846 8.284C271.694 8.492 271.506 8.656 271.282 8.776C271.066 8.896 270.822 8.98 270.55 9.028C270.278 9.068 269.998 9.088 269.71 9.088V9.904H271.918V16H272.938Z" fill="black"/>
<path d="M569.194 10.504H570.214C570.206 10.248 570.23 9.996 570.286 9.748C570.35 9.492 570.45 9.264 570.586 9.064C570.722 8.864 570.894 8.704 571.102 8.584C571.318 8.456 571.574 8.392 571.87 8.392C572.094 8.392 572.306 8.428 572.506 8.5C572.706 8.572 572.878 8.676 573.022 8.812C573.174 8.948 573.294 9.112 573.382 9.304C573.47 9.488 573.514 9.696 573.514 9.928C573.514 10.224 573.466 10.484 573.37 10.708C573.282 10.932 573.146 11.14 572.962 11.332C572.786 11.524 572.562 11.716 572.29 11.908C572.018 12.092 571.702 12.296 571.342 12.52C571.046 12.696 570.762 12.884 570.49 13.084C570.218 13.284 569.974 13.516 569.758 13.78C569.542 14.044 569.362 14.356 569.218 14.716C569.082 15.068 568.994 15.496 568.954 16H574.51V15.1H570.142C570.19 14.836 570.29 14.604 570.442 14.404C570.602 14.196 570.79 14.004 571.006 13.828C571.23 13.652 571.474 13.488 571.738 13.336C572.002 13.176 572.266 13.016 572.53 12.856C572.794 12.688 573.05 12.512 573.298 12.328C573.546 12.144 573.766 11.94 573.958 11.716C574.15 11.484 574.302 11.224 574.414 10.936C574.534 10.648 574.594 10.316 574.594 9.94C574.594 9.54 574.522 9.188 574.378 8.884C574.242 8.58 574.054 8.328 573.814 8.128C573.574 7.92 573.29 7.764 572.962 7.66C572.642 7.548 572.298 7.492 571.93 7.492C571.482 7.492 571.082 7.568 570.73 7.72C570.378 7.872 570.082 8.084 569.842 8.356C569.61 8.62 569.438 8.936 569.326 9.304C569.214 9.672 569.17 10.072 569.194 10.504Z" fill="black"/>
<path d="M115.675 15.472V9.796H114.715V10.684H114.703C114.519 10.34 114.263 10.084 113.935 9.916C113.607 9.74 113.247 9.652 112.855 9.652C112.319 9.652 111.867 9.756 111.499 9.964C111.131 10.164 110.835 10.424 110.611 10.744C110.387 11.056 110.227 11.408 110.131 11.8C110.035 12.184 109.987 12.56 109.987 12.928C109.987 13.352 110.043 13.756 110.155 14.14C110.275 14.516 110.451 14.848 110.683 15.136C110.915 15.416 111.203 15.64 111.547 15.808C111.891 15.976 112.295 16.06 112.759 16.06C113.159 16.06 113.535 15.972 113.887 15.796C114.247 15.612 114.515 15.328 114.691 14.944H114.715V15.352C114.715 15.696 114.679 16.012 114.607 16.3C114.543 16.588 114.435 16.832 114.283 17.032C114.131 17.24 113.939 17.4 113.707 17.512C113.475 17.632 113.191 17.692 112.855 17.692C112.687 17.692 112.511 17.672 112.327 17.632C112.143 17.6 111.971 17.544 111.811 17.464C111.659 17.384 111.527 17.28 111.415 17.152C111.311 17.024 111.255 16.868 111.247 16.684H110.227C110.243 17.02 110.331 17.304 110.491 17.536C110.651 17.768 110.851 17.956 111.091 18.1C111.339 18.244 111.611 18.348 111.907 18.412C112.211 18.476 112.507 18.508 112.795 18.508C113.787 18.508 114.515 18.256 114.979 17.752C115.443 17.248 115.675 16.488 115.675 15.472ZM112.819 15.172C112.483 15.172 112.203 15.104 111.979 14.968C111.755 14.824 111.575 14.64 111.439 14.416C111.303 14.184 111.207 13.928 111.151 13.648C111.095 13.368 111.067 13.088 111.067 12.808C111.067 12.512 111.099 12.228 111.163 11.956C111.235 11.684 111.343 11.444 111.487 11.236C111.639 11.028 111.831 10.864 112.063 10.744C112.295 10.616 112.575 10.552 112.903 10.552C113.223 10.552 113.495 10.616 113.719 10.744C113.943 10.872 114.123 11.044 114.259 11.26C114.403 11.468 114.507 11.704 114.571 11.968C114.635 12.232 114.667 12.5 114.667 12.772C114.667 13.06 114.631 13.348 114.559 13.636C114.495 13.924 114.391 14.184 114.247 14.416C114.103 14.64 113.911 14.824 113.671 14.968C113.439 15.104 113.155 15.172 112.819 15.172Z" fill="black"/>
<path d="M10.2474 123.432V132H11.2674V131.172H11.2914C11.4034 131.356 11.5394 131.512 11.6994 131.64C11.8674 131.76 12.0434 131.856 12.2274 131.928C12.4114 132 12.5954 132.052 12.7794 132.084C12.9714 132.116 13.1434 132.132 13.2954 132.132C13.7674 132.132 14.1794 132.048 14.5314 131.88C14.8914 131.712 15.1874 131.484 15.4194 131.196C15.6594 130.9 15.8354 130.556 15.9474 130.164C16.0674 129.772 16.1274 129.356 16.1274 128.916C16.1274 128.476 16.0674 128.06 15.9474 127.668C15.8274 127.276 15.6474 126.932 15.4074 126.636C15.1754 126.332 14.8794 126.092 14.5194 125.916C14.1674 125.74 13.7514 125.652 13.2714 125.652C12.8394 125.652 12.4434 125.732 12.0834 125.892C11.7234 126.044 11.4594 126.292 11.2914 126.636H11.2674V123.432H10.2474ZM15.0474 128.844C15.0474 129.148 15.0154 129.444 14.9514 129.732C14.8874 130.02 14.7834 130.276 14.6394 130.5C14.4954 130.724 14.3034 130.904 14.0634 131.04C13.8314 131.176 13.5394 131.244 13.1874 131.244C12.8354 131.244 12.5354 131.18 12.2874 131.052C12.0394 130.916 11.8354 130.74 11.6754 130.524C11.5234 130.308 11.4114 130.06 11.3394 129.78C11.2674 129.492 11.2314 129.196 11.2314 128.892C11.2314 128.604 11.2634 128.32 11.3274 128.04C11.3994 127.76 11.5114 127.512 11.6634 127.296C11.8154 127.072 12.0114 126.892 12.2514 126.756C12.4914 126.62 12.7834 126.552 13.1274 126.552C13.4554 126.552 13.7394 126.616 13.9794 126.744C14.2274 126.872 14.4274 127.044 14.5794 127.26C14.7394 127.476 14.8554 127.724 14.9274 128.004C15.0074 128.276 15.0474 128.556 15.0474 128.844Z" fill="black"/>
<path d="M110.434 123.432V132H111.454V128.496C111.454 128.216 111.49 127.96 111.562 127.728C111.642 127.488 111.758 127.28 111.91 127.104C112.062 126.928 112.25 126.792 112.474 126.696C112.706 126.6 112.978 126.552 113.29 126.552C113.682 126.552 113.99 126.664 114.214 126.888C114.438 127.112 114.55 127.416 114.55 127.8V132H115.57V127.92C115.57 127.584 115.534 127.28 115.462 127.008C115.398 126.728 115.282 126.488 115.114 126.288C114.946 126.088 114.726 125.932 114.454 125.82C114.182 125.708 113.842 125.652 113.434 125.652C113.25 125.652 113.058 125.672 112.858 125.712C112.666 125.752 112.478 125.816 112.294 125.904C112.118 125.984 111.958 126.092 111.814 126.228C111.67 126.356 111.558 126.516 111.478 126.708H111.454V123.432H110.434Z" fill="black"/>
<path d="M14.7573 242.788H15.8133C15.7733 242.42 15.6773 242.104 15.5253 241.84C15.3733 241.568 15.1773 241.344 14.9373 241.168C14.7053 240.992 14.4333 240.864 14.1213 240.784C13.8173 240.696 13.4893 240.652 13.1373 240.652C12.6493 240.652 12.2213 240.74 11.8533 240.916C11.4853 241.084 11.1773 241.32 10.9293 241.624C10.6893 241.92 10.5093 242.272 10.3893 242.68C10.2693 243.08 10.2093 243.512 10.2093 243.976C10.2093 244.44 10.2693 244.868 10.3893 245.26C10.5173 245.644 10.7013 245.976 10.9413 246.256C11.1893 246.536 11.4933 246.752 11.8533 246.904C12.2213 247.056 12.6413 247.132 13.1133 247.132C13.9053 247.132 14.5293 246.924 14.9853 246.508C15.4493 246.092 15.7373 245.5 15.8493 244.732H14.8053C14.7413 245.212 14.5653 245.584 14.2773 245.848C13.9973 246.112 13.6053 246.244 13.1013 246.244C12.7813 246.244 12.5053 246.18 12.2733 246.052C12.0413 245.924 11.8533 245.756 11.7093 245.548C11.5653 245.332 11.4573 245.088 11.3853 244.816C11.3213 244.544 11.2893 244.264 11.2893 243.976C11.2893 243.664 11.3213 243.364 11.3853 243.076C11.4493 242.78 11.5533 242.52 11.6973 242.296C11.8493 242.072 12.0493 241.892 12.2973 241.756C12.5453 241.62 12.8533 241.552 13.2213 241.552C13.6533 241.552 13.9973 241.66 14.2533 241.876C14.5093 242.092 14.6773 242.396 14.7573 242.788Z" fill="black"/>
<path d="M113.518 239.68V238.432H112.498V239.68H113.518ZM112.498 240.796V247H113.518V240.796H112.498Z" fill="black"/>
<path d="M374.306 123.536V122.636H370.106L369.314 127.052L370.19 127.1C370.39 126.86 370.618 126.668 370.874 126.524C371.138 126.372 371.438 126.296 371.774 126.296C372.062 126.296 372.322 126.344 372.554 126.44C372.794 126.536 372.998 126.672 373.166 126.848C373.334 127.016 373.462 127.22 373.55 127.46C373.646 127.692 373.694 127.948 373.694 128.228C373.694 128.564 373.646 128.86 373.55 129.116C373.454 129.364 373.322 129.572 373.154 129.74C372.994 129.908 372.802 130.036 372.578 130.124C372.362 130.204 372.134 130.244 371.894 130.244C371.638 130.244 371.402 130.208 371.186 130.136C370.978 130.056 370.794 129.948 370.634 129.812C370.482 129.668 370.358 129.504 370.262 129.32C370.174 129.128 370.122 128.924 370.106 128.708H369.086C369.094 129.092 369.17 129.436 369.314 129.74C369.458 130.044 369.654 130.3 369.902 130.508C370.15 130.708 370.434 130.864 370.754 130.976C371.082 131.08 371.43 131.132 371.798 131.132C372.294 131.132 372.726 131.056 373.094 130.904C373.47 130.744 373.782 130.532 374.03 130.268C374.278 130.004 374.462 129.704 374.582 129.368C374.71 129.024 374.774 128.672 374.774 128.312C374.774 127.824 374.702 127.4 374.558 127.04C374.414 126.672 374.218 126.368 373.97 126.128C373.722 125.88 373.43 125.696 373.094 125.576C372.758 125.456 372.402 125.396 372.026 125.396C371.738 125.396 371.446 125.448 371.15 125.552C370.862 125.648 370.626 125.8 370.442 126.008L370.418 125.984L370.874 123.536H374.306Z" fill="black"/>
<path d="M473.634 124.664H474.654C474.59 123.96 474.35 123.424 473.934 123.056C473.518 122.68 472.958 122.492 472.254 122.492C471.646 122.492 471.142 122.62 470.742 122.876C470.342 123.132 470.022 123.472 469.782 123.896C469.542 124.32 469.37 124.808 469.266 125.36C469.17 125.904 469.122 126.468 469.122 127.052C469.122 127.5 469.154 127.964 469.218 128.444C469.29 128.924 469.43 129.364 469.638 129.764C469.846 130.164 470.142 130.492 470.526 130.748C470.91 131.004 471.418 131.132 472.05 131.132C472.586 131.132 473.034 131.044 473.394 130.868C473.762 130.684 474.054 130.456 474.27 130.184C474.494 129.904 474.654 129.596 474.75 129.26C474.846 128.924 474.894 128.6 474.894 128.288C474.894 127.896 474.834 127.532 474.714 127.196C474.594 126.86 474.422 126.568 474.198 126.32C473.982 126.072 473.71 125.88 473.382 125.744C473.062 125.6 472.698 125.528 472.29 125.528C471.826 125.528 471.414 125.616 471.054 125.792C470.702 125.968 470.406 126.252 470.166 126.644L470.142 126.62C470.15 126.292 470.182 125.94 470.238 125.564C470.294 125.188 470.394 124.84 470.538 124.52C470.69 124.192 470.898 123.924 471.162 123.716C471.426 123.5 471.774 123.392 472.206 123.392C472.614 123.392 472.942 123.508 473.19 123.74C473.438 123.972 473.586 124.28 473.634 124.664ZM472.098 126.428C472.386 126.428 472.638 126.48 472.854 126.584C473.07 126.688 473.25 126.828 473.394 127.004C473.538 127.172 473.642 127.376 473.706 127.616C473.778 127.848 473.814 128.096 473.814 128.36C473.814 128.608 473.774 128.848 473.694 129.08C473.622 129.304 473.514 129.504 473.37 129.68C473.226 129.856 473.046 129.996 472.83 130.1C472.622 130.196 472.378 130.244 472.098 130.244C471.818 130.244 471.566 130.196 471.342 130.1C471.126 129.996 470.942 129.86 470.79 129.692C470.646 129.524 470.534 129.324 470.454 129.092C470.374 128.86 470.334 128.612 470.334 128.348C470.334 128.084 470.37 127.836 470.442 127.604C470.522 127.364 470.638 127.16 470.79 126.992C470.942 126.816 471.126 126.68 471.342 126.584C471.558 126.48 471.81 126.428 472.098 126.428Z" fill="black"/>
<path d="M370.526 239.7C370.526 239.484 370.566 239.296 370.646 239.136C370.726 238.976 370.83 238.84 370.958 238.728C371.094 238.616 371.254 238.532 371.438 238.476C371.622 238.42 371.814 238.392 372.014 238.392C372.43 238.392 372.77 238.504 373.034 238.728C373.306 238.944 373.442 239.268 373.442 239.7C373.442 240.132 373.31 240.468 373.046 240.708C372.782 240.948 372.446 241.068 372.038 241.068C371.83 241.068 371.634 241.04 371.45 240.984C371.266 240.928 371.106 240.844 370.97 240.732C370.834 240.62 370.726 240.48 370.646 240.312C370.566 240.136 370.526 239.932 370.526 239.7ZM369.446 239.664C369.446 240.048 369.554 240.404 369.77 240.732C369.986 241.052 370.274 241.284 370.634 241.428C370.154 241.596 369.786 241.868 369.53 242.244C369.274 242.612 369.146 243.048 369.146 243.552C369.146 243.984 369.218 244.364 369.362 244.692C369.514 245.012 369.718 245.28 369.974 245.496C370.238 245.712 370.546 245.872 370.898 245.976C371.25 246.08 371.63 246.132 372.038 246.132C372.43 246.132 372.798 246.076 373.142 245.964C373.486 245.852 373.782 245.688 374.03 245.472C374.286 245.248 374.486 244.976 374.63 244.656C374.782 244.336 374.858 243.968 374.858 243.552C374.858 243.024 374.734 242.58 374.486 242.22C374.238 241.852 373.858 241.588 373.346 241.428C373.706 241.268 373.99 241.032 374.198 240.72C374.414 240.4 374.522 240.048 374.522 239.664C374.522 239.392 374.474 239.128 374.378 238.872C374.282 238.608 374.13 238.376 373.922 238.176C373.722 237.968 373.458 237.804 373.13 237.684C372.802 237.556 372.406 237.492 371.942 237.492C371.614 237.492 371.298 237.54 370.994 237.636C370.698 237.732 370.434 237.872 370.202 238.056C369.97 238.24 369.786 238.468 369.65 238.74C369.514 239.004 369.446 239.312 369.446 239.664ZM370.226 243.6C370.226 243.352 370.27 243.128 370.358 242.928C370.454 242.728 370.582 242.556 370.742 242.412C370.91 242.268 371.102 242.16 371.318 242.088C371.542 242.008 371.778 241.968 372.026 241.968C372.266 241.968 372.49 242.012 372.698 242.1C372.914 242.18 373.102 242.292 373.262 242.436C373.422 242.58 373.546 242.752 373.634 242.952C373.73 243.144 373.778 243.356 373.778 243.588C373.778 243.828 373.734 244.048 373.646 244.248C373.566 244.448 373.446 244.624 373.286 244.776C373.134 244.92 372.95 245.036 372.734 245.124C372.526 245.204 372.294 245.244 372.038 245.244C371.51 245.244 371.074 245.1 370.73 244.812C370.394 244.516 370.226 244.112 370.226 243.6Z" fill="black"/>
<path d="M474.774 238.512V237.636H469.266V238.596H473.73C473.282 239.068 472.862 239.584 472.47 240.144C472.086 240.704 471.746 241.3 471.45 241.932C471.154 242.556 470.91 243.212 470.718 243.9C470.534 244.58 470.418 245.28 470.37 246H471.51C471.55 245.336 471.662 244.652 471.846 243.948C472.03 243.244 472.266 242.56 472.554 241.896C472.85 241.232 473.186 240.608 473.562 240.024C473.938 239.44 474.342 238.936 474.774 238.512Z" fill="black"/>
<path d="M10.9554 358.952C10.9554 358.648 10.9874 358.352 11.0514 358.064C11.1154 357.776 11.2194 357.52 11.3634 357.296C11.5074 357.072 11.6994 356.892 11.9394 356.756C12.1794 356.62 12.4714 356.552 12.8154 356.552C13.1674 356.552 13.4674 356.62 13.7154 356.756C13.9634 356.884 14.1634 357.056 14.3154 357.272C14.4754 357.488 14.5914 357.74 14.6634 358.028C14.7354 358.308 14.7714 358.6 14.7714 358.904C14.7714 359.192 14.7354 359.476 14.6634 359.756C14.5994 360.036 14.4914 360.288 14.3394 360.512C14.1874 360.728 13.9914 360.904 13.7514 361.04C13.5114 361.176 13.2194 361.244 12.8754 361.244C12.5474 361.244 12.2594 361.18 12.0114 361.052C11.7714 360.924 11.5714 360.752 11.4114 360.536C11.2594 360.32 11.1434 360.076 11.0634 359.804C10.9914 359.524 10.9554 359.24 10.9554 358.952ZM15.7554 362V353.432H14.7354V356.624H14.7114C14.5994 356.44 14.4594 356.288 14.2914 356.168C14.1314 356.04 13.9594 355.94 13.7754 355.868C13.5914 355.788 13.4074 355.732 13.2234 355.7C13.0394 355.668 12.8674 355.652 12.7074 355.652C12.2354 355.652 11.8194 355.74 11.4594 355.916C11.1074 356.084 10.8114 356.316 10.5714 356.612C10.3394 356.9 10.1634 357.24 10.0434 357.632C9.93136 358.024 9.87536 358.44 9.87536 358.88C9.87536 359.32 9.93536 359.736 10.0554 360.128C10.1754 360.52 10.3514 360.864 10.5834 361.16C10.8234 361.456 11.1194 361.692 11.4714 361.868C11.8314 362.044 12.2514 362.132 12.7314 362.132C13.1634 362.132 13.5594 362.056 13.9194 361.904C14.2794 361.752 14.5434 361.504 14.7114 361.16H14.7354V362H15.7554Z" fill="black"/>
<path d="M113.518 354.68V353.432H112.498V354.68H113.518ZM113.518 362.78V355.796H112.498V362.612C112.498 362.932 112.458 363.152 112.378 363.272C112.298 363.4 112.146 363.464 111.922 363.464H111.706C111.674 363.464 111.646 363.46 111.622 363.452C111.59 363.452 111.554 363.448 111.514 363.44V364.316C111.674 364.348 111.846 364.364 112.03 364.364C112.486 364.364 112.846 364.236 113.11 363.98C113.382 363.732 113.518 363.332 113.518 362.78Z" fill="black"/>
</svg>
